<?xml version="1.0" standalone="no"?>
<!DOCTYPE svg PUBLIC "-//W3C//DTD SVG 1.1//EN" "http://www.w3.org/Graphics/SVG/1.1/DTD/svg11.dtd" >
<svg>
<metadata>
Created by FontForge 20090622 at Fri Nov 16 13:09:33 2012
 By root
Joe Prince, Admix Designs. &#194;&#169; 2008 - 2012
</metadata>
<defs>
<font id="Bemio" horiz-adv-x="1020" >
  <font-face 
    font-family="Bemio"
    font-weight="400"
    font-stretch="normal"
    units-per-em="1000"
    panose-1="2 0 0 0 0 0 0 0 0 0"
    ascent="750"
    descent="-250"
    x-height="530"
    cap-height="676"
    bbox="-172 -431 1918 1137"
    underline-thickness="50"
    underline-position="-50"
    unicode-range="U+0020-U+FB06"
  />
<missing-glyph horiz-adv-x="427" 
d="M0 676h427v-676h-427v676zM84 204l80 134l-80 133v-267zM213 419l105 173h-209zM318 84l-105 173l-104 -173h209zM263 338l80 -134v267z" />
    <glyph glyph-name="f_f" unicode="ff" horiz-adv-x="820" 
d="M675 752q85 0 147 -25l-17 -140q-14 2 -24 2q-19 0 -30.5 -2.5t-21.5 -15.5t-10 -37v-4h84v-175h-84v-355h-255v355h-123v-355h-255v355h-56v175h56v2q0 107 63 158.5t171 51.5q103 0 189 -55q54 65 166 65zM341 532v-2h123v2q0 17 1 25q-29 22 -64 22q-60 0 -60 -47z
" />
    <glyph glyph-name="fi" unicode="fi" horiz-adv-x="768" 
d="M464 0v355h-123v-355h-255v355h-56v175h56v2q0 63 25.5 108t70 68.5t93.5 33.5t108 10q129 0 221 -32l-20 -152q-60 21 -126 21q-33 0 -54.5 -2.5t-42 -15.5t-20.5 -37v-4h378v-530h-255z" />
    <glyph glyph-name="fl" unicode="fl" horiz-adv-x="769" 
d="M402 752q49 0 91 -5.5t85 -21.5t73 -41t49 -67.5t19 -97.5v-519h-255v530q0 25 -15 42t-44 17q-64 0 -64 -55v-4h84v-175h-84v-355h-255v355h-56v175h56v2q0 63 26.5 108t73.5 68.5t100 33.5t116 10z" />
    <glyph glyph-name="f_f_i" unicode="ffi" horiz-adv-x="1146" 
d="M842 0v355h-123v-355h-255v355h-123v-355h-255v355h-56v175h56v2q0 107 63 158.5t171 51.5q48 0 90.5 -11.5t62.5 -22t48 -28.5q75 72 240 72q129 0 221 -32l-20 -152q-60 21 -126 21q-33 0 -54.5 -2.5t-42 -15.5t-20.5 -37v-4h378v-530h-255zM341 530h123v2q0 17 1 25
q-29 22 -64 22q-60 0 -60 -47v-2z" />
    <glyph glyph-name="f_f_l" unicode="ffl" horiz-adv-x="1147" 
d="M842 0v530q0 25 -15 42t-44 17q-64 0 -64 -55v-4h84v-175h-84v-355h-255v355h-123v-355h-255v355h-56v175h56v2q0 107 63 158.5t171 51.5q48 0 91 -11.5t62.5 -22t48.5 -29.5l-1 -2q80 75 259 75q49 0 91 -5.5t85 -21.5t73 -41t49 -67.5t19 -97.5v-519h-255zM341 532v-2
h123v2q0 17 1 25q-29 22 -64 22q-60 0 -60 -47z" />
    <glyph glyph-name="f_b" unicode="fb" horiz-adv-x="1118" 
d="M402 752q49 0 91 -5.5t85 -21.5t73 -41t49 -67.5t19 -97.5v-43q62 67 151 67q98 0 160.5 -80t62.5 -197t-62.5 -198t-160.5 -81q-97 0 -161 81v-68h-245v530q0 25 -15 42t-44 17q-64 0 -64 -55v-4h84v-175h-84v-355h-255v355h-56v175h56v2q0 63 26.5 108t73.5 68.5
t100 33.5t116 10zM772 177q32 0 53 26t21 63t-21 63t-53 26t-53 -26t-21 -63t21 -63t53 -26z" />
    <glyph glyph-name="f_iogonek" unicode="f&#x12f;" horiz-adv-x="768" 
d="M383 752q129 0 221 -32l-20 -152q-60 21 -126 21q-33 0 -54.5 -2.5t-42 -15.5t-20.5 -37v-4h378v-530q-79 -58 -79 -102q0 -41 45 -41q35 0 55 20l39 -25q-44 -63 -135 -63q-47 0 -81.5 20.5t-34.5 61.5q0 68 100 129h-164v355h-123v-355h-255v355h-56v175h56v2
q0 63 25.5 108t70 68.5t93.5 33.5t108 10z" />
    <glyph glyph-name="f_dotlessi" unicode="f&#x131;" horiz-adv-x="768" 
d="M464 0v355h-123v-355h-255v355h-56v175h56v2q0 63 18 108t49.5 68.5t66.5 33.5t77 10q85 0 147 -25l-17 -140q-14 2 -24 2q-19 0 -30.5 -2.5t-21.5 -15.5t-10 -37v-4h378v-530h-255z" />
    <glyph glyph-name="f_j" unicode="fj" horiz-adv-x="768" 
d="M383 752q129 0 221 -32l-20 -152q-60 21 -126 21q-33 0 -54.5 -2.5t-42 -15.5t-20.5 -37v-4h378v-477q0 -65 -20.5 -113t-50 -74.5t-76.5 -43t-85 -21.5t-90 -8l-18 161q17 6 28.5 11.5t26.5 15.5t22.5 25.5t7.5 35.5v313h-123v-355h-255v355h-56v175h56v2q0 63 25.5 108
t70 68.5t93.5 33.5t108 10z" />
    <glyph glyph-name="f_k" unicode="fk" horiz-adv-x="1098" 
d="M921 314l184 -314h-271l-115 216v-216h-255v530q0 25 -15 42t-44 17q-64 0 -64 -55v-4h84v-175h-84v-355h-255v355h-56v175h56v2q0 63 26.5 108t73.5 68.5t100 33.5t116 10q49 0 91 -5.5t85 -21.5t73 -41t49 -67.5t19 -97.5v-160l108 171h257z" />
    <glyph glyph-name="f_kacute" unicode="f&#x1e31;" horiz-adv-x="1098" 
d="M840 966l-164 -155h-145l110 155h199zM921 314l184 -314h-271l-115 216v-216h-255v530q0 25 -15 42t-44 17q-64 0 -64 -55v-4h84v-175h-84v-355h-255v355h-56v175h56v2q0 63 26.5 108t73.5 68.5t100 33.5t116 10q49 0 91 -5.5t85 -21.5t73 -41t49 -67.5t19 -97.5v-160
l108 171h257z" />
    <glyph glyph-name="f_kcaron" unicode="f&#x1e9;" horiz-adv-x="1098" 
d="M989 964l-119 -155h-194l-119 155h145l71 -70l71 70h145zM921 314l184 -314h-271l-115 216v-216h-255v530q0 25 -15 42t-44 17q-64 0 -64 -55v-4h84v-175h-84v-355h-255v355h-56v175h56v2q0 63 26.5 108t73.5 68.5t100 33.5t116 10q49 0 91 -5.5t85 -21.5t73 -41
t49 -67.5t19 -97.5v-160l108 171h257z" />
    <glyph glyph-name="f_kcedilla" unicode="f&#xb8;" horiz-adv-x="1098" 
d="M921 314l184 -314h-271l-115 216v-216h-65l-38 -58q49 -2 83 -25t34 -59q0 -40 -32.5 -65.5t-92.5 -25.5q-74 0 -140 26l26 58q122 -26 122 26q0 30 -86 35l51 88h-117v530q0 25 -15 42t-44 17q-64 0 -64 -55v-4h84v-175h-84v-355h-255v355h-56v175h56v2q0 63 26.5 108
t73.5 68.5t100 33.5t116 10q49 0 91 -5.5t85 -21.5t73 -41t49 -67.5t19 -97.5v-160l108 171h257z" />
    <glyph glyph-name="f_kcommaaccent" unicode="f&#x137;" horiz-adv-x="1098" 
d="M674 -73h186v-144l-89 -131h-92l72 117h-77v158zM921 314l184 -314h-271l-115 216v-216h-255v530q0 25 -15 42t-44 17q-64 0 -64 -55v-4h84v-175h-84v-355h-255v355h-56v175h56v2q0 63 26.5 108t73.5 68.5t100 33.5t116 10q49 0 91 -5.5t85 -21.5t73 -41t49 -67.5
t19 -97.5v-160l108 171h257z" />
    <glyph glyph-name="f_kdotbelow" unicode="f&#x1e33;" horiz-adv-x="1098" 
d="M921 314l184 -314h-271l-115 216v-216h-255v530q0 25 -15 42t-44 17q-64 0 -64 -55v-4h84v-175h-84v-355h-255v355h-56v175h56v2q0 63 26.5 108t73.5 68.5t100 33.5t116 10q49 0 91 -5.5t85 -21.5t73 -41t49 -67.5t19 -97.5v-160l108 171h257zM691 -204v131h163v-131
h-163z" />
    <glyph glyph-name="f_klinebelow" unicode="f&#x1e35;" horiz-adv-x="1098" 
d="M579 -174v101h357v-101h-357zM921 314l184 -314h-271l-115 216v-216h-255v530q0 25 -15 42t-44 17q-64 0 -64 -55v-4h84v-175h-84v-355h-255v355h-56v175h56v2q0 63 26.5 108t73.5 68.5t100 33.5t116 10q49 0 91 -5.5t85 -21.5t73 -41t49 -67.5t19 -97.5v-160l108 171
h257z" />
    <glyph glyph-name="f_lacute" unicode="f&#x13a;" horiz-adv-x="769" 
d="M464 0v530q0 25 -15 42t-44 17q-64 0 -64 -55v-4h84v-175h-84v-355h-255v355h-56v175h56v2q0 63 26.5 108t73.5 68.5t100 33.5t116 10q49 0 91 -5.5t85 -21.5t73 -41t49 -67.5t19 -97.5v-519h-255zM797 937l-164 -155h-145l110 155h199z" />
    <glyph glyph-name="f_lcaron" unicode="f&#x13e;" horiz-adv-x="904" 
d="M464 0v530q0 25 -15 42t-44 17q-64 0 -64 -55v-4h84v-175h-84v-355h-255v355h-56v175h56v2q0 63 26.5 108t73.5 68.5t100 33.5t116 10q49 0 91 -5.5t85 -21.5t73 -41t49 -67.5t19 -97.5v-519h-255zM783 739h186v-144l-89 -131h-92l72 117h-77v158z" />
    <glyph glyph-name="f_f_b" unicode="ffb" horiz-adv-x="1496" 
d="M1248 543q98 0 160.5 -80t62.5 -197t-62.5 -198t-160.5 -81q-97 0 -161 81v-68h-245v530q0 25 -15 42t-44 17q-64 0 -64 -55v-4h84v-175h-84v-355h-255v355h-123v-355h-255v355h-56v175h56v2q0 107 63 158.5t171 51.5q48 0 91 -11.5t62.5 -22t48.5 -29.5l-1 -2
q80 75 259 75q49 0 91 -5.5t85 -21.5t73 -41t49 -67.5t19 -97.5v-43q62 67 151 67zM1150 177q32 0 53 26t21 63t-21 63t-53 26t-53 -26t-21 -63t21 -63t53 -26zM341 532v-2h123v2q0 17 1 25q-29 22 -64 22q-60 0 -60 -47z" />
    <glyph glyph-name="f_f_f" unicode="fff" horiz-adv-x="1198" 
d="M1053 752q85 0 147 -25l-17 -140q-14 2 -24 2q-19 0 -30.5 -2.5t-21.5 -15.5t-10 -37v-4h84v-175h-84v-355h-255v355h-123v-355h-255v355h-123v-355h-255v355h-56v175h56v2q0 107 63 158.5t171 51.5q102 0 196 -59q62 66 182 66q106 0 193 -58q54 61 162 61zM719 532v-2
h123v2q0 22 1 33q-27 21 -64 21q-26 0 -43 -13t-17 -41zM341 532v-2h123v2q0 17 1 25q-29 22 -64 22q-60 0 -60 -47z" />
    <glyph glyph-name="f_f_h" unicode="ffh" horiz-adv-x="1491" 
d="M780 752q49 0 91 -5.5t85 -21.5t73 -41t49 -67.5t19 -97.5v-38q60 62 158 62q81 0 136 -52.5t55 -130.5v-360h-255v303q0 20 -14 34.5t-33 14.5t-33 -14.5t-14 -34.5v-303h-255v530q0 25 -15 42t-44 17q-64 0 -64 -55v-4h84v-175h-84v-355h-255v355h-123v-355h-255v355
h-56v175h56v2q0 107 63 158.5t171 51.5q48 0 91 -11.5t62.5 -22t48.5 -29.5l-1 -2q80 75 259 75zM341 530h123v2q0 17 1 25q-29 22 -64 22q-60 0 -60 -47v-2z" />
    <glyph glyph-name="f_f_iacute" unicode="ff&#xb4;" horiz-adv-x="1146" 
d="M842 0v355h-123v-355h-255v355h-123v-355h-255v355h-56v175h56v2q0 107 63 158.5t171 51.5q103 0 189 -55q54 65 166 65q85 0 147 -25l-17 -140q-14 2 -24 2q-19 0 -30.5 -2.5t-21.5 -15.5t-10 -37v-4h378v-530h-255zM1176 745l-164 -155h-145l110 155h199zM341 530h123
v2q0 17 1 25q-29 22 -64 22q-60 0 -60 -47v-2z" />
    <glyph glyph-name="f_f_iogonek" unicode="ff&#x12f;" horiz-adv-x="1146" 
d="M761 752q129 0 221 -32l-20 -152q-60 21 -126 21q-33 0 -54.5 -2.5t-42 -15.5t-20.5 -37v-4h378v-530q-79 -58 -79 -102q0 -41 45 -41q35 0 55 20l39 -25q-44 -63 -135 -63q-47 0 -81.5 20.5t-34.5 61.5q0 68 100 129h-164v355h-123v-355h-255v355h-123v-355h-255v355
h-56v175h56v2q0 107 63 158.5t171 51.5q48 0 90.5 -11.5t62.5 -22t48 -28.5q75 72 240 72zM341 530h123v2q0 17 1 25q-29 22 -64 22q-60 0 -60 -47v-2z" />
    <glyph glyph-name="f_f_dotlessi" unicode="ff&#x131;" horiz-adv-x="1146" 
d="M842 0v355h-123v-355h-255v355h-123v-355h-255v355h-56v175h56v2q0 107 63 158.5t171 51.5q103 0 189 -55q54 65 166 65q85 0 147 -25l-17 -140q-14 2 -24 2q-19 0 -30.5 -2.5t-21.5 -15.5t-10 -37v-4h378v-530h-255zM341 530h123v2q0 17 1 25q-29 22 -64 22
q-60 0 -60 -47v-2z" />
    <glyph glyph-name="f_f_j" unicode="ffj" horiz-adv-x="1146" 
d="M761 752q129 0 221 -32l-20 -152q-60 21 -126 21q-33 0 -54.5 -2.5t-42 -15.5t-20.5 -37v-4h378v-477q0 -65 -20.5 -113t-50 -74.5t-76.5 -43t-85 -21.5t-90 -8l-18 161q17 6 28.5 11.5t26.5 15.5t22.5 25.5t7.5 35.5v313h-123v-355h-255v355h-123v-355h-255v355h-56v175
h56v2q0 107 63 158.5t171 51.5q48 0 90.5 -11.5t62.5 -22t48 -28.5q75 72 240 72zM341 532v-2h123v2q0 17 1 25q-29 22 -64 22q-60 0 -60 -47z" />
    <glyph glyph-name="f_f_k" unicode="ffk" horiz-adv-x="1476" 
d="M780 752q49 0 91 -5.5t85 -21.5t73 -41t49 -67.5t19 -97.5v-160l108 171h257l-163 -216l184 -314h-271l-115 216v-216h-255v530q0 25 -15 42t-44 17q-64 0 -64 -55v-4h84v-175h-84v-355h-255v355h-123v-355h-255v355h-56v175h56v2q0 107 63 158.5t171 51.5q48 0 91 -11.5
t62.5 -22t48.5 -29.5l-1 -2q80 75 259 75zM341 532v-2h123v2q0 17 1 25q-29 22 -64 22q-60 0 -60 -47z" />
    <glyph glyph-name="f_f_t" unicode="fft" horiz-adv-x="1229" 
d="M675 752q85 0 147 -25l-17 -140q-14 2 -24 2q-19 0 -30.5 -2.5t-21.5 -15.5t-10 -37v-4h123v123h255v-123h92v-175h-92v-141q0 -29 18 -43t44 -14q11 0 27 2l20 -141q-71 -31 -171 -31q-193 0 -193 165v203h-123v-355h-255v355h-123v-355h-255v355h-56v175h56v2
q0 107 63 158.5t171 51.5q103 0 189 -55q54 65 166 65zM341 532v-2h123v2q0 17 1 25q-29 22 -64 22q-60 0 -60 -47z" />
    <glyph glyph-name="t_f" unicode="tf" horiz-adv-x="846" 
d="M701 752q85 0 147 -25l-17 -140q-14 2 -24 2q-19 0 -30.5 -2.5t-21.5 -15.5t-10 -37v-4h84v-175h-84v-355h-255v355h-153v-141q0 -29 18 -43t44 -14q11 0 27 2l20 -141q-71 -31 -171 -31q-193 0 -193 165v203h-55v175h55v123h255v-123h153v2q0 63 18 108t49.5 68.5
t66.5 33.5t77 10z" />
    <glyph glyph-name="t_i" unicode="ti" horiz-adv-x="794" 
d="M490 0v355h-153v-141q0 -29 18 -43t44 -14q11 0 27 2l20 -141q-71 -31 -171 -31q-193 0 -193 165v203h-55v175h55v123h255v-123h408v-530h-255zM748 739v-158h-261v158h261z" />
    <glyph glyph-name="t_iacute" unicode="t&#xed;" horiz-adv-x="794" 
d="M27 355v175h55v123h255v-123h408v-530h-255v355h-153v-141q0 -29 18 -43t44 -14q11 0 27 2l20 -141q-71 -31 -171 -31q-193 0 -193 165v203h-55zM824 745l-164 -155h-145l110 155h199z" />
    <glyph glyph-name="t_ibreve" unicode="t&#x12d;" horiz-adv-x="794" 
d="M27 355v175h55v123h255v-123h408v-530h-255v355h-153v-141q0 -29 18 -43t44 -14q11 0 27 2l20 -141q-71 -31 -171 -31q-193 0 -193 165v203h-55zM713 740h91q-7 -75 -56.5 -114.5t-130.5 -39.5t-130.5 39.5t-56.5 114.5h91q7 -30 33.5 -45t62.5 -15t62.5 15t33.5 45z" />
    <glyph glyph-name="t_icircumflex" unicode="t&#xee;" horiz-adv-x="794" 
d="M27 355v175h55v123h255v-123h408v-530h-255v355h-153v-141q0 -29 18 -43t44 -14q11 0 27 2l20 -141q-71 -31 -171 -31q-193 0 -193 165v203h-55zM714 745l119 -155h-145l-71 70l-71 -70h-145l119 155h194z" />
    <glyph glyph-name="t_idieresis" unicode="t&#xef;" horiz-adv-x="794" 
d="M27 355v175h55v123h255v-123h408v-530h-255v355h-153v-141q0 -29 18 -43t44 -14q11 0 27 2l20 -141q-71 -31 -171 -31q-193 0 -193 165v203h-55zM662 598v131h163v-131h-163zM410 598v131h163v-131h-163z" />
    <glyph glyph-name="t_igrave" unicode="t`" horiz-adv-x="794" 
d="M27 355v175h55v123h255v-123h408v-530h-255v355h-153v-141q0 -29 18 -43t44 -14q11 0 27 2l20 -141q-71 -31 -171 -31q-193 0 -193 165v203h-55zM580 590l-164 155h199l110 -155h-145z" />
    <glyph glyph-name="t_imacron" unicode="t&#x12b;" horiz-adv-x="794" 
d="M27 355v175h55v123h255v-123h408v-530h-255v355h-153v-141q0 -29 18 -43t44 -14q11 0 27 2l20 -141q-71 -31 -171 -31q-193 0 -193 165v203h-55zM439 609v101h357v-101h-357z" />
    <glyph glyph-name="t_iogonek" unicode="t&#x12f;" horiz-adv-x="794" 
d="M27 355v175h55v123h255v-123h408v-530q-79 -58 -79 -102q0 -41 45 -41q35 0 55 20l39 -25q-44 -63 -135 -63q-47 0 -81.5 20.5t-34.5 61.5q0 68 100 129h-164v355h-153v-141q0 -29 18 -43t44 -14q11 0 27 2l20 -141q-71 -31 -171 -31q-193 0 -193 165v203h-55zM748 739
v-158h-261v158h261z" />
    <glyph glyph-name="t_itilde" unicode="t&#x129;" horiz-adv-x="794" 
d="M27 355v175h55v123h255v-123h408v-530h-255v355h-153v-141q0 -29 18 -43t44 -14q11 0 27 2l20 -141q-71 -31 -171 -31q-193 0 -193 165v203h-55zM415 588q0 54 35 104t91 50q43 0 88 -25t60 -25t29 16t20 39h83q-1 -59 -38 -110.5t-90 -51.5q-41 0 -84.5 24.5t-65.5 24.5
q-16 0 -28.5 -13.5t-18.5 -32.5h-81z" />
    <glyph glyph-name="t_t" unicode="tt" horiz-adv-x="877" 
d="M337 355v-141q0 -29 18 -43t44 -14q11 0 27 2l20 -141q-71 -31 -171 -31q-193 0 -193 165v203h-55v175h55v123h255v-123h153v123h255v-123h92v-175h-92v-141q0 -29 18 -43t44 -14q11 0 27 2l20 -141q-71 -31 -171 -31q-193 0 -193 165v203h-153z" />
    <glyph glyph-name="t_dotlessi" unicode="t&#x131;" horiz-adv-x="794" 
d="M27 355v175h55v123h255v-123h408v-530h-255v355h-153v-141q0 -29 18 -43t44 -14q11 0 27 2l20 -141q-71 -31 -171 -31q-193 0 -193 165v203h-55z" />
    <glyph glyph-name="t_t_f" unicode="ttf" horiz-adv-x="1254" 
d="M337 355v-141q0 -29 18 -43t44 -14q11 0 27 2l20 -141q-71 -31 -171 -31q-193 0 -193 165v203h-55v175h55v123h255v-123h153v123h255v-123h153v2q0 63 18 108t49.5 68.5t66.5 33.5t77 10q85 0 147 -25l-17 -140q-14 2 -24 2q-19 0 -30.5 -2.5t-21.5 -15.5t-10 -37v-4h84
v-175h-84v-355h-255v355h-153v-141q0 -29 18 -43t44 -14q11 0 27 2l20 -141q-71 -31 -171 -31q-193 0 -193 165v203h-153z" />
    <glyph glyph-name="t_t_i" unicode="tti" horiz-adv-x="1202" 
d="M337 355v-141q0 -29 18 -43t44 -14q11 0 27 2l20 -141q-71 -31 -171 -31q-193 0 -193 165v203h-55v175h55v123h255v-123h153v123h255v-123h408v-530h-255v355h-153v-141q0 -29 18 -43t44 -14q11 0 27 2l20 -141q-71 -31 -171 -31q-193 0 -193 165v203h-153zM1156 739
v-158h-261v158h261z" />
    <glyph glyph-name="t_t_iacute" unicode="tt&#xed;" horiz-adv-x="1202" 
d="M337 355v-141q0 -29 18 -43t44 -14q11 0 27 2l20 -141q-71 -31 -171 -31q-193 0 -193 165v203h-55v175h55v123h255v-123h153v123h255v-123h408v-530h-255v355h-153v-141q0 -29 18 -43t44 -14q11 0 27 2l20 -141q-71 -31 -171 -31q-193 0 -193 165v203h-153zM1232 745
l-164 -155h-145l110 155h199z" />
    <glyph glyph-name="t_t_ibreve" unicode="tt&#x12d;" horiz-adv-x="1202" 
d="M337 355v-141q0 -29 18 -43t44 -14q11 0 27 2l20 -141q-71 -31 -171 -31q-193 0 -193 165v203h-55v175h55v123h255v-123h153v123h255v-123h408v-530h-255v355h-153v-141q0 -29 18 -43t44 -14q11 0 27 2l20 -141q-71 -31 -171 -31q-193 0 -193 165v203h-153zM1121 740h91
q-7 -75 -56.5 -114.5t-130.5 -39.5t-130.5 39.5t-56.5 114.5h91q7 -30 33.5 -45t62.5 -15t62.5 15t33.5 45z" />
    <glyph glyph-name="t_t_icircumflex" unicode="tt&#xee;" horiz-adv-x="1202" 
d="M337 355v-141q0 -29 18 -43t44 -14q11 0 27 2l20 -141q-71 -31 -171 -31q-193 0 -193 165v203h-55v175h55v123h255v-123h153v123h255v-123h408v-530h-255v355h-153v-141q0 -29 18 -43t44 -14q11 0 27 2l20 -141q-71 -31 -171 -31q-193 0 -193 165v203h-153zM1122 745
l119 -155h-145l-71 70l-71 -70h-145l119 155h194z" />
    <glyph glyph-name="t_t_idieresis" unicode="tt&#xef;" horiz-adv-x="1202" 
d="M337 355v-141q0 -29 18 -43t44 -14q11 0 27 2l20 -141q-71 -31 -171 -31q-193 0 -193 165v203h-55v175h55v123h255v-123h153v123h255v-123h408v-530h-255v355h-153v-141q0 -29 18 -43t44 -14q11 0 27 2l20 -141q-71 -31 -171 -31q-193 0 -193 165v203h-153zM1070 598v131
h163v-131h-163zM818 598v131h163v-131h-163z" />
    <glyph glyph-name="t_t_igrave" unicode="tt&#xec;" horiz-adv-x="1202" 
d="M337 355v-141q0 -29 18 -43t44 -14q11 0 27 2l20 -141q-71 -31 -171 -31q-193 0 -193 165v203h-55v175h55v123h255v-123h153v123h255v-123h408v-530h-255v355h-153v-141q0 -29 18 -43t44 -14q11 0 27 2l20 -141q-71 -31 -171 -31q-193 0 -193 165v203h-153zM988 590
l-164 155h199l110 -155h-145z" />
    <glyph glyph-name="t_t_imacron" unicode="tt&#x12b;" horiz-adv-x="1202" 
d="M337 355v-141q0 -29 18 -43t44 -14q11 0 27 2l20 -141q-71 -31 -171 -31q-193 0 -193 165v203h-55v175h55v123h255v-123h153v123h255v-123h408v-530h-255v355h-153v-141q0 -29 18 -43t44 -14q11 0 27 2l20 -141q-71 -31 -171 -31q-193 0 -193 165v203h-153zM847 609v101
h357v-101h-357z" />
    <glyph glyph-name="t_t_iogonek" unicode="tt&#x12f;" horiz-adv-x="1202" 
d="M27 355v175h55v123h255v-123h153v123h255v-123h408v-530q-79 -58 -79 -102q0 -41 45 -41q35 0 55 20l39 -25q-44 -63 -135 -63q-47 0 -81.5 20.5t-34.5 61.5q0 68 100 129h-164v355h-153v-141q0 -29 18 -43t44 -14q11 0 27 2l20 -141q-71 -31 -171 -31q-193 0 -193 165
v203h-153v-141q0 -29 18 -43t44 -14q11 0 27 2l20 -141q-71 -31 -171 -31q-193 0 -193 165v203h-55zM1156 739v-158h-261v158h261z" />
    <glyph glyph-name="t_t_itilde" unicode="tt&#x129;" horiz-adv-x="1202" 
d="M337 355v-141q0 -29 18 -43t44 -14q11 0 27 2l20 -141q-71 -31 -171 -31q-193 0 -193 165v203h-55v175h55v123h255v-123h153v123h255v-123h408v-530h-255v355h-153v-141q0 -29 18 -43t44 -14q11 0 27 2l20 -141q-71 -31 -171 -31q-193 0 -193 165v203h-153zM823 588
q0 54 35 104t91 50q43 0 88 -25t60 -25t29 16t20 39h83q-1 -59 -38 -110.5t-90 -51.5q-41 0 -84.5 24.5t-65.5 24.5q-16 0 -28.5 -13.5t-18.5 -32.5h-81z" />
    <glyph glyph-name="t_t_dotlessi" unicode="tt&#x131;" horiz-adv-x="1202" 
d="M337 355v-141q0 -29 18 -43t44 -14q11 0 27 2l20 -141q-71 -31 -171 -31q-193 0 -193 165v203h-55v175h55v123h255v-123h153v123h255v-123h408v-530h-255v355h-153v-141q0 -29 18 -43t44 -14q11 0 27 2l20 -141q-71 -31 -171 -31q-193 0 -193 165v203h-153z" />
    <glyph glyph-name=".notdef" horiz-adv-x="427" 
d="M0 676h427v-676h-427v676zM84 204l80 134l-80 133v-267zM213 419l105 173h-209zM318 84l-105 173l-104 -173h209zM263 338l80 -134v267z" />
    <glyph glyph-name=".null" horiz-adv-x="0" 
 />
    <glyph glyph-name="nonmarkingreturn" horiz-adv-x="333" 
 />
    <glyph glyph-name="space" unicode=" " horiz-adv-x="240" 
 />
    <glyph glyph-name="exclam" unicode="!" horiz-adv-x="345" 
d="M47 566v110h251v-110l-41 -314h-169zM55 0v200h235v-200h-235z" />
    <glyph glyph-name="quotedbl" unicode="&#x22;" horiz-adv-x="514" 
d="M46 608v68h172v-68l-10 -242h-152zM296 608v68h172v-68l-10 -242h-152z" />
    <glyph glyph-name="numbersign" unicode="#" horiz-adv-x="663" 
d="M413 584h137l-16 -121h101v-122h-117l-13 -98h94v-122h-110l-16 -121h-137l16 121h-86l-16 -121h-137l16 121h-101v122h117l13 98h-94v122h110l16 121h137l-16 -121h86zM295 341l-13 -98h86l13 98h-86z" />
    <glyph glyph-name="dollar" unicode="$" horiz-adv-x="632" 
d="M277 485q0 -18 24.5 -30.5t60.5 -20t79 -22.5t79 -34.5t60.5 -59.5t24.5 -95q0 -105 -60.5 -162.5t-170.5 -69.5v-152h-100v149q-133 4 -242 49l40 181q119 -54 222 -54q62 0 62 31q0 20 -33.5 32t-81 23t-95 30t-80.5 63.5t-33 112.5q1 101 65 160.5t176 70.5v94h100
v-94q99 -5 203 -36l-39 -174q-92 38 -199 38q-62 0 -62 -30z" />
    <glyph glyph-name="percent" unicode="%" horiz-adv-x="840" 
d="M151 -10l438 696h100l-439 -696h-99zM192 327q-80 0 -123 49.5t-43 131.5t43 131.5t123 49.5t123 -49.5t43 -131.5t-43 -131.5t-123 -49.5zM192 593q-22 0 -34 -23t-12 -62t12 -62t34 -23t34 23t12 62t-12 62t-34 23zM648 -13q-80 0 -123 49.5t-43 131.5t43 131.5
t123 49.5t123 -49.5t43 -131.5t-43 -131.5t-123 -49.5zM648 253q-22 0 -34 -23t-12 -62t12 -62t34 -23t34 23t12 62t-12 62t-34 23z" />
    <glyph glyph-name="ampersand" unicode="&#x26;" horiz-adv-x="709" 
d="M693 427v-170h-55v-8q0 -262 -304 -262q-80 0 -145.5 17t-112 62t-46.5 112q0 63 36.5 108.5t93.5 60.5q-109 49 -109 154q0 91 78.5 139.5t213.5 48.5q116 0 235 -39l-30 -179q-79 31 -173 31q-85 0 -85 -39q0 -36 78 -36h18v-170h-30q-74 0 -74 -40q0 -43 70 -43
q43 0 63.5 19t20.5 48v186h257z" />
    <glyph glyph-name="quotesingle" unicode="'" horiz-adv-x="264" 
d="M46 608v68h172v-68l-10 -242h-152z" />
    <glyph glyph-name="parenleft" unicode="(" horiz-adv-x="368" 
d="M371 -196h-204q-74 118 -108 226.5t-34 229.5t34 229.5t108 226.5h204q-152 -200 -152 -456t152 -456z" />
    <glyph glyph-name="parenright" unicode=")" horiz-adv-x="368" 
d="M201 -196h-204q152 200 152 456t-152 456h204q74 -118 108 -226.5t34 -229.5t-34 -229.5t-108 -226.5z" />
    <glyph glyph-name="asterisk" unicode="*" horiz-adv-x="501" 
d="M472 471l-36 -12l-105 -22l72 -78l23 -32l-100 -72l-22 31l-53 93l-53 -93l-22 -31l-100 72l23 31l72 79l-105 21l-37 12l38 117l37 -12l97 -44l-12 106v39h123v-39l-12 -105l97 44l37 12z" />
    <glyph glyph-name="plus" unicode="+" horiz-adv-x="573" 
d="M544 332v-155h-178v-177h-159v177h-178v155h178v177h159v-177h178z" />
    <glyph glyph-name="comma" unicode="," horiz-adv-x="330" 
d="M48 200h235v-182l-113 -167h-117l92 149h-97v200z" />
    <glyph glyph-name="hyphen" unicode="-" horiz-adv-x="426" 
d="M378 338v-155h-330v155h330z" />
    <glyph glyph-name="period" unicode="." horiz-adv-x="331" 
d="M48 0v200h235v-200h-235z" />
    <glyph glyph-name="slash" unicode="/" horiz-adv-x="539" 
d="M24 -28l326 719h166l-326 -719h-166z" />
    <glyph glyph-name="zero" unicode="0" horiz-adv-x="688" 
d="M344 689q155 0 233.5 -95t78.5 -256t-78.5 -256t-233.5 -95t-233.5 95t-78.5 256t78.5 256t233.5 95zM344 173q31 0 42 41t11 124t-11 124t-42 41t-42 -41t-11 -124t11 -124t42 -41z" />
    <glyph glyph-name="one" unicode="1" horiz-adv-x="488" 
d="M176 0v384h-163v147q198 0 206 145h211v-676h-254z" />
    <glyph glyph-name="two" unicode="2" horiz-adv-x="655" 
d="M320 689q64 0 113 -10t90.5 -33t63.5 -67t22 -107q0 -79 -49.5 -139t-150.5 -132h207v-201h-579v193l93.5 56.5l88.5 53.5t66.5 44.5t50 46.5t15.5 44q0 29 -22.5 39.5t-72.5 10.5q-75 0 -183 -44l-36 190q53 20 135.5 37.5t147.5 17.5z" />
    <glyph glyph-name="three" unicode="3" horiz-adv-x="638" 
d="M469 347q58 -14 101 -60t43 -105q0 -53 -26.5 -92t-73.5 -60.5t-103 -32t-123 -10.5q-149 0 -266 39l26 195q98 -41 196 -41q107 0 107 36q0 39 -75 39h-134v174h114q74 0 74 33q0 35 -82 35q-90 0 -171 -32l-30 184q120 40 242 40q136 0 213.5 -48.5t77.5 -146.5
q0 -51 -31 -88.5t-79 -58.5z" />
    <glyph glyph-name="four" unicode="4" horiz-adv-x="687" 
d="M650 306v-185h-66v-121h-235v121h-331v189l267 366h299v-370h66zM226 301h128v174z" />
    <glyph glyph-name="five" unicode="5" horiz-adv-x="627" 
d="M43 342l50 334h480v-189h-260l-9 -56q30 2 46 2q105 0 177 -55t72 -169q0 -60 -26.5 -104.5t-73 -69.5t-102 -36.5t-121.5 -11.5q-121 0 -251 38l27 188q92 -40 170 -40q102 0 102 51q0 55 -95 55q-35 0 -86 -9z" />
    <glyph glyph-name="six" unicode="6" horiz-adv-x="666" 
d="M426 447q108 0 162 -61.5t54 -162.5q0 -106 -80 -171t-226 -65q-150 0 -227.5 92.5t-77.5 258.5q0 160 95 255.5t238 95.5q135 0 240 -51l-36 -159q-68 29 -156 29q-119 0 -131 -103q68 42 145 42zM344 158q24 0 35.5 19t11.5 47q0 67 -47 67q-23 0 -35 -19t-12 -48
q0 -66 47 -66z" />
    <glyph glyph-name="seven" unicode="7" horiz-adv-x="593" 
d="M17 676h565v-181q-89 -111 -139.5 -230t-56.5 -265h-263q5 200 179 468h-285v208z" />
    <glyph glyph-name="eight" unicode="8" horiz-adv-x="666" 
d="M500 345q136 -42 136 -168q0 -46 -15.5 -79.5t-41 -54.5t-65.5 -34t-83 -17.5t-98 -4.5t-98 4.5t-83 17.5t-65.5 34t-41 54.5t-15.5 79.5q0 126 136 168q-112 38 -112 163q0 91 72.5 136t206.5 45t206.5 -45t72.5 -136q0 -125 -112 -163zM333 554q-40 0 -40 -65
q0 -29 11 -46.5t29 -17.5t29 17.5t11 46.5q0 65 -40 65zM333 127q49 0 49 73q0 79 -49 79t-49 -79q0 -73 49 -73z" />
    <glyph glyph-name="nine" unicode="9" horiz-adv-x="673" 
d="M256 229q-111 0 -169 63.5t-58 164.5q0 104 82 168t222 64q157 0 233 -94.5t76 -247.5q0 -167 -87.5 -263.5t-249.5 -96.5q-147 0 -252 51l36 172q84 -37 175 -37q66 0 95 22t36 65q-60 -31 -139 -31zM330 517q-25 0 -37 -19.5t-12 -48.5t12 -48t37 -19q49 0 49 67
q0 28 -12.5 48t-36.5 20z" />
    <glyph glyph-name="colon" unicode=":" horiz-adv-x="349" 
d="M57 0v200h235v-200h-235zM57 330v200h235v-200h-235z" />
    <glyph glyph-name="semicolon" unicode=";" horiz-adv-x="348" 
d="M57 330v200h235v-200h-235zM57 200h235v-182l-113 -167h-117l92 149h-97v200z" />
    <glyph glyph-name="less" unicode="&#x3c;" horiz-adv-x="556" 
d="M28 337l480 187v-169l-289 -100l289 -100v-169l-480 187v164z" />
    <glyph glyph-name="equal" unicode="=" horiz-adv-x="615" 
d="M565 212v-155h-515v155h515zM565 453v-155h-515v155h515z" />
    <glyph glyph-name="greater" unicode="&#x3e;" horiz-adv-x="556" 
d="M48 524l480 -187v-164l-480 -187v169l289 100l-289 100v169z" />
    <glyph glyph-name="question" unicode="?" horiz-adv-x="519" 
d="M252 483q0 34 -57 34q-64 0 -139 -28l-32 159q106 41 224 41q110 0 176 -37.5t66 -121.5q0 -42 -21 -81t-45.5 -63t-45.5 -54.5t-21 -58.5v-21h-200v34q0 27 15 54t32.5 46t32.5 45t15 52zM142 0v200h235v-200h-235z" />
    <glyph glyph-name="at" unicode="@" horiz-adv-x="772" 
d="M376 -87q-146 0 -243 97.5t-97 235.5q0 157 115 268t266 111q145 0 236.5 -89.5t91.5 -225.5q0 -114 -58.5 -175.5t-133.5 -61.5q-78 0 -97 73q-50 -73 -132 -73q-73 0 -114.5 47t-41.5 118q0 93 61.5 160.5t145.5 67.5q82 0 120 -63l9 48h113l-43 -228q-12 -69 33 -69
q38 0 63.5 39.5t25.5 116.5q0 121 -77 195t-204 74q-133 0 -232.5 -98t-99.5 -233q0 -124 86 -207t209 -83q92 0 173 51l25 -37q-95 -59 -200 -59zM364 167q41 0 72.5 34t31.5 92q0 33 -18.5 55t-51.5 22q-46 0 -76 -36t-30 -88q0 -35 19.5 -57t52.5 -22z" />
    <glyph glyph-name="A" unicode="A" horiz-adv-x="758" 
d="M534 676l237 -676h-261l-31 113h-200l-30 -113h-262l236 676h311zM379 479l-57 -208h114z" />
    <glyph glyph-name="B" unicode="B" horiz-adv-x="716" 
d="M696 189q0 -60 -31.5 -101.5t-90 -62.5t-125 -29.5t-153.5 -8.5q-126 0 -238 14v671q131 17 235 17q72 0 132.5 -9t116.5 -30t88 -63t32 -101q0 -98 -91 -143q43 -9 84 -49t41 -105zM306 522v-111q9 -1 37 -1q87 0 87 59q0 55 -84 55q-20 0 -40 -2zM351 158q39 0 69.5 14
t30.5 47q0 62 -103 62q-22 0 -42 -2v-120q7 -1 45 -1z" />
    <glyph glyph-name="C" unicode="C" horiz-adv-x="665" 
d="M465 186q71 0 130 25l50 -182q-126 -42 -245 -42q-168 0 -270 95t-102 256q0 162 102 256.5t270 94.5q119 0 245 -42l-50 -182q-59 25 -130 25q-82 0 -127 -40t-45 -112t45 -112t127 -40z" />
    <glyph glyph-name="D" unicode="D" horiz-adv-x="782" 
d="M318 689q198 0 317.5 -93.5t119.5 -261.5q0 -86 -31.5 -150.5t-78.5 -101t-113 -59t-124 -29.5t-122 -7q-97 0 -228 14v671q114 17 260 17zM318 179q8 -1 30 -1q73 0 108.5 45.5t35.5 122.5q0 75 -37 116.5t-105 41.5q-24 0 -32 -1v-324z" />
    <glyph glyph-name="E" unicode="E" horiz-adv-x="658" 
d="M616 486h-304v-59h266v-176h-266v-62h304v-189h-558v676h558v-190z" />
    <glyph glyph-name="F" unicode="F" horiz-adv-x="612" 
d="M588 484h-272v-83h238v-199h-238v-202h-258v676h530v-192z" />
    <glyph glyph-name="G" unicode="G" horiz-adv-x="730" 
d="M465 375h227v-337q-117 -51 -281 -51q-169 0 -276.5 93.5t-107.5 255.5q0 161 110 257t286 96q119 0 240 -32l-33 -186q-82 24 -156 24q-182 0 -182 -159q0 -75 44.5 -115t104.5 -40q10 0 24 2v192z" />
    <glyph glyph-name="H" unicode="H" horiz-adv-x="802" 
d="M485 676h259v-676h-259v251h-168v-251h-259v676h259v-243h168v243z" />
    <glyph glyph-name="I" unicode="I" horiz-adv-x="377" 
d="M319 676v-676h-261v676h261z" />
    <glyph glyph-name="J" unicode="J" horiz-adv-x="530" 
d="M99 676h380v-396q0 -293 -292 -293q-102 0 -179 37l45 177q37 -11 69 -11q49 0 73.5 15.5t24.5 60.5v215h-121v195z" />
    <glyph glyph-name="K" unicode="K" horiz-adv-x="750" 
d="M537 372l225 -372h-298l-145 275v-275h-261v676h261v-240l145 240h280z" />
    <glyph glyph-name="L" unicode="L" horiz-adv-x="585" 
d="M319 676v-486h256v-190h-517v676h261z" />
    <glyph glyph-name="M" unicode="M" horiz-adv-x="879" 
d="M559 676h262v-676h-243v345l-136 -216h-6l-135 216v-345h-243v676h262l119 -221z" />
    <glyph glyph-name="N" unicode="N" horiz-adv-x="814" 
d="M517 676h239v-676h-247l-212 347v-347h-239v676h260l199 -345v345z" />
    <glyph glyph-name="O" unicode="O" horiz-adv-x="819" 
d="M410 689q172 0 277 -94.5t105 -256.5t-105 -256.5t-277 -94.5q-173 0 -278 94.5t-105 256.5t105 256.5t278 94.5zM410 181q59 0 89 40.5t30 116.5t-30 116.5t-89 40.5t-89.5 -40.5t-30.5 -116.5t30.5 -116.5t89.5 -40.5z" />
    <glyph glyph-name="P" unicode="P" horiz-adv-x="711" 
d="M301 689q72 0 137.5 -12.5t125.5 -41t96 -82t36 -127.5q0 -71 -34.5 -124.5t-91 -82t-122 -39.5t-134.5 -6v-174h-256v673q103 16 243 16zM312 498v-143q27 -2 52.5 1t51 21t25.5 51q0 31 -25.5 48.5t-53 21t-50.5 0.5z" />
    <glyph glyph-name="Q" unicode="Q" horiz-adv-x="820" 
d="M720 19l77 -116q-51 -47 -120 -68.5t-133 -15t-115 50t-66 118.5q-152 13 -243.5 106t-91.5 243q0 163 105 257.5t278 94.5q172 0 277 -94.5t105 -257.5q0 -115 -55 -198t-152 -121q41 -51 134 1zM291 338q0 -76 30.5 -118t89.5 -42q58 0 88.5 42t30.5 118t-30 116.5
t-89 40.5t-89.5 -40.5t-30.5 -116.5z" />
    <glyph glyph-name="R" unicode="R" horiz-adv-x="742" 
d="M579 278q105 -20 140 -278h-259q-9 45 -17.5 78t-16 56.5t-19 38t-19 22.5t-23 11.5t-25 4t-31.5 0.5v-211h-251v669q116 20 260 20q385 0 385 -235q0 -120 -124 -176zM331 369q27 0 51 4.5t46 21t22 44.5q0 37 -34.5 52.5t-77.5 15.5q-14 0 -30 -2v-135q7 -1 23 -1z" />
    <glyph glyph-name="S" unicode="S" horiz-adv-x="635" 
d="M286 483q0 -13 33.5 -22l80.5 -21t94.5 -33t81 -67t33.5 -113q0 -121 -78 -180.5t-216 -59.5q-152 0 -281 51l41 183q114 -55 223 -55q56 0 56 25q0 13 -33 21.5l-80 20.5t-93.5 33t-79.5 70t-32 120q1 111 78.5 172t209.5 61q126 0 259 -39l-41 -182q-88 40 -200 40
q-56 0 -56 -25z" />
    <glyph glyph-name="T" unicode="T" horiz-adv-x="665" 
d="M463 483v-483h-261v483h-192v193h645v-193h-192z" />
    <glyph glyph-name="U" unicode="U" horiz-adv-x="755" 
d="M443 676h261v-409q0 -141 -85 -210.5t-242 -69.5t-241.5 69.5t-84.5 210.5v409h261v-406q0 -41 13.5 -62.5t51.5 -21.5q39 0 52.5 21.5t13.5 62.5v406z" />
    <glyph glyph-name="V" unicode="V" horiz-adv-x="749" 
d="M196 0l-202 676h266l114 -449l115 449h267l-204 -676h-356z" />
    <glyph glyph-name="W" unicode="W" horiz-adv-x="1103" 
d="M841 676h259l-151 -676h-318l-80 380l-81 -380h-316l-151 676h258l68 -460l102 460h238l103 -460z" />
    <glyph glyph-name="X" unicode="X" horiz-adv-x="745" 
d="M6 676h270l96 -190l95 190h272l-189 -326l199 -350h-270l-107 206l-107 -206h-270l198 350z" />
    <glyph glyph-name="Y" unicode="Y" horiz-adv-x="715" 
d="M469 676h263l-244 -435v-241h-261v241l-245 435h264l110 -244z" />
    <glyph glyph-name="Z" unicode="Z" horiz-adv-x="660" 
d="M48 676h566v-186l-254 -299h260v-191h-587v155l285 330h-270v191z" />
    <glyph glyph-name="bracketleft" unicode="[" horiz-adv-x="383" 
d="M363 -195h-311v911h311v-128h-140v-653h140v-130z" />
    <glyph glyph-name="backslash" unicode="\" horiz-adv-x="539" 
d="M189 691l326 -719h-166l-326 719h166z" />
    <glyph glyph-name="bracketright" unicode="]" horiz-adv-x="383" 
d="M331 -195h-311v130h140v653h-140v128h311v-911z" />
    <glyph glyph-name="asciicircum" unicode="^" horiz-adv-x="577" 
d="M287 530l-79 -204h-173l157 350h190l157 -350h-173z" />
    <glyph glyph-name="underscore" unicode="_" horiz-adv-x="733" 
d="M120 -124v87h493v-87h-493z" />
    <glyph glyph-name="grave" unicode="`" horiz-adv-x="395" 
d="M207 590l-164 155h199l110 -155h-145z" />
    <glyph glyph-name="a" unicode="a" horiz-adv-x="649" 
d="M312 543q294 0 294 -230v-313h-252v49q-67 -62 -155 -62q-78 0 -129 49.5t-51 120.5q0 84 59 127.5t169 43.5q58 0 104 -10v5q0 49 -93 49q-90 0 -166 -29l-35 158q108 42 255 42zM357 197v18q-15 3 -37 3q-29 0 -45.5 -13t-16.5 -36q0 -18 11.5 -29.5t32.5 -11.5
q55 0 55 69z" />
    <glyph glyph-name="b" unicode="b" horiz-adv-x="704" 
d="M456 543q98 0 160.5 -80t62.5 -197t-62.5 -198t-160.5 -81q-97 0 -161 81v-68h-245v739h255v-263q62 67 151 67zM358 177q32 0 53 26t21 63t-21 63t-53 26t-53 -26t-21 -63t21 -63t53 -26z" />
    <glyph glyph-name="c" unicode="c" horiz-adv-x="539" 
d="M382 171q54 0 102 22l33 -171q-101 -35 -196 -35q-136 0 -216.5 76.5t-80.5 201.5q0 124 80.5 201t216.5 77q92 0 196 -36l-33 -164q-50 21 -102 21q-58 0 -83 -28t-25 -68q0 -39 25 -68t83 -29z" />
    <glyph glyph-name="d" unicode="d" horiz-adv-x="704" 
d="M257 543q83 0 142 -65v261h255v-739h-245v68q-64 -81 -161 -81q-98 0 -160.5 81t-62.5 198t65.5 197t166.5 80zM346 177q32 0 53 26t21 63t-21 63t-53 26t-53 -26t-21 -63t21 -63t53 -26z" />
    <glyph glyph-name="e" unicode="e" horiz-adv-x="612" 
d="M587 206h-333q28 -57 145 -57q64 0 139 25l26 -150q-94 -37 -226 -37q-137 0 -226 73t-89 211q0 121 83.5 196.5t203.5 75.5q160 0 229 -93.5t48 -243.5zM247 325h132q-9 70 -63 70t-69 -70zM247 325h132h-132z" />
    <glyph glyph-name="f" unicode="f" horiz-adv-x="442" 
d="M297 752q85 0 147 -25l-17 -140q-14 2 -24 2q-19 0 -30.5 -2.5t-21.5 -15.5t-10 -37v-4h84v-175h-84v-355h-255v355h-56v175h56v2q0 63 18 108t49.5 68.5t66.5 33.5t77 10z" />
    <glyph glyph-name="g" unicode="g" horiz-adv-x="702" 
d="M408 530h245v-446q0 -154 -73 -222.5t-239 -68.5q-268 0 -268 142q0 47 31.5 83t89.5 54q-77 17 -124 81.5t-47 150.5q0 101 63 170t161 69q97 0 161 -69v56zM340 366q-30 0 -49 -24t-19 -59t19 -59.5t49 -24.5t49.5 24.5t19.5 59.5t-19.5 59t-49.5 24zM404 -2v70
q-4 0 -10.5 -1t-23.5 -6.5t-30 -13.5t-23.5 -23t-10.5 -35q0 -51 47 -51q51 0 51 60z" />
    <glyph glyph-name="h" unicode="h" horiz-adv-x="699" 
d="M654 360v-360h-255v303q0 20 -14 34.5t-33 14.5t-33 -14.5t-14 -34.5v-303h-255v739h255v-258q60 62 158 62q81 0 136 -52.5t55 -130.5z" />
    <glyph glyph-name="i" unicode="i" horiz-adv-x="355" 
d="M50 0v530h255v-530h-255zM308 739v-158h-261v158h261z" />
    <glyph glyph-name="j" unicode="j" horiz-adv-x="356" 
d="M51 530h255v-477q0 -65 -20.5 -113t-50 -74.5t-76.5 -43t-85 -21.5t-90 -8l-18 161q17 6 28.5 11.5t26.5 15.5t22.5 25.5t7.5 35.5v488zM309 739v-158h-261v158h261z" />
    <glyph glyph-name="k" unicode="k" horiz-adv-x="684" 
d="M691 0h-271l-115 216v-216h-255v739h255v-380l108 171h257l-163 -216z" />
    <glyph glyph-name="l" unicode="l" horiz-adv-x="355" 
d="M50 0v739h255v-739h-255z" />
    <glyph glyph-name="m" unicode="m" horiz-adv-x="1038" 
d="M805 543q80 0 134 -52t54 -131v-360h-255v303q0 21 -12.5 35t-31.5 14t-32 -14.5t-13 -34.5v-303h-255v303q0 21 -12.5 35t-31.5 14t-32 -14.5t-13 -34.5v-303h-255v530h244v-54q62 67 167 67q101 0 155 -77q69 77 189 77z" />
    <glyph glyph-name="n" unicode="n" horiz-adv-x="699" 
d="M654 360v-360h-255v303q0 20 -14 34.5t-33 14.5t-33 -14.5t-14 -34.5v-303h-255v530h247v-52q65 65 166 65q81 0 136 -52.5t55 -130.5z" />
    <glyph glyph-name="o" unicode="o" horiz-adv-x="684" 
d="M343 543q134 0 226.5 -75t92.5 -203t-92.5 -203t-226.5 -75q-136 0 -228.5 75t-92.5 203t92.5 203t228.5 75zM342 172q33 0 54 27t21 66t-21 66t-54 27t-54 -27t-21 -66t21 -66t54 -27z" />
    <glyph glyph-name="p" unicode="p" horiz-adv-x="704" 
d="M447 -13q-83 0 -142 65v-246h-255v724h245v-68q64 81 161 81q98 0 160.5 -81t62.5 -198t-65.5 -197t-166.5 -80zM358 355q-32 0 -53 -26t-21 -63t21 -63t53 -26t53 26t21 63t-21 63t-53 26z" />
    <glyph glyph-name="q" unicode="q" horiz-adv-x="704" 
d="M248 -13q-98 0 -160.5 80t-62.5 197t62.5 198t160.5 81q97 0 161 -81v68h245v-724h-255v248q-62 -67 -151 -67zM346 355q-32 0 -53 -26t-21 -63t21 -63t53 -26t53 26t21 63t-21 63t-53 26z" />
    <glyph glyph-name="r" unicode="r" horiz-adv-x="477" 
d="M462 340q-75 10 -116 -27t-41 -115v-198h-255v530h238v-94q6 12 9 18.5t10 19.5t14 20.5l17.5 18.5t22.5 16t27 10t34 4.5t40 -5.5v-198z" />
    <glyph glyph-name="s" unicode="s" horiz-adv-x="547" 
d="M287 369q0 -8 17.5 -14t43.5 -10t56 -15t56 -27.5t43.5 -50.5t17.5 -80q0 -92 -68 -138.5t-189 -46.5q-127 0 -241 61l23 152q81 -54 180 -54q42 0 42 20q0 8 -23.5 13.5l-57 13.5t-67 23t-57 51.5t-23.5 89.5q0 92 70 139t191 47q103 0 204 -43l-22 -145q-72 32 -143 32
q-53 0 -53 -18z" />
    <glyph glyph-name="t" unicode="t" horiz-adv-x="469" 
d="M27 355v175h55v123h255v-123h92v-175h-92v-141q0 -29 18 -43t44 -14q11 0 27 2l20 -141q-71 -31 -171 -31q-193 0 -193 165v203h-55z" />
    <glyph glyph-name="u" unicode="u" horiz-adv-x="699" 
d="M45 170v360h255v-303q0 -20 14 -34.5t33 -14.5t33 14.5t14 34.5v303h255v-530h-247v52q-65 -65 -166 -65q-81 0 -136 52.5t-55 130.5z" />
    <glyph glyph-name="v" unicode="v" horiz-adv-x="644" 
d="M396 530h255l-186 -530h-286l-186 530h255l74 -313z" />
    <glyph glyph-name="w" unicode="w" horiz-adv-x="955" 
d="M699 530h257l-160 -530h-247l-71 241l-73 -241h-246l-160 530h260l51 -289l75 289h181l79 -289z" />
    <glyph glyph-name="x" unicode="x" horiz-adv-x="676" 
d="M508 277l173 -277h-271l-72 158l-72 -158h-271l173 277l-155 253h246l79 -139l79 139h246z" />
    <glyph glyph-name="y" unicode="y" horiz-adv-x="696" 
d="M392 530h255v-446q0 -154 -73 -222.5t-239 -68.5q-268 0 -268 142q0 45 29.5 80.5t84.5 54.5q-67 5 -102.5 41.5t-35.5 97.5v321h255v-287q0 -21 13.5 -35.5t33.5 -14.5t33.5 14.5t13.5 35.5v287zM392 -3v71q-4 -1 -10 -2t-22 -7t-28 -14.5t-22 -24t-10 -35.5
q0 -47 43 -47q49 0 49 59z" />
    <glyph glyph-name="z" unicode="z" horiz-adv-x="567" 
d="M526 377l-191 -206h196v-171h-502v144l204 215h-186v171h479v-153z" />
    <glyph glyph-name="braceleft" unicode="{" horiz-adv-x="427" 
d="M287 528v-105q0 -130 -99 -162q99 -32 99 -162v-105q0 -32 12.5 -47t41.5 -15h66v-126h-86q-205 0 -205 188v140q0 33 -32 50t-74 20v114q41 2 73.5 19.5t32.5 50.5v140q0 188 205 188h86v-126h-66q-29 0 -41.5 -15t-12.5 -47z" />
    <glyph glyph-name="bar" unicode="|" horiz-adv-x="221" 
d="M52 -194v910h117v-910h-117z" />
    <glyph glyph-name="braceright" unicode="}" horiz-adv-x="427" 
d="M140 423v105q0 32 -12.5 47t-41.5 15h-66v126h86q205 0 205 -188v-140q0 -33 32.5 -50.5t73.5 -19.5v-114q-42 -3 -74 -20t-32 -50v-140q0 -188 -205 -188h-86v126h66q29 0 41.5 15t12.5 47v105q0 130 99 162q-99 32 -99 162z" />
    <glyph glyph-name="asciitilde" unicode="~" horiz-adv-x="671" 
d="M33 196q0 34 11.5 70.5t33.5 70t59.5 55t83.5 21.5q50 0 94 -18.5t76.5 -37t55.5 -18.5q53 0 75 84h119q-1 -51 -22 -102t-66 -88t-104 -37q-38 0 -73 11.5t-56 25t-47.5 25t-51.5 11.5q-28 0 -46 -22t-24 -51h-118z" />
    <glyph glyph-name="uni00A0" unicode="&#xa0;" horiz-adv-x="240" 
 />
    <glyph glyph-name="exclamdown" unicode="&#xa1;" horiz-adv-x="331" 
d="M40 -146v110l41 314h169l41 -314v-110h-251zM48 330v200h235v-200h-235z" />
    <glyph glyph-name="cent" unicode="&#xa2;" horiz-adv-x="550" 
d="M278 670h100v-99q63 -8 134 -30l-27 -133q-39 14 -93 14q-74 0 -106 -36.5t-32 -88.5q0 -50 32 -88t106 -38q56 0 93 15l29 -141q-69 -22 -136 -29v-143h-100v144q-117 13 -184.5 88.5t-67.5 188.5q0 112 67.5 187.5t184.5 89.5v99z" />
    <glyph glyph-name="sterling" unicode="&#xa3;" horiz-adv-x="628" 
d="M380 689q119 0 218 -33l-40 -186q-63 18 -114 18q-95 0 -95 -72q0 -16 3 -35h140v-79h-130q3 -60 -14 -119h224v-183h-518v90q79 108 63 212h-86v79h70q-10 52 -10 86q0 107 81.5 164.5t207.5 57.5z" />
    <glyph glyph-name="currency" unicode="&#xa4;" horiz-adv-x="694" 
d="M622 272q0 -81 -44 -149l89 -89l-81 -81l-89 89q-69 -45 -150 -45q-80 0 -149 45l-89 -89l-82 81l89 89q-44 68 -44 149q0 82 44 150l-89 89l82 81l89 -89q68 44 149 44q82 0 150 -44l89 89l81 -81l-89 -89q44 -68 44 -150zM347 125q61 0 104.5 43t43.5 104
q0 62 -43.5 105t-104.5 43t-104.5 -43.5t-43.5 -104.5t43.5 -104t104.5 -43z" />
    <glyph glyph-name="yen" unicode="&#xa5;" horiz-adv-x="736" 
d="M714 676l-152 -301h86v-79h-126l-27 -55v-28h153v-79h-153v-134h-254v134h-153v79h153v28l-28 55h-125v79h85l-151 301h250l96 -253l96 253h250z" />
    <glyph glyph-name="brokenbar" unicode="&#xa6;" horiz-adv-x="276" 
d="M56 664h164v-342h-164v342zM56 185h164v-380h-164v380z" />
    <glyph glyph-name="section" unicode="&#xa7;" horiz-adv-x="525" 
d="M299 32q0 15 -27.5 25t-66.5 19t-78.5 22.5t-67 43t-27.5 72.5q0 87 81 117q-50 41 -50 115q0 80 57.5 125.5t155.5 45.5q90 0 195 -35l-30 -125q-88 31 -156 31q-54 0 -54 -32q0 -15 27 -25t65.5 -19t77.5 -22.5t66 -43t27 -72.5q0 -86 -80 -117q53 -39 53 -115
q0 -80 -57.5 -125.5t-155.5 -45.5q-101 0 -210 43l30 125q90 -39 170 -39q55 0 55 32zM322 234q0 11 -5.5 18.5t-21 13.5t-25 8.5t-34.5 8.5q-33 -5 -33 -29q0 -14 13 -24t28.5 -14.5t45.5 -10.5q32 5 32 29z" />
    <glyph glyph-name="dieresis" unicode="&#xa8;" horiz-adv-x="576" 
d="M83 598v131h163v-131h-163zM335 598v131h163v-131h-163z" />
    <glyph glyph-name="copyright" unicode="&#xa9;" horiz-adv-x="717" 
d="M359 646q136 0 231.5 -96t95.5 -232t-95.5 -231.5t-231.5 -95.5t-232 95.5t-96 231.5t96 232t232 96zM359 35q117 0 200 83t83 200q0 118 -83 201t-200 83q-118 0 -201 -83t-83 -201q0 -117 83 -200t201 -83zM400 251q29 0 68 16l30 -103q-71 -23 -131 -23
q-85 0 -136.5 48t-51.5 129t52 129.5t136 48.5q57 0 131 -24l-30 -103q-38 16 -67 16q-35 0 -54.5 -18.5t-19.5 -48.5q0 -29 19.5 -48t53.5 -19z" />
    <glyph glyph-name="ordfeminine" unicode="&#xaa;" horiz-adv-x="506" 
d="M246 605q207 0 207 -156v-213h-178v33q-47 -42 -109 -42q-55 0 -91 34t-36 82q0 57 41.5 86.5t119.5 29.5q45 0 73 -7v4q0 33 -65 33q-61 0 -118 -20l-24 108q77 28 180 28zM278 370v12q-7 2 -26 2q-44 0 -44 -33q0 -28 31 -28q39 0 39 47z" />
    <glyph glyph-name="guillemotleft" unicode="&#xab;" horiz-adv-x="816" 
d="M441 509l-209 -241l209 -241h-225l-192 241l192 241h225zM793 509l-209 -241l209 -241h-225l-192 241l192 241h225z" />
    <glyph glyph-name="logicalnot" unicode="&#xac;" horiz-adv-x="651" 
d="M34 334v149h564v-315h-151v166h-413z" />
    <glyph glyph-name="registered" unicode="&#xae;" horiz-adv-x="717" 
d="M528 377q0 -56 -49 -87q25 -18 38.5 -49.5t22.5 -93.5h-138q-7 60 -20 80t-36 21v-101h-138v338q73 11 132 11q188 0 188 -119zM343 397v-65q22 -2 37.5 7.5t15.5 25.5t-15 25t-38 7zM359 646q136 0 231.5 -96t95.5 -232t-95.5 -231.5t-231.5 -95.5t-232 95.5t-96 231.5
t96 232t232 96zM359 35q117 0 200 83t83 200q0 118 -83 201t-200 83q-118 0 -201 -83t-83 -201q0 -117 83 -200t201 -83z" />
    <glyph glyph-name="macron" unicode="&#xaf;" horiz-adv-x="517" 
d="M76 609v101h357v-101h-357z" />
    <glyph glyph-name="degree" unicode="&#xb0;" horiz-adv-x="350" 
d="M175 706q61 0 105 -44t44 -105t-44 -105t-105 -44q-62 0 -105.5 43.5t-43.5 105.5t43.5 105.5t105.5 43.5zM175 490q28 0 47.5 19.5t19.5 47.5t-19.5 47.5t-47.5 19.5t-47.5 -19.5t-19.5 -47.5t19.5 -47.5t47.5 -19.5z" />
    <glyph glyph-name="plusminus" unicode="&#xb1;" horiz-adv-x="603" 
d="M559 449v-155h-178v-101h-159v101h-178v155h178v101h159v-101h178zM44 0v155h515v-155h-515z" />
    <glyph glyph-name="twosuperior" unicode="&#xb2;" horiz-adv-x="405" 
d="M197 833q81 0 127.5 -28.5t46.5 -101.5q0 -46 -28.5 -81.5t-86.5 -76.5h119v-125h-348v119l51.5 30.5l52 31t39 26.5t30.5 29.5t9 26.5q0 25 -48 25q-57 0 -111 -26l-23 117q81 34 170 34z" />
    <glyph glyph-name="threesuperior" unicode="&#xb3;" horiz-adv-x="405" 
d="M293 628q35 -9 60.5 -36t25.5 -63q0 -61 -55.5 -89t-140.5 -28q-92 0 -159 24l15 120q59 -25 111 -25q64 0 64 20q0 21 -40 21h-78v107h61q45 0 45 18t-49 18q-50 0 -96 -19l-18 113q67 24 145 24q82 0 128.5 -29t46.5 -88q0 -60 -66 -88z" />
    <glyph glyph-name="acute" unicode="&#xb4;" horiz-adv-x="422" 
d="M363 745l-164 -155h-145l110 155h199z" />
    <glyph glyph-name="mu" unicode="&#xb5;" horiz-adv-x="694" 
d="M50 -194v724h255v-313q0 -20 14 -34.5t33 -14.5t33 14.5t14 34.5v313h255v-530h-220v45q-40 -58 -103 -58q-23 0 -45 9v-190h-236z" />
    <glyph glyph-name="paragraph" unicode="&#xb6;" horiz-adv-x="586" 
d="M553 676v-65h-84v-695h-77v695h-82v-695h-77v414h-35q-73 0 -123.5 50.5t-50.5 122.5t50.5 122.5t123.5 50.5h355z" />
    <glyph glyph-name="periodcentered" unicode="&#xb7;" horiz-adv-x="331" 
d="M48 217v200h235v-200h-235z" />
    <glyph glyph-name="cedilla" unicode="&#xb8;" horiz-adv-x="340" 
d="M36 -207l26 58q122 -26 122 26q0 30 -86 35l70 120l80 8l-64 -98q49 -2 83 -25t34 -59q0 -40 -32.5 -65.5t-92.5 -25.5q-74 0 -140 26z" />
    <glyph glyph-name="onesuperior" unicode="&#xb9;" horiz-adv-x="405" 
d="M156 420v229h-98v90q119 0 124 87h132v-406h-158z" />
    <glyph glyph-name="ordmasculine" unicode="&#xba;" horiz-adv-x="535" 
d="M268 605q95 0 160.5 -51t65.5 -138q0 -86 -65.5 -137.5t-160.5 -51.5q-96 0 -161.5 51t-65.5 138t65.5 138t161.5 51zM267 353q23 0 38 18.5t15 44.5t-15 44.5t-38 18.5t-38 -18.5t-15 -44.5t15 -44.5t38 -18.5z" />
    <glyph glyph-name="guillemotright" unicode="&#xbb;" horiz-adv-x="816" 
d="M584 268l-209 241h225l192 -241l-192 -241h-225zM232 268l-209 241h225l192 -241l-192 -241h-225z" />
    <glyph glyph-name="onequarter" unicode="&#xbc;" horiz-adv-x="1115" 
d="M1004 406v-219h39v-114h-39v-73h-148v73h-195v113l157 220h186zM859 184v101l-71 -101h71zM72 600q119 0 124 87h132v-406h-158v229h-98v90zM705 700h153l-448 -719h-153z" />
    <glyph glyph-name="onehalf" unicode="&#xbd;" horiz-adv-x="1115" 
d="M57 600q119 0 124 87h132v-406h-158v229h-98v90zM888 413q81 0 127.5 -28.5t46.5 -101.5q0 -46 -28.5 -81.5t-86.5 -76.5h119v-125h-348v119l51.5 30.5l52 31t39 26.5t30.5 29.5t9 26.5q0 25 -48 25q-57 0 -111 -26l-23 117q81 34 170 34zM690 700h153l-448 -719h-153z
" />
    <glyph glyph-name="threequarters" unicode="&#xbe;" horiz-adv-x="1115" 
d="M1023 406v-219h39v-114h-39v-73h-148v73h-195v113l157 220h186zM878 184v101l-71 -101h71zM714 700h153l-448 -719h-153zM322 489q35 -9 60.5 -36t25.5 -63q0 -61 -55.5 -89t-140.5 -28q-92 0 -159 24l15 120q59 -25 111 -25q64 0 64 20q0 21 -40 21h-78v107h61
q45 0 45 18t-49 18q-50 0 -96 -19l-18 113q67 24 145 24q82 0 128.5 -29t46.5 -88q0 -60 -66 -88z" />
    <glyph glyph-name="questiondown" unicode="&#xbf;" horiz-adv-x="515" 
d="M265 47q0 -34 57 -34q64 0 139 28l32 -159q-106 -41 -224 -41q-110 0 -176 37.5t-66 121.5q0 42 21 81t45.5 63t45.5 54.5t21 58.5v21h200v-34q0 -27 -15 -54t-32.5 -46t-32.5 -45t-15 -52zM375 530v-200h-235v200h235z" />
    <glyph glyph-name="Agrave" unicode="&#xc0;" horiz-adv-x="758" 
d="M534 676l237 -676h-261l-31 113h-200l-30 -113h-262l236 676h311zM379 479l-57 -208h114zM325 736l-164 155h199l110 -155h-145z" />
    <glyph glyph-name="Aacute" unicode="&#xc1;" horiz-adv-x="758" 
d="M534 676l237 -676h-261l-31 113h-200l-30 -113h-262l236 676h311zM379 479l-57 -208h114zM587 891l-164 -155h-145l110 155h199z" />
    <glyph glyph-name="Acircumflex" unicode="&#xc2;" horiz-adv-x="758" 
d="M534 676l237 -676h-261l-31 113h-200l-30 -113h-262l236 676h311zM379 479l-57 -208h114zM476 891l119 -155h-145l-71 70l-71 -70h-145l119 155h194z" />
    <glyph glyph-name="Atilde" unicode="&#xc3;" horiz-adv-x="758" 
d="M534 676l237 -676h-261l-31 113h-200l-30 -113h-262l236 676h311zM379 479l-57 -208h114zM175 734q0 54 35 104t91 50q43 0 88 -25t60 -25t29 16t20 39h83q-1 -59 -38 -110.5t-90 -51.5q-41 0 -84.5 24.5t-65.5 24.5q-16 0 -28.5 -13.5t-18.5 -32.5h-81z" />
    <glyph glyph-name="Adieresis" unicode="&#xc4;" horiz-adv-x="758" 
d="M534 676l237 -676h-261l-31 113h-200l-30 -113h-262l236 676h311zM379 479l-57 -208h114zM172 744v131h163v-131h-163zM424 744v131h163v-131h-163z" />
    <glyph glyph-name="Aring" unicode="&#xc5;" horiz-adv-x="758" 
d="M534 676l237 -676h-261l-31 113h-200l-30 -113h-262l236 676h311zM379 479l-57 -208h114zM379 711q-51 0 -87 31.5t-36 81.5t36 81.5t87 31.5t87 -31.5t36 -81.5t-36 -81.5t-87 -31.5zM379 873q-22 0 -37 -14t-15 -35t15 -35t37 -14t37 14t15 35t-15 35t-37 14z" />
    <glyph glyph-name="AE" unicode="&#xc6;" horiz-adv-x="1048" 
d="M520 0l-8 109h-224l-55 -109h-264l358 676h679v-190h-285l4 -59h238v-176h-225l4 -62h264v-189h-486zM479 486l-109 -215h130l-15 215h-6z" />
    <glyph glyph-name="Ccedilla" unicode="&#xc7;" horiz-adv-x="665" 
d="M225 -207l26 58q122 -26 122 26q0 30 -86 35l46 80q-140 18 -222.5 109.5t-82.5 236.5q0 162 102 256.5t270 94.5q119 0 245 -42l-50 -182q-59 25 -130 25q-82 0 -127 -40t-45 -112t45 -112t127 -40q71 0 130 25l50 -182q-122 -41 -243 -42l-29 -45q49 -2 83 -25t34 -59
q0 -40 -32.5 -65.5t-92.5 -25.5q-74 0 -140 26z" />
    <glyph glyph-name="Egrave" unicode="&#xc8;" horiz-adv-x="658" 
d="M616 486h-304v-59h266v-176h-266v-62h304v-189h-558v676h558v-190zM287 736l-164 155h199l110 -155h-145z" />
    <glyph glyph-name="Eacute" unicode="&#xc9;" horiz-adv-x="658" 
d="M616 486h-304v-59h266v-176h-266v-62h304v-189h-558v676h558v-190zM526 891l-164 -155h-145l110 155h199z" />
    <glyph glyph-name="Ecircumflex" unicode="&#xca;" horiz-adv-x="658" 
d="M616 486h-304v-59h266v-176h-266v-62h304v-189h-558v676h558v-190zM434 891l119 -155h-145l-71 70l-71 -70h-145l119 155h194z" />
    <glyph glyph-name="Edieresis" unicode="&#xcb;" horiz-adv-x="658" 
d="M616 486h-304v-59h266v-176h-266v-62h304v-189h-558v676h558v-190zM132 744v131h163v-131h-163zM384 744v131h163v-131h-163z" />
    <glyph glyph-name="Igrave" unicode="&#xcc;" horiz-adv-x="377" 
d="M319 676v-676h-261v676h261zM147 736l-164 155h199l110 -155h-145z" />
    <glyph glyph-name="Iacute" unicode="&#xcd;" horiz-adv-x="377" 
d="M319 676v-676h-261v676h261zM396 891l-164 -155h-145l110 155h199z" />
    <glyph glyph-name="Icircumflex" unicode="&#xce;" horiz-adv-x="377" 
d="M319 676v-676h-261v676h261zM285 891l119 -155h-145l-71 70l-71 -70h-145l119 155h194z" />
    <glyph glyph-name="Idieresis" unicode="&#xcf;" horiz-adv-x="377" 
d="M319 676v-676h-261v676h261zM-19 744v131h163v-131h-163zM233 744v131h163v-131h-163z" />
    <glyph glyph-name="Eth" unicode="&#xd0;" horiz-adv-x="793" 
d="M4 396h65v276q114 17 260 17q198 0 317.5 -93.5t119.5 -261.5q0 -86 -31.5 -150.5t-78.5 -101t-113 -59t-124 -29.5t-122 -7q-97 0 -228 14v295h-65v100zM359 178q73 0 108.5 45.5t35.5 122.5q0 75 -37 116.5t-105 41.5q-24 0 -32 -1v-107h105v-100h-105v-117q8 -1 30 -1
z" />
    <glyph glyph-name="Ntilde" unicode="&#xd1;" horiz-adv-x="814" 
d="M517 676h239v-676h-247l-212 347v-347h-239v676h260l199 -345v345zM212 734q0 54 35 104t91 50q43 0 88 -25t60 -25t29 16t20 39h83q-1 -59 -38 -110.5t-90 -51.5q-41 0 -84.5 24.5t-65.5 24.5q-16 0 -28.5 -13.5t-18.5 -32.5h-81z" />
    <glyph glyph-name="Ograve" unicode="&#xd2;" horiz-adv-x="819" 
d="M410 689q172 0 277 -94.5t105 -256.5t-105 -256.5t-277 -94.5q-173 0 -278 94.5t-105 256.5t105 256.5t278 94.5zM410 181q59 0 89 40.5t30 116.5t-30 116.5t-89 40.5t-89.5 -40.5t-30.5 -116.5t30.5 -116.5t89.5 -40.5zM370 736l-164 155h199l110 -155h-145z" />
    <glyph glyph-name="Oacute" unicode="&#xd3;" horiz-adv-x="819" 
d="M410 689q172 0 277 -94.5t105 -256.5t-105 -256.5t-277 -94.5q-173 0 -278 94.5t-105 256.5t105 256.5t278 94.5zM410 181q59 0 89 40.5t30 116.5t-30 116.5t-89 40.5t-89.5 -40.5t-30.5 -116.5t30.5 -116.5t89.5 -40.5zM607 891l-164 -155h-145l110 155h199z" />
    <glyph glyph-name="Ocircumflex" unicode="&#xd4;" horiz-adv-x="819" 
d="M410 689q172 0 277 -94.5t105 -256.5t-105 -256.5t-277 -94.5q-173 0 -278 94.5t-105 256.5t105 256.5t278 94.5zM410 181q59 0 89 40.5t30 116.5t-30 116.5t-89 40.5t-89.5 -40.5t-30.5 -116.5t30.5 -116.5t89.5 -40.5zM506 891l119 -155h-145l-71 70l-71 -70h-145
l119 155h194z" />
    <glyph glyph-name="Otilde" unicode="&#xd5;" horiz-adv-x="819" 
d="M410 689q172 0 277 -94.5t105 -256.5t-105 -256.5t-277 -94.5q-173 0 -278 94.5t-105 256.5t105 256.5t278 94.5zM410 181q59 0 89 40.5t30 116.5t-30 116.5t-89 40.5t-89.5 -40.5t-30.5 -116.5t30.5 -116.5t89.5 -40.5zM205 734q0 54 35 104t91 50q43 0 88 -25t60 -25
t29 16t20 39h83q-1 -59 -38 -110.5t-90 -51.5q-41 0 -84.5 24.5t-65.5 24.5q-16 0 -28.5 -13.5t-18.5 -32.5h-81z" />
    <glyph glyph-name="Odieresis" unicode="&#xd6;" horiz-adv-x="819" 
d="M410 689q172 0 277 -94.5t105 -256.5t-105 -256.5t-277 -94.5q-173 0 -278 94.5t-105 256.5t105 256.5t278 94.5zM410 181q59 0 89 40.5t30 116.5t-30 116.5t-89 40.5t-89.5 -40.5t-30.5 -116.5t30.5 -116.5t89.5 -40.5zM202 744v131h163v-131h-163zM454 744v131h163
v-131h-163z" />
    <glyph glyph-name="multiply" unicode="&#xd7;" horiz-adv-x="558" 
d="M530 113l-109 -109l-140 140l-140 -140l-112 113l139 139l-140 140l110 110l140 -140l140 140l112 -113l-140 -140z" />
    <glyph glyph-name="Oslash" unicode="&#xd8;" horiz-adv-x="819" 
d="M410 689q108 0 193 -40l57 78l47 -35l-53 -71q138 -95 138 -283q0 -162 -105 -256.5t-277 -94.5q-108 0 -195 39l-57 -77l-47 34l53 72q-137 96 -137 283q0 162 105 256.5t278 94.5zM410 181q59 0 89 40.5t30 116.5q0 53 -16 91l-170 -230q27 -18 67 -18zM290 338
q0 -55 15 -91l170 230q-25 18 -65 18q-59 0 -89.5 -40.5t-30.5 -116.5z" />
    <glyph glyph-name="Ugrave" unicode="&#xd9;" horiz-adv-x="755" 
d="M443 676h261v-409q0 -141 -85 -210.5t-242 -69.5t-241.5 69.5t-84.5 210.5v409h261v-406q0 -41 13.5 -62.5t51.5 -21.5q39 0 52.5 21.5t13.5 62.5v406zM337 736l-164 155h199l110 -155h-145z" />
    <glyph glyph-name="Uacute" unicode="&#xda;" horiz-adv-x="755" 
d="M443 676h261v-409q0 -141 -85 -210.5t-242 -69.5t-241.5 69.5t-84.5 210.5v409h261v-406q0 -41 13.5 -62.5t51.5 -21.5q39 0 52.5 21.5t13.5 62.5v406zM591 891l-164 -155h-145l110 155h199z" />
    <glyph glyph-name="Ucircumflex" unicode="&#xdb;" horiz-adv-x="755" 
d="M443 676h261v-409q0 -141 -85 -210.5t-242 -69.5t-241.5 69.5t-84.5 210.5v409h261v-406q0 -41 13.5 -62.5t51.5 -21.5q39 0 52.5 21.5t13.5 62.5v406zM474 891l119 -155h-145l-71 70l-71 -70h-145l119 155h194z" />
    <glyph glyph-name="Udieresis" unicode="&#xdc;" horiz-adv-x="755" 
d="M443 676h261v-409q0 -141 -85 -210.5t-242 -69.5t-241.5 69.5t-84.5 210.5v409h261v-406q0 -41 13.5 -62.5t51.5 -21.5q39 0 52.5 21.5t13.5 62.5v406zM170 744v131h163v-131h-163zM422 744v131h163v-131h-163z" />
    <glyph glyph-name="Yacute" unicode="&#xdd;" horiz-adv-x="715" 
d="M469 676h263l-244 -435v-241h-261v241l-245 435h264l110 -244zM544 891l-164 -155h-145l110 155h199z" />
    <glyph glyph-name="Thorn" unicode="&#xde;" horiz-adv-x="719" 
d="M58 676h256v-78q382 -10 382 -257q0 -68 -32.5 -119t-88 -79.5t-121.5 -42t-140 -11.5v-89h-256v676zM441 343q0 30 -25 48t-52 21.5t-50 0.5v-143q19 -1 38 0.5t40.5 8t35 23t13.5 41.5z" />
    <glyph glyph-name="germandbls" unicode="&#xdf;" horiz-adv-x="744" 
d="M346 -4l22 174q20 -2 35 -2q31 0 52.5 13t21.5 38q0 26 -19.5 40t-51.5 14h-33v175h11q78 0 78 60q0 24 -20.5 40.5t-59.5 16.5q-47 0 -70 -26t-23 -65v-474h-240v472q0 55 19.5 104t58.5 89t104.5 63.5t150.5 23.5q129 0 218 -61t89 -152q0 -59 -29 -104.5t-75 -66.5
q65 -20 100 -68t35 -112q0 -56 -22.5 -96.5t-62 -62.5t-85 -32t-100.5 -10t-104 9z" />
    <glyph glyph-name="agrave" unicode="&#xe0;" horiz-adv-x="649" 
d="M312 543q294 0 294 -230v-313h-252v49q-67 -62 -155 -62q-78 0 -129 49.5t-51 120.5q0 84 59 127.5t169 43.5q58 0 104 -10v5q0 49 -93 49q-90 0 -166 -29l-35 158q108 42 255 42zM357 197v18q-15 3 -37 3q-29 0 -45.5 -13t-16.5 -36q0 -18 11.5 -29.5t32.5 -11.5
q55 0 55 69zM276 590l-164 155h199l110 -155h-145z" />
    <glyph glyph-name="aacute" unicode="&#xe1;" horiz-adv-x="649" 
d="M312 543q294 0 294 -230v-313h-252v49q-67 -62 -155 -62q-78 0 -129 49.5t-51 120.5q0 84 59 127.5t169 43.5q58 0 104 -10v5q0 49 -93 49q-90 0 -166 -29l-35 158q108 42 255 42zM357 197v18q-15 3 -37 3q-29 0 -45.5 -13t-16.5 -36q0 -18 11.5 -29.5t32.5 -11.5
q55 0 55 69zM499 745l-164 -155h-145l110 155h199z" />
    <glyph glyph-name="acircumflex" unicode="&#xe2;" horiz-adv-x="649" 
d="M312 543q294 0 294 -230v-313h-252v49q-67 -62 -155 -62q-78 0 -129 49.5t-51 120.5q0 84 59 127.5t169 43.5q58 0 104 -10v5q0 49 -93 49q-90 0 -166 -29l-35 158q108 42 255 42zM357 197v18q-15 3 -37 3q-29 0 -45.5 -13t-16.5 -36q0 -18 11.5 -29.5t32.5 -11.5
q55 0 55 69zM411 745l119 -155h-145l-71 70l-71 -70h-145l119 155h194z" />
    <glyph glyph-name="atilde" unicode="&#xe3;" horiz-adv-x="649" 
d="M312 543q294 0 294 -230v-313h-252v49q-67 -62 -155 -62q-78 0 -129 49.5t-51 120.5q0 84 59 127.5t169 43.5q58 0 104 -10v5q0 49 -93 49q-90 0 -166 -29l-35 158q108 42 255 42zM357 197v18q-15 3 -37 3q-29 0 -45.5 -13t-16.5 -36q0 -18 11.5 -29.5t32.5 -11.5
q55 0 55 69zM118 588q0 54 35 104t91 50q43 0 88 -25t60 -25t29 16t20 39h83q-1 -59 -38 -110.5t-90 -51.5q-41 0 -84.5 24.5t-65.5 24.5q-16 0 -28.5 -13.5t-18.5 -32.5h-81z" />
    <glyph glyph-name="adieresis" unicode="&#xe4;" horiz-adv-x="649" 
d="M312 543q294 0 294 -230v-313h-252v49q-67 -62 -155 -62q-78 0 -129 49.5t-51 120.5q0 84 59 127.5t169 43.5q58 0 104 -10v5q0 49 -93 49q-90 0 -166 -29l-35 158q108 42 255 42zM357 197v18q-15 3 -37 3q-29 0 -45.5 -13t-16.5 -36q0 -18 11.5 -29.5t32.5 -11.5
q55 0 55 69zM112 598v131h163v-131h-163zM364 598v131h163v-131h-163z" />
    <glyph glyph-name="aring" unicode="&#xe5;" horiz-adv-x="649" 
d="M312 543q294 0 294 -230v-313h-252v49q-67 -62 -155 -62q-78 0 -129 49.5t-51 120.5q0 84 59 127.5t169 43.5q58 0 104 -10v5q0 49 -93 49q-90 0 -166 -29l-35 158q108 42 255 42zM357 197v18q-15 3 -37 3q-29 0 -45.5 -13t-16.5 -36q0 -18 11.5 -29.5t32.5 -11.5
q55 0 55 69zM314 586q-51 0 -87 31.5t-36 81.5t36 81.5t87 31.5t87 -31.5t36 -81.5t-36 -81.5t-87 -31.5zM314 748q-22 0 -37 -14t-15 -35t15 -35t37 -14t37 14t15 35t-15 35t-37 14z" />
    <glyph glyph-name="ae" unicode="&#xe6;" horiz-adv-x="963" 
d="M283 543q141 0 208 -79q62 79 180 79q133 0 202 -75t69 -202q0 -18 -4 -60h-333q28 -57 145 -57q64 0 139 25l26 -150q-94 -37 -212 -37q-150 0 -222 88q-74 -88 -234 -88q-107 0 -168 48.5t-61 121.5q0 84 59 127.5t169 43.5q58 0 104 -10v5q0 49 -93 49q-90 0 -166 -29
l-35 158q108 42 227 42zM359 197v18q-15 3 -37 3q-29 0 -45.5 -13t-16.5 -36q0 -18 11.5 -29.5t32.5 -11.5q55 0 55 69zM594 325h132q-9 70 -63 70t-69 -70z" />
    <glyph glyph-name="ccedilla" unicode="&#xe7;" horiz-adv-x="539" 
d="M155 -207l26 58q122 -26 122 26q0 30 -86 35l46 79q-111 16 -175 89.5t-64 184.5q0 124 80.5 201t216.5 77q92 0 196 -36l-33 -164q-50 21 -102 21q-58 0 -83 -28t-25 -68q0 -39 25 -68t83 -29q54 0 102 22l33 -171q-96 -33 -185 -35l-29 -45q49 -2 83 -25t34 -59
q0 -40 -32.5 -65.5t-92.5 -25.5q-74 0 -140 26z" />
    <glyph glyph-name="egrave" unicode="&#xe8;" horiz-adv-x="612" 
d="M587 206q21 150 -48 243.5t-229 93.5q-120 0 -203.5 -75.5t-83.5 -196.5q0 -138 89 -211t226 -73q132 0 226 37l-26 150q-75 -25 -139 -25q-117 0 -145 57h333zM379 325h-132q15 70 69 70t63 -70zM379 325h-132h132zM271 590l-164 155h199l110 -155h-145z" />
    <glyph glyph-name="eacute" unicode="&#xe9;" horiz-adv-x="612" 
d="M587 206q21 150 -48 243.5t-229 93.5q-120 0 -203.5 -75.5t-83.5 -196.5q0 -138 89 -211t226 -73q132 0 226 37l-26 150q-75 -25 -139 -25q-117 0 -145 57h333zM379 325h-132q15 70 69 70t63 -70zM379 325h-132h132zM498 745l-164 -155h-145l110 155h199z" />
    <glyph glyph-name="ecircumflex" unicode="&#xea;" horiz-adv-x="612" 
d="M587 206q21 150 -48 243.5t-229 93.5q-120 0 -203.5 -75.5t-83.5 -196.5q0 -138 89 -211t226 -73q132 0 226 37l-26 150q-75 -25 -139 -25q-117 0 -145 57h333zM379 325h-132q15 70 69 70t63 -70zM379 325h-132h132zM407 745l119 -155h-145l-71 70l-71 -70h-145l119 155
h194z" />
    <glyph glyph-name="edieresis" unicode="&#xeb;" horiz-adv-x="612" 
d="M587 206q21 150 -48 243.5t-229 93.5q-120 0 -203.5 -75.5t-83.5 -196.5q0 -138 89 -211t226 -73q132 0 226 37l-26 150q-75 -25 -139 -25q-117 0 -145 57h333zM379 325h-132q15 70 69 70t63 -70zM379 325h-132h132zM102 598v131h163v-131h-163zM354 598v131h163v-131
h-163z" />
    <glyph glyph-name="igrave" unicode="&#xec;" horiz-adv-x="355" 
d="M50 0v530h255v-530h-255zM140 590l-164 155h199l110 -155h-145z" />
    <glyph glyph-name="iacute" unicode="&#xed;" horiz-adv-x="355" 
d="M50 0v530h255v-530h-255zM384 745l-164 -155h-145l110 155h199z" />
    <glyph glyph-name="icircumflex" unicode="&#xee;" horiz-adv-x="355" 
d="M50 0v530h255v-530h-255zM274 745l119 -155h-145l-71 70l-71 -70h-145l119 155h194z" />
    <glyph glyph-name="idieresis" unicode="&#xef;" horiz-adv-x="355" 
d="M50 0v530h255v-530h-255zM-30 598v131h163v-131h-163zM222 598v131h163v-131h-163z" />
    <glyph glyph-name="eth" unicode="&#xf0;" horiz-adv-x="636" 
d="M498 723l24 -62l-54 -22q140 -134 140 -362q0 -134 -83.5 -212t-206.5 -78t-207.5 68.5t-84.5 184.5t65 184.5t155 68.5q89 0 143 -49q-32 70 -94 127l-145 -58l-24 62l109 43q-46 32 -119 65l216 49q44 -22 77 -45zM317 158q29 0 48 24t19 58q0 35 -19 59t-48 24
t-48 -24t-19 -59q0 -34 19 -58t48 -24z" />
    <glyph glyph-name="ntilde" unicode="&#xf1;" horiz-adv-x="699" 
d="M654 360v-360h-255v303q0 20 -14 34.5t-33 14.5t-33 -14.5t-14 -34.5v-303h-255v530h247v-52q65 65 166 65q81 0 136 -52.5t55 -130.5zM148 588q0 54 35 104t91 50q43 0 88 -25t60 -25t29 16t20 39h83q-1 -59 -38 -110.5t-90 -51.5q-41 0 -84.5 24.5t-65.5 24.5
q-16 0 -28.5 -13.5t-18.5 -32.5h-81z" />
    <glyph glyph-name="ograve" unicode="&#xf2;" horiz-adv-x="684" 
d="M343 543q134 0 226.5 -75t92.5 -203t-92.5 -203t-226.5 -75q-136 0 -228.5 75t-92.5 203t92.5 203t228.5 75zM342 172q33 0 54 27t21 66t-21 66t-54 27t-54 -27t-21 -66t21 -66t54 -27zM295 590l-164 155h199l110 -155h-145z" />
    <glyph glyph-name="oacute" unicode="&#xf3;" horiz-adv-x="684" 
d="M343 543q134 0 226.5 -75t92.5 -203t-92.5 -203t-226.5 -75q-136 0 -228.5 75t-92.5 203t92.5 203t228.5 75zM342 172q33 0 54 27t21 66t-21 66t-54 27t-54 -27t-21 -66t21 -66t54 -27zM537 745l-164 -155h-145l110 155h199z" />
    <glyph glyph-name="ocircumflex" unicode="&#xf4;" horiz-adv-x="684" 
d="M343 543q134 0 226.5 -75t92.5 -203t-92.5 -203t-226.5 -75q-136 0 -228.5 75t-92.5 203t92.5 203t228.5 75zM342 172q33 0 54 27t21 66t-21 66t-54 27t-54 -27t-21 -66t21 -66t54 -27zM439 745l119 -155h-145l-71 70l-71 -70h-145l119 155h194z" />
    <glyph glyph-name="otilde" unicode="&#xf5;" horiz-adv-x="684" 
d="M343 543q134 0 226.5 -75t92.5 -203t-92.5 -203t-226.5 -75q-136 0 -228.5 75t-92.5 203t92.5 203t228.5 75zM342 172q33 0 54 27t21 66t-21 66t-54 27t-54 -27t-21 -66t21 -66t54 -27zM133 588q0 54 35 104t91 50q43 0 88 -25t60 -25t29 16t20 39h83q-1 -59 -38 -110.5
t-90 -51.5q-41 0 -84.5 24.5t-65.5 24.5q-16 0 -28.5 -13.5t-18.5 -32.5h-81z" />
    <glyph glyph-name="odieresis" unicode="&#xf6;" horiz-adv-x="684" 
d="M343 543q134 0 226.5 -75t92.5 -203t-92.5 -203t-226.5 -75q-136 0 -228.5 75t-92.5 203t92.5 203t228.5 75zM342 172q33 0 54 27t21 66t-21 66t-54 27t-54 -27t-21 -66t21 -66t54 -27zM135 598v131h163v-131h-163zM387 598v131h163v-131h-163z" />
    <glyph glyph-name="divide" unicode="&#xf7;" horiz-adv-x="575" 
d="M30 332h515v-155h-515v155zM382 537v-141h-189v141h189zM382 112v-141h-189v141h189z" />
    <glyph glyph-name="oslash" unicode="&#xf8;" horiz-adv-x="684" 
d="M565 561l34 -29l-45 -53q108 -77 108 -214q0 -128 -92.5 -203t-226.5 -75q-98 0 -173 39l-50 -59l-34 29l45 53q-109 78 -109 216q0 128 92.5 203t228.5 75q95 0 173 -40zM267 265q0 -27 8 -46l110 129q-19 17 -43 17q-34 0 -54.5 -30t-20.5 -70zM342 165q34 0 54.5 30
t20.5 70q0 24 -7 44l-110 -129q16 -15 42 -15z" />
    <glyph glyph-name="ugrave" unicode="&#xf9;" horiz-adv-x="699" 
d="M45 170v360h255v-303q0 -20 14 -34.5t33 -14.5t33 14.5t14 34.5v303h255v-530h-247v52q-65 -65 -166 -65q-81 0 -136 52.5t-55 130.5zM282 590l-164 155h199l110 -155h-145z" />
    <glyph glyph-name="uacute" unicode="&#xfa;" horiz-adv-x="699" 
d="M45 170v360h255v-303q0 -20 14 -34.5t33 -14.5t33 14.5t14 34.5v303h255v-530h-247v52q-65 -65 -166 -65q-81 0 -136 52.5t-55 130.5zM563 745l-164 -155h-145l110 155h199z" />
    <glyph glyph-name="ucircumflex" unicode="&#xfb;" horiz-adv-x="699" 
d="M45 170v360h255v-303q0 -20 14 -34.5t33 -14.5t33 14.5t14 34.5v303h255v-530h-247v52q-65 -65 -166 -65q-81 0 -136 52.5t-55 130.5zM444 745l119 -155h-145l-71 70l-71 -70h-145l119 155h194z" />
    <glyph glyph-name="udieresis" unicode="&#xfc;" horiz-adv-x="699" 
d="M45 170v360h255v-303q0 -20 14 -34.5t33 -14.5t33 14.5t14 34.5v303h255v-530h-247v52q-65 -65 -166 -65q-81 0 -136 52.5t-55 130.5zM140 598v131h163v-131h-163zM392 598v131h163v-131h-163z" />
    <glyph glyph-name="yacute" unicode="&#xfd;" horiz-adv-x="696" 
d="M392 530h255v-446q0 -154 -73 -222.5t-239 -68.5q-268 0 -268 142q0 45 29.5 80.5t84.5 54.5q-67 5 -102.5 41.5t-35.5 97.5v321h255v-287q0 -21 13.5 -35.5t33.5 -14.5t33.5 14.5t13.5 35.5v287zM392 -3v71q-4 -1 -10 -2t-22 -7t-28 -14.5t-22 -24t-10 -35.5
q0 -47 43 -47q49 0 49 59zM559 745l-164 -155h-145l110 155h199z" />
    <glyph glyph-name="thorn" unicode="&#xfe;" horiz-adv-x="704" 
d="M456 543q98 0 160.5 -80t62.5 -197t-62.5 -198t-160.5 -81q-97 0 -161 81v-262h-245v933h255v-263q62 67 151 67zM358 177q32 0 53 26t21 63t-21 63t-53 26t-53 -26t-21 -63t21 -63t53 -26z" />
    <glyph glyph-name="ydieresis" unicode="&#xff;" horiz-adv-x="696" 
d="M392 530h255v-446q0 -154 -73 -222.5t-239 -68.5q-268 0 -268 142q0 45 29.5 80.5t84.5 54.5q-67 5 -102.5 41.5t-35.5 97.5v321h255v-287q0 -21 13.5 -35.5t33.5 -14.5t33.5 14.5t13.5 35.5v287zM392 -3v71q-4 -1 -10 -2t-22 -7t-28 -14.5t-22 -24t-10 -35.5
q0 -47 43 -47q49 0 49 59zM138 598v131h163v-131h-163zM390 598v131h163v-131h-163z" />
    <glyph glyph-name="Amacron" unicode="&#x100;" horiz-adv-x="758" 
d="M534 676l237 -676h-261l-31 113h-200l-30 -113h-262l236 676h311zM379 479l-57 -208h114zM201 751v101h357v-101h-357z" />
    <glyph glyph-name="amacron" unicode="&#x101;" horiz-adv-x="649" 
d="M312 543q294 0 294 -230v-313h-252v49q-67 -62 -155 -62q-78 0 -129 49.5t-51 120.5q0 84 59 127.5t169 43.5q58 0 104 -10v5q0 49 -93 49q-90 0 -166 -29l-35 158q108 42 255 42zM357 197v18q-15 3 -37 3q-29 0 -45.5 -13t-16.5 -36q0 -18 11.5 -29.5t32.5 -11.5
q55 0 55 69zM145 609v101h357v-101h-357z" />
    <glyph glyph-name="Abreve" unicode="&#x102;" horiz-adv-x="758" 
d="M534 676l237 -676h-261l-31 113h-200l-30 -113h-262l236 676h311zM379 479l-57 -208h114zM475 886h91q-7 -75 -56.5 -114.5t-130.5 -39.5t-130.5 39.5t-56.5 114.5h91q7 -30 33.5 -45t62.5 -15t62.5 15t33.5 45z" />
    <glyph glyph-name="abreve" unicode="&#x103;" horiz-adv-x="649" 
d="M312 543q294 0 294 -230v-313h-252v49q-67 -62 -155 -62q-78 0 -129 49.5t-51 120.5q0 84 59 127.5t169 43.5q58 0 104 -10v5q0 49 -93 49q-90 0 -166 -29l-35 158q108 42 255 42zM357 197v18q-15 3 -37 3q-29 0 -45.5 -13t-16.5 -36q0 -18 11.5 -29.5t32.5 -11.5
q55 0 55 69zM418 740h91q-7 -75 -56.5 -114.5t-130.5 -39.5t-130.5 39.5t-56.5 114.5h91q7 -30 33.5 -45t62.5 -15t62.5 15t33.5 45z" />
    <glyph glyph-name="Aogonek" unicode="&#x104;" horiz-adv-x="758" 
d="M761 -123l39 -25q-44 -63 -135 -63q-45 0 -80.5 22.5t-35.5 64.5q0 69 85 124h-124l-31 113h-200l-30 -113h-262l236 676h311l237 -676q-110 -46 -110 -102q0 -41 45 -41q35 0 55 20zM379 479l-57 -208h114z" />
    <glyph glyph-name="aogonek" unicode="&#x105;" horiz-adv-x="649" 
d="M628 -123l39 -25q-44 -63 -135 -63q-45 0 -80.5 23t-35.5 65q0 65 85 123h-147v49q-67 -62 -155 -62q-78 0 -129 49.5t-51 120.5q0 84 59 127.5t169 43.5q58 0 104 -10v5q0 49 -93 49q-90 0 -166 -29l-35 158q108 42 255 42q294 0 294 -230v-313q-78 -45 -78 -102
q0 -41 45 -41q35 0 55 20zM357 197v18q-15 3 -37 3q-29 0 -45.5 -13t-16.5 -36q0 -18 11.5 -29.5t32.5 -11.5q55 0 55 69z" />
    <glyph glyph-name="Cacute" unicode="&#x106;" horiz-adv-x="665" 
d="M465 186q71 0 130 25l50 -182q-126 -42 -245 -42q-168 0 -270 95t-102 256q0 162 102 256.5t270 94.5q119 0 245 -42l-50 -182q-59 25 -130 25q-82 0 -127 -40t-45 -112t45 -112t127 -40zM586 891l-164 -155h-145l110 155h199z" />
    <glyph glyph-name="cacute" unicode="&#x107;" horiz-adv-x="539" 
d="M382 171q54 0 102 22l33 -171q-101 -35 -196 -35q-136 0 -216.5 76.5t-80.5 201.5q0 124 80.5 201t216.5 77q92 0 196 -36l-33 -164q-50 21 -102 21q-58 0 -83 -28t-25 -68q0 -39 25 -68t83 -29zM495 745l-164 -155h-145l110 155h199z" />
    <glyph glyph-name="Ccircumflex" unicode="&#x108;" horiz-adv-x="665" 
d="M465 186q71 0 130 25l50 -182q-126 -42 -245 -42q-168 0 -270 95t-102 256q0 162 102 256.5t270 94.5q119 0 245 -42l-50 -182q-59 25 -130 25q-82 0 -127 -40t-45 -112t45 -112t127 -40zM475 891l119 -155h-145l-71 70l-71 -70h-145l119 155h194z" />
    <glyph glyph-name="ccircumflex" unicode="&#x109;" horiz-adv-x="539" 
d="M382 171q54 0 102 22l33 -171q-101 -35 -196 -35q-136 0 -216.5 76.5t-80.5 201.5q0 124 80.5 201t216.5 77q92 0 196 -36l-33 -164q-50 21 -102 21q-58 0 -83 -28t-25 -68q0 -39 25 -68t83 -29zM391 745l119 -155h-145l-71 70l-71 -70h-145l119 155h194z" />
    <glyph glyph-name="Cdotaccent" unicode="&#x10a;" horiz-adv-x="665" 
d="M465 186q71 0 130 25l50 -182q-126 -42 -245 -42q-168 0 -270 95t-102 256q0 162 102 256.5t270 94.5q119 0 245 -42l-50 -182q-59 25 -130 25q-82 0 -127 -40t-45 -112t45 -112t127 -40zM290 744v131h163v-131h-163z" />
    <glyph glyph-name="cdotaccent" unicode="&#x10b;" horiz-adv-x="539" 
d="M382 171q54 0 102 22l33 -171q-101 -35 -196 -35q-136 0 -216.5 76.5t-80.5 201.5q0 124 80.5 201t216.5 77q92 0 196 -36l-33 -164q-50 21 -102 21q-58 0 -83 -28t-25 -68q0 -39 25 -68t83 -29zM209 598v131h163v-131h-163z" />
    <glyph glyph-name="Ccaron" unicode="&#x10c;" horiz-adv-x="665" 
d="M465 186q71 0 130 25l50 -182q-126 -42 -245 -42q-168 0 -270 95t-102 256q0 162 102 256.5t270 94.5q119 0 245 -42l-50 -182q-59 25 -130 25q-82 0 -127 -40t-45 -112t45 -112t127 -40zM584 891l-119 -155h-194l-119 155h145l71 -70l71 70h145z" />
    <glyph glyph-name="ccaron" unicode="&#x10d;" horiz-adv-x="539" 
d="M382 171q54 0 102 22l33 -171q-101 -35 -196 -35q-136 0 -216.5 76.5t-80.5 201.5q0 124 80.5 201t216.5 77q92 0 196 -36l-33 -164q-50 21 -102 21q-58 0 -83 -28t-25 -68q0 -39 25 -68t83 -29zM509 745l-119 -155h-194l-119 155h145l71 -70l71 70h145z" />
    <glyph glyph-name="Dcaron" unicode="&#x10e;" horiz-adv-x="782" 
d="M318 689q198 0 317.5 -93.5t119.5 -261.5q0 -86 -31.5 -150.5t-78.5 -101t-113 -59t-124 -29.5t-122 -7q-97 0 -228 14v671q114 17 260 17zM318 179q8 -1 30 -1q73 0 108.5 45.5t35.5 122.5q0 75 -37 116.5t-105 41.5q-24 0 -32 -1v-324zM563 891l-119 -155h-194
l-119 155h145l71 -70l71 70h145z" />
    <glyph glyph-name="dcaron" unicode="&#x10f;" horiz-adv-x="839" 
d="M257 543q83 0 142 -65v261h255v-739h-245v68q-64 -81 -161 -81q-98 0 -160.5 81t-62.5 198t65.5 197t166.5 80zM346 177q32 0 53 26t21 63t-21 63t-53 26t-53 -26t-21 -63t21 -63t53 -26zM719 739h186v-144l-89 -131h-92l72 117h-77v158z" />
    <glyph glyph-name="Dcroat" unicode="&#x110;" horiz-adv-x="793" 
d="M4 396h65v276q114 17 260 17q198 0 317.5 -93.5t119.5 -261.5q0 -86 -31.5 -150.5t-78.5 -101t-113 -59t-124 -29.5t-122 -7q-97 0 -228 14v295h-65v100zM359 178q73 0 108.5 45.5t35.5 122.5q0 75 -37 116.5t-105 41.5q-24 0 -32 -1v-107h105v-100h-105v-117q8 -1 30 -1
z" />
    <glyph glyph-name="dcroat" unicode="&#x111;" horiz-adv-x="704" 
d="M290 676h109v63h255v-63h70v-97h-70v-579h-245v68q-64 -81 -161 -81q-98 0 -160.5 81t-62.5 198t65.5 197t166.5 80q83 0 142 -65v101h-109v97zM346 177q32 0 53 26t21 63t-21 63t-53 26t-53 -26t-21 -63t21 -63t53 -26z" />
    <glyph glyph-name="Emacron" unicode="&#x112;" horiz-adv-x="658" 
d="M616 486h-304v-59h266v-176h-266v-62h304v-189h-558v676h558v-190zM163 751v101h357v-101h-357z" />
    <glyph glyph-name="emacron" unicode="&#x113;" horiz-adv-x="612" 
d="M587 206q21 150 -48 243.5t-229 93.5q-120 0 -203.5 -75.5t-83.5 -196.5q0 -138 89 -211t226 -73q132 0 226 37l-26 150q-75 -25 -139 -25q-117 0 -145 57h333zM379 325h-132q15 70 69 70t63 -70zM379 325h-132h132zM132 609v101h357v-101h-357z" />
    <glyph glyph-name="Ebreve" unicode="&#x114;" horiz-adv-x="658" 
d="M616 486h-304v-59h266v-176h-266v-62h304v-189h-558v676h558v-190zM435 886h91q-7 -75 -56.5 -114.5t-130.5 -39.5t-130.5 39.5t-56.5 114.5h91q7 -30 33.5 -45t62.5 -15t62.5 15t33.5 45z" />
    <glyph glyph-name="ebreve" unicode="&#x115;" horiz-adv-x="612" 
d="M587 206q21 150 -48 243.5t-229 93.5q-120 0 -203.5 -75.5t-83.5 -196.5q0 -138 89 -211t226 -73q132 0 226 37l-26 150q-75 -25 -139 -25q-117 0 -145 57h333zM379 325h-132q15 70 69 70t63 -70zM379 325h-132h132zM410 740h91q-7 -75 -56.5 -114.5t-130.5 -39.5
t-130.5 39.5t-56.5 114.5h91q7 -30 33.5 -45t62.5 -15t62.5 15t33.5 45z" />
    <glyph glyph-name="Edotaccent" unicode="&#x116;" horiz-adv-x="658" 
d="M616 486h-304v-59h266v-176h-266v-62h304v-189h-558v676h558v-190zM255 744v131h163v-131h-163z" />
    <glyph glyph-name="edotaccent" unicode="&#x117;" horiz-adv-x="612" 
d="M587 206q21 150 -48 243.5t-229 93.5q-120 0 -203.5 -75.5t-83.5 -196.5q0 -138 89 -211t226 -73q132 0 226 37l-26 150q-75 -25 -139 -25q-117 0 -145 57h333zM379 325h-132q15 70 69 70t63 -70zM379 325h-132h132zM231 598v131h163v-131h-163z" />
    <glyph glyph-name="Eogonek" unicode="&#x118;" horiz-adv-x="658" 
d="M637 -123l39 -25q-44 -63 -135 -63q-47 0 -81.5 20.5t-34.5 61.5q0 68 100 129h-467v676h558v-190h-304v-59h266v-176h-266v-62h304v-189q-79 -58 -79 -102q0 -41 45 -41q35 0 55 20z" />
    <glyph glyph-name="eogonek" unicode="&#x119;" horiz-adv-x="614" 
d="M574 -123l39 -25q-44 -63 -135 -63q-46 0 -81 22t-35 64q0 60 74 118q-48 -6 -98 -6q-137 0 -226 73t-89 211q0 121 83.5 196.5t203.5 75.5q160 0 229 -93.5t48 -243.5h-333q28 -57 145 -57q64 0 139 25l26 -150q-90 -67 -90 -126q0 -41 45 -41q35 0 55 20zM316 395
q-54 0 -69 -70h132q-9 70 -63 70z" />
    <glyph glyph-name="Ecaron" unicode="&#x11a;" horiz-adv-x="658" 
d="M616 486h-304v-59h266v-176h-266v-62h304v-189h-558v676h558v-190zM554 891l-119 -155h-194l-119 155h145l71 -70l71 70h145z" />
    <glyph glyph-name="ecaron" unicode="&#x11b;" horiz-adv-x="612" 
d="M587 206q21 150 -48 243.5t-229 93.5q-120 0 -203.5 -75.5t-83.5 -196.5q0 -138 89 -211t226 -73q132 0 226 37l-26 150q-75 -25 -139 -25q-117 0 -145 57h333zM379 325h-132q15 70 69 70t63 -70zM379 325h-132h132zM527 745l-119 -155h-194l-119 155h145l71 -70l71 70
h145z" />
    <glyph glyph-name="Gcircumflex" unicode="&#x11c;" horiz-adv-x="730" 
d="M465 375h227v-337q-117 -51 -281 -51q-169 0 -276.5 93.5t-107.5 255.5q0 161 110 257t286 96q119 0 240 -32l-33 -186q-82 24 -156 24q-182 0 -182 -159q0 -75 44.5 -115t104.5 -40q10 0 24 2v192zM494 891l119 -155h-145l-71 70l-71 -70h-145l119 155h194z" />
    <glyph glyph-name="gcircumflex" unicode="&#x11d;" horiz-adv-x="702" 
d="M408 530h245v-446q0 -154 -73 -222.5t-239 -68.5q-268 0 -268 142q0 47 31.5 83t89.5 54q-77 17 -124 81.5t-47 150.5q0 101 63 170t161 69q97 0 161 -69v56zM340 366q-30 0 -49 -24t-19 -59t19 -59.5t49 -24.5t49.5 24.5t19.5 59.5t-19.5 59t-49.5 24zM404 -2v70
q-4 0 -10.5 -1t-23.5 -6.5t-30 -13.5t-23.5 -23t-10.5 -35q0 -51 47 -51q51 0 51 60zM443 745l119 -155h-145l-71 70l-71 -70h-145l119 155h194z" />
    <glyph glyph-name="Gbreve" unicode="&#x11e;" horiz-adv-x="730" 
d="M465 375h227v-337q-117 -51 -281 -51q-169 0 -276.5 93.5t-107.5 255.5q0 161 110 257t286 96q119 0 240 -32l-33 -186q-82 24 -156 24q-182 0 -182 -159q0 -75 44.5 -115t104.5 -40q10 0 24 2v192zM489 886h91q-7 -75 -56.5 -114.5t-130.5 -39.5t-130.5 39.5
t-56.5 114.5h91q7 -30 33.5 -45t62.5 -15t62.5 15t33.5 45z" />
    <glyph glyph-name="gbreve" unicode="&#x11f;" horiz-adv-x="702" 
d="M408 530h245v-446q0 -154 -73 -222.5t-239 -68.5q-268 0 -268 142q0 47 31.5 83t89.5 54q-77 17 -124 81.5t-47 150.5q0 101 63 170t161 69q97 0 161 -69v56zM340 366q-30 0 -49 -24t-19 -59t19 -59.5t49 -24.5t49.5 24.5t19.5 59.5t-19.5 59t-49.5 24zM404 -2v70
q-4 0 -10.5 -1t-23.5 -6.5t-30 -13.5t-23.5 -23t-10.5 -35q0 -51 47 -51q51 0 51 60zM445 740h91q-7 -75 -56.5 -114.5t-130.5 -39.5t-130.5 39.5t-56.5 114.5h91q7 -30 33.5 -45t62.5 -15t62.5 15t33.5 45z" />
    <glyph glyph-name="Gdotaccent" unicode="&#x120;" horiz-adv-x="730" 
d="M465 375h227v-337q-117 -51 -281 -51q-169 0 -276.5 93.5t-107.5 255.5q0 161 110 257t286 96q119 0 240 -32l-33 -186q-82 24 -156 24q-182 0 -182 -159q0 -75 44.5 -115t104.5 -40q10 0 24 2v192zM311 744v131h163v-131h-163z" />
    <glyph glyph-name="gdotaccent" unicode="&#x121;" horiz-adv-x="702" 
d="M408 530h245v-446q0 -154 -73 -222.5t-239 -68.5q-268 0 -268 142q0 47 31.5 83t89.5 54q-77 17 -124 81.5t-47 150.5q0 101 63 170t161 69q97 0 161 -69v56zM340 366q-30 0 -49 -24t-19 -59t19 -59.5t49 -24.5t49.5 24.5t19.5 59.5t-19.5 59t-49.5 24zM404 -2v70
q-4 0 -10.5 -1t-23.5 -6.5t-30 -13.5t-23.5 -23t-10.5 -35q0 -51 47 -51q51 0 51 60zM266 598v131h163v-131h-163z" />
    <glyph glyph-name="Gcommaaccent" unicode="&#x122;" horiz-adv-x="730" 
d="M465 375h227v-337q-117 -51 -281 -51q-169 0 -276.5 93.5t-107.5 255.5q0 161 110 257t286 96q119 0 240 -32l-33 -186q-82 24 -156 24q-182 0 -182 -159q0 -75 44.5 -115t104.5 -40q10 0 24 2v192zM296 -73h186v-144l-89 -131h-92l72 117h-77v158z" />
    <glyph glyph-name="gcommaaccent" unicode="&#x123;" horiz-adv-x="702" 
d="M408 530h245v-446q0 -154 -73 -222.5t-239 -68.5q-268 0 -268 142q0 47 31.5 83t89.5 54q-77 17 -124 81.5t-47 150.5q0 101 63 170t161 69q97 0 161 -69v56zM340 366q-30 0 -49 -24t-19 -59t19 -59.5t49 -24.5t49.5 24.5t19.5 59.5t-19.5 59t-49.5 24zM404 -2v70
q-4 0 -10.5 -1t-23.5 -6.5t-30 -13.5t-23.5 -23t-10.5 -35q0 -51 47 -51q51 0 51 60zM439 594h-186v144l89 131h92l-72 -117h77v-158z" />
    <glyph glyph-name="Hcircumflex" unicode="&#x124;" horiz-adv-x="802" 
d="M485 676h259v-676h-259v251h-168v-251h-259v676h259v-243h168v243zM498 891l119 -155h-145l-71 70l-71 -70h-145l119 155h194z" />
    <glyph glyph-name="hcircumflex" unicode="&#x125;" horiz-adv-x="699" 
d="M654 360v-360h-255v303q0 20 -14 34.5t-33 14.5t-33 -14.5t-14 -34.5v-303h-255v739h255v-258q60 62 158 62q81 0 136 -52.5t55 -130.5zM270 935l119 -155h-145l-71 70l-71 -70h-145l119 155h194z" />
    <glyph glyph-name="Hbar" unicode="&#x126;" horiz-adv-x="815" 
d="M491 676h259v-69h54v-98h-54v-509h-259v251h-168v-251h-259v509h-53v98h53v69h259v-69h168v69zM323 433h168v76h-168v-76z" />
    <glyph glyph-name="hbar" unicode="&#x127;" horiz-adv-x="699" 
d="M654 360v-360h-255v303q0 20 -14 34.5t-33 14.5t-33 -14.5t-14 -34.5v-303h-255v579h-66v97h66v63h255v-63h113v-97h-113v-98q60 62 158 62q81 0 136 -52.5t55 -130.5z" />
    <glyph glyph-name="Itilde" unicode="&#x128;" horiz-adv-x="377" 
d="M319 676v-676h-261v676h261zM-16 734q0 54 35 104t91 50q43 0 88 -25t60 -25t29 16t20 39h83q-1 -59 -38 -110.5t-90 -51.5q-41 0 -84.5 24.5t-65.5 24.5q-16 0 -28.5 -13.5t-18.5 -32.5h-81z" />
    <glyph glyph-name="itilde" unicode="&#x129;" horiz-adv-x="355" 
d="M50 0v530h255v-530h-255zM-25 588q0 54 35 104t91 50q43 0 88 -25t60 -25t29 16t20 39h83q-1 -59 -38 -110.5t-90 -51.5q-41 0 -84.5 24.5t-65.5 24.5q-16 0 -28.5 -13.5t-18.5 -32.5h-81z" />
    <glyph glyph-name="Imacron" unicode="&#x12a;" horiz-adv-x="377" 
d="M319 676v-676h-261v676h261zM10 751v101h357v-101h-357z" />
    <glyph glyph-name="imacron" unicode="&#x12b;" horiz-adv-x="355" 
d="M50 0v530h255v-530h-255zM-1 609v101h357v-101h-357z" />
    <glyph glyph-name="Ibreve" unicode="&#x12c;" horiz-adv-x="377" 
d="M319 676v-676h-261v676h261zM284 886h91q-7 -75 -56.5 -114.5t-130.5 -39.5t-130.5 39.5t-56.5 114.5h91q7 -30 33.5 -45t62.5 -15t62.5 15t33.5 45z" />
    <glyph glyph-name="ibreve" unicode="&#x12d;" horiz-adv-x="355" 
d="M50 0v530h255v-530h-255zM273 740h91q-7 -75 -56.5 -114.5t-130.5 -39.5t-130.5 39.5t-56.5 114.5h91q7 -30 33.5 -45t62.5 -15t62.5 15t33.5 45z" />
    <glyph glyph-name="Iogonek" unicode="&#x12e;" horiz-adv-x="377" 
d="M340 -123l39 -25q-44 -63 -135 -63q-47 0 -81.5 20.5t-34.5 61.5q0 68 100 129h-170v676h261v-676q-79 -58 -79 -102q0 -41 45 -41q35 0 55 20z" />
    <glyph glyph-name="iogonek" unicode="&#x12f;" horiz-adv-x="355" 
d="M50 0v530h255v-530q-79 -58 -79 -102q0 -41 45 -41q35 0 55 20l39 -25q-44 -63 -135 -63q-47 0 -81.5 20.5t-34.5 61.5q0 68 100 129h-164zM308 739v-158h-261v158h261z" />
    <glyph glyph-name="Idotaccent" unicode="&#x130;" horiz-adv-x="377" 
d="M319 676v-676h-261v676h261zM107 744v131h163v-131h-163z" />
    <glyph glyph-name="dotlessi" unicode="&#x131;" horiz-adv-x="355" 
d="M50 0v530h255v-530h-255z" />
    <glyph glyph-name="IJ" unicode="&#x132;" horiz-adv-x="873" 
d="M319 676v-676h-261v676h261zM442 676h380v-396q0 -293 -292 -293q-102 0 -179 37l45 177q37 -11 69 -11q49 0 73.5 15.5t24.5 60.5v215h-121v195z" />
    <glyph glyph-name="ij" unicode="&#x133;" horiz-adv-x="707" 
d="M50 0v530h255v-530h-255zM308 739v-158h-261v158h261zM402 530h255v-477q0 -65 -20.5 -113t-50 -74.5t-76.5 -43t-85 -21.5t-90 -8l-18 161q17 6 28.5 11.5t26.5 15.5t22.5 25.5t7.5 35.5v488zM660 739v-158h-261v158h261z" />
    <glyph glyph-name="Jcircumflex" unicode="&#x134;" horiz-adv-x="530" 
d="M99 676h380v-396q0 -293 -292 -293q-102 0 -179 37l45 177q37 -11 69 -11q49 0 73.5 15.5t24.5 60.5v215h-121v195zM394 891l119 -155h-145l-71 70l-71 -70h-145l119 155h194z" />
    <glyph glyph-name="jcircumflex" unicode="&#x135;" horiz-adv-x="356" 
d="M51 530h255v-477q0 -65 -20.5 -113t-50 -74.5t-76.5 -43t-85 -21.5t-90 -8l-18 161q17 6 28.5 11.5t26.5 15.5t22.5 25.5t7.5 35.5v488zM277 745l119 -155h-145l-71 70l-71 -70h-145l119 155h194z" />
    <glyph glyph-name="Kcommaaccent" unicode="&#x136;" horiz-adv-x="750" 
d="M537 372l225 -372h-298l-145 275v-275h-261v676h261v-240l145 240h280zM287 -73h186v-144l-89 -131h-92l72 117h-77v158z" />
    <glyph glyph-name="kcommaaccent" unicode="&#x137;" horiz-adv-x="684" 
d="M691 0h-271l-115 216v-216h-255v739h255v-380l108 171h257l-163 -216zM260 -73h186v-144l-89 -131h-92l72 117h-77v158z" />
    <glyph glyph-name="Lacute" unicode="&#x139;" horiz-adv-x="585" 
d="M319 676v-486h256v-190h-517v676h261zM403 891l-164 -155h-145l110 155h199z" />
    <glyph glyph-name="lacute" unicode="&#x13a;" horiz-adv-x="355" 
d="M50 0v739h255v-739h-255zM383 937l-164 -155h-145l110 155h199z" />
    <glyph glyph-name="Lcommaaccent" unicode="&#x13b;" horiz-adv-x="585" 
d="M319 676v-486h256v-190h-517v676h261zM225 -73h186v-144l-89 -131h-92l72 117h-77v158z" />
    <glyph glyph-name="lcommaaccent" unicode="&#x13c;" horiz-adv-x="355" 
d="M50 0v739h255v-739h-255zM86 -73h186v-144l-89 -131h-92l72 117h-77v158z" />
    <glyph glyph-name="Lcaron" unicode="&#x13d;" horiz-adv-x="601" 
d="M319 676v-486h256v-190h-517v676h261zM398 676h186v-144l-89 -131h-92l72 117h-77v158z" />
    <glyph glyph-name="lcaron" unicode="&#x13e;" horiz-adv-x="494" 
d="M50 0v739h255v-739h-255zM373 739h186v-144l-89 -131h-92l72 117h-77v158z" />
    <glyph glyph-name="Ldot" unicode="&#x13f;" horiz-adv-x="609" 
d="M405 322v131h163v-131h-163zM319 676v-486h256v-190h-517v676h261z" />
    <glyph glyph-name="ldot" unicode="&#x140;" horiz-adv-x="514" 
d="M353 259v131h163v-131h-163zM50 0v739h255v-739h-255z" />
    <glyph glyph-name="Lslash" unicode="&#x141;" horiz-adv-x="623" 
d="M19 275l77 42v359h261v-217l149 82v-134l-149 -82v-135h256v-190h-517v182l-77 -42v135z" />
    <glyph glyph-name="lslash" unicode="&#x142;" horiz-adv-x="431" 
d="M18 314l64 35v390h255v-249l73 40v-134l-73 -41v-355h-255v214l-64 -35v135z" />
    <glyph glyph-name="Nacute" unicode="&#x143;" horiz-adv-x="814" 
d="M517 676h239v-676h-247l-212 347v-347h-239v676h260l199 -345v345zM599 891l-164 -155h-145l110 155h199z" />
    <glyph glyph-name="nacute" unicode="&#x144;" horiz-adv-x="699" 
d="M654 360v-360h-255v303q0 20 -14 34.5t-33 14.5t-33 -14.5t-14 -34.5v-303h-255v530h247v-52q65 65 166 65q81 0 136 -52.5t55 -130.5zM536 745l-164 -155h-145l110 155h199z" />
    <glyph glyph-name="Ncommaaccent" unicode="&#x145;" horiz-adv-x="814" 
d="M517 676h239v-676h-247l-212 347v-347h-239v676h260l199 -345v345zM317 -73h186v-144l-89 -131h-92l72 117h-77v158z" />
    <glyph glyph-name="ncommaaccent" unicode="&#x146;" horiz-adv-x="699" 
d="M654 360v-360h-255v303q0 20 -14 34.5t-33 14.5t-33 -14.5t-14 -34.5v-303h-255v530h247v-52q65 65 166 65q81 0 136 -52.5t55 -130.5zM259 -73h186v-144l-89 -131h-92l72 117h-77v158z" />
    <glyph glyph-name="Ncaron" unicode="&#x147;" horiz-adv-x="814" 
d="M517 676h239v-676h-247l-212 347v-347h-239v676h260l199 -345v345zM618 891l-119 -155h-194l-119 155h145l71 -70l71 70h145z" />
    <glyph glyph-name="ncaron" unicode="&#x148;" horiz-adv-x="699" 
d="M654 360v-360h-255v303q0 20 -14 34.5t-33 14.5t-33 -14.5t-14 -34.5v-303h-255v530h247v-52q65 65 166 65q81 0 136 -52.5t55 -130.5zM560 745l-119 -155h-194l-119 155h145l71 -70l71 70h145z" />
    <glyph glyph-name="napostrophe" unicode="&#x149;" horiz-adv-x="699" 
d="M654 360v-360h-255v303q0 20 -14 34.5t-33 14.5t-33 -14.5t-14 -34.5v-303h-255v530h247v-52q65 65 166 65q81 0 136 -52.5t55 -130.5zM-48 871h186v-144l-89 -131h-92l72 117h-77v158z" />
    <glyph glyph-name="Eng" unicode="&#x14a;" horiz-adv-x="814" 
d="M517 676h239v-584q0 -150 -58 -224.5t-203 -74.5q-108 0 -190 37l45 177q37 -11 72 -11q68 0 86 32l-211 319v-347h-239v676h260l199 -318v318z" />
    <glyph glyph-name="eng" unicode="&#x14b;" horiz-adv-x="698" 
d="M399 38v265q0 20 -14 34.5t-33 14.5t-33 -14.5t-14 -34.5v-303h-255v530h247v-52q65 65 166 65q81 0 136 -52.5t55 -130.5v-307q0 -65 -20.5 -113t-50 -74.5t-76.5 -43t-85 -21.5t-90 -8l-18 161q17 6 28 11t26.5 15t23 24.5t7.5 33.5z" />
    <glyph glyph-name="Omacron" unicode="&#x14c;" horiz-adv-x="819" 
d="M410 689q172 0 277 -94.5t105 -256.5t-105 -256.5t-277 -94.5q-173 0 -278 94.5t-105 256.5t105 256.5t278 94.5zM410 181q59 0 89 40.5t30 116.5t-30 116.5t-89 40.5t-89.5 -40.5t-30.5 -116.5t30.5 -116.5t89.5 -40.5zM231 751v101h357v-101h-357z" />
    <glyph glyph-name="omacron" unicode="&#x14d;" horiz-adv-x="684" 
d="M343 543q134 0 226.5 -75t92.5 -203t-92.5 -203t-226.5 -75q-136 0 -228.5 75t-92.5 203t92.5 203t228.5 75zM342 172q33 0 54 27t21 66t-21 66t-54 27t-54 -27t-21 -66t21 -66t54 -27zM164 609v101h357v-101h-357z" />
    <glyph glyph-name="Obreve" unicode="&#x14e;" horiz-adv-x="819" 
d="M410 689q172 0 277 -94.5t105 -256.5t-105 -256.5t-277 -94.5q-173 0 -278 94.5t-105 256.5t105 256.5t278 94.5zM410 181q59 0 89 40.5t30 116.5t-30 116.5t-89 40.5t-89.5 -40.5t-30.5 -116.5t30.5 -116.5t89.5 -40.5zM505 886h91q-7 -75 -56.5 -114.5t-130.5 -39.5
t-130.5 39.5t-56.5 114.5h91q7 -30 33.5 -45t62.5 -15t62.5 15t33.5 45z" />
    <glyph glyph-name="obreve" unicode="&#x14f;" horiz-adv-x="684" 
d="M343 543q134 0 226.5 -75t92.5 -203t-92.5 -203t-226.5 -75q-136 0 -228.5 75t-92.5 203t92.5 203t228.5 75zM342 172q33 0 54 27t21 66t-21 66t-54 27t-54 -27t-21 -66t21 -66t54 -27zM438 740h91q-7 -75 -56.5 -114.5t-130.5 -39.5t-130.5 39.5t-56.5 114.5h91
q7 -30 33.5 -45t62.5 -15t62.5 15t33.5 45z" />
    <glyph glyph-name="Ohungarumlaut" unicode="&#x150;" horiz-adv-x="819" 
d="M410 689q172 0 277 -94.5t105 -256.5t-105 -256.5t-277 -94.5q-173 0 -278 94.5t-105 256.5t105 256.5t278 94.5zM410 181q59 0 89 40.5t30 116.5t-30 116.5t-89 40.5t-89.5 -40.5t-30.5 -116.5t30.5 -116.5t89.5 -40.5zM498 891l-164 -155h-145l110 155h199zM759 891
l-164 -155h-145l110 155h199z" />
    <glyph glyph-name="ohungarumlaut" unicode="&#x151;" horiz-adv-x="684" 
d="M343 543q134 0 226.5 -75t92.5 -203t-92.5 -203t-226.5 -75q-136 0 -228.5 75t-92.5 203t92.5 203t228.5 75zM342 172q33 0 54 27t21 66t-21 66t-54 27t-54 -27t-21 -66t21 -66t54 -27zM410 745l-164 -155h-145l110 155h199zM671 745l-164 -155h-145l110 155h199z" />
    <glyph glyph-name="OE" unicode="&#x152;" horiz-adv-x="1078" 
d="M410 676h626v-190h-291v-59h253v-176h-253v-62h291v-189h-626q-174 0 -278 88.5t-104 249.5t104 249.5t278 88.5zM495 482h-85q-119 0 -119 -144t119 -144h85v288z" />
    <glyph glyph-name="oe" unicode="&#x153;" horiz-adv-x="1002" 
d="M323 543q136 0 204 -83q61 83 183 83q133 0 202 -75t69 -202q0 -18 -4 -60h-333q28 -57 145 -57q64 0 139 25l26 -150q-94 -37 -212 -37q-142 0 -216 81q-67 -81 -203 -81q-126 0 -213 75t-87 203t87 203t213 75zM343 172q33 0 54 27t21 66t-21 66t-54 27t-54 -27
t-21 -66t21 -66t54 -27zM633 325h132q-9 70 -63 70t-69 -70z" />
    <glyph glyph-name="Racute" unicode="&#x154;" horiz-adv-x="742" 
d="M579 278q105 -20 140 -278h-259q-9 45 -17.5 78t-16 56.5t-19 38t-19 22.5t-23 11.5t-25 4t-31.5 0.5v-211h-251v669q116 20 260 20q385 0 385 -235q0 -120 -124 -176zM331 369q27 0 51 4.5t46 21t22 44.5q0 37 -34.5 52.5t-77.5 15.5q-14 0 -30 -2v-135q7 -1 23 -1z
M545 891l-164 -155h-145l110 155h199z" />
    <glyph glyph-name="racute" unicode="&#x155;" horiz-adv-x="477" 
d="M462 340q-75 10 -116 -27t-41 -115v-198h-255v530h238v-94q6 12 9 18.5t10 19.5t14 20.5l17.5 18.5t22.5 16t27 10t34 4.5t40 -5.5v-198zM484 745l-164 -155h-145l110 155h199z" />
    <glyph glyph-name="Rcommaaccent" unicode="&#x156;" horiz-adv-x="742" 
d="M579 278q105 -20 140 -278h-259q-9 45 -17.5 78t-16 56.5t-19 38t-19 22.5t-23 11.5t-25 4t-31.5 0.5v-211h-251v669q116 20 260 20q385 0 385 -235q0 -120 -124 -176zM331 369q27 0 51 4.5t46 21t22 44.5q0 37 -34.5 52.5t-77.5 15.5q-14 0 -30 -2v-135q7 -1 23 -1z
M283 -73h186v-144l-89 -131h-92l72 117h-77v158z" />
    <glyph glyph-name="rcommaaccent" unicode="&#x157;" horiz-adv-x="477" 
d="M462 340q-75 10 -116 -27t-41 -115v-198h-255v530h238v-94q6 12 9 18.5t10 19.5t14 20.5l17.5 18.5t22.5 16t27 10t34 4.5t40 -5.5v-198zM86 -73h186v-144l-89 -131h-92l72 117h-77v158z" />
    <glyph glyph-name="Rcaron" unicode="&#x158;" horiz-adv-x="742" 
d="M579 278q105 -20 140 -278h-259q-9 45 -17.5 78t-16 56.5t-19 38t-19 22.5t-23 11.5t-25 4t-31.5 0.5v-211h-251v669q116 20 260 20q385 0 385 -235q0 -120 -124 -176zM331 369q27 0 51 4.5t46 21t22 44.5q0 37 -34.5 52.5t-77.5 15.5q-14 0 -30 -2v-135q7 -1 23 -1z
M585 891l-119 -155h-194l-119 155h145l71 -70l71 70h145z" />
    <glyph glyph-name="rcaron" unicode="&#x159;" horiz-adv-x="477" 
d="M462 340q-75 10 -116 -27t-41 -115v-198h-255v530h238v-94q6 12 9 18.5t10 19.5t14 20.5l17.5 18.5t22.5 16t27 10t34 4.5t40 -5.5v-198zM486 745l-119 -155h-194l-119 155h145l71 -70l71 70h145z" />
    <glyph glyph-name="Sacute" unicode="&#x15a;" horiz-adv-x="635" 
d="M286 483q0 -13 33.5 -22l80.5 -21t94.5 -33t81 -67t33.5 -113q0 -121 -78 -180.5t-216 -59.5q-152 0 -281 51l41 183q114 -55 223 -55q56 0 56 25q0 13 -33 21.5l-80 20.5t-93.5 33t-79.5 70t-32 120q1 111 78.5 172t209.5 61q126 0 259 -39l-41 -182q-88 40 -200 40
q-56 0 -56 -25zM522 891l-164 -155h-145l110 155h199z" />
    <glyph glyph-name="sacute" unicode="&#x15b;" horiz-adv-x="547" 
d="M287 369q0 -8 17.5 -14t43.5 -10t56 -15t56 -27.5t43.5 -50.5t17.5 -80q0 -92 -68 -138.5t-189 -46.5q-127 0 -241 61l23 152q81 -54 180 -54q42 0 42 20q0 8 -23.5 13.5l-57 13.5t-67 23t-57 51.5t-23.5 89.5q0 92 70 139t191 47q103 0 204 -43l-22 -145q-72 32 -143 32
q-53 0 -53 -18zM469 745l-164 -155h-145l110 155h199z" />
    <glyph glyph-name="Scircumflex" unicode="&#x15c;" horiz-adv-x="635" 
d="M286 483q0 -13 33.5 -22l80.5 -21t94.5 -33t81 -67t33.5 -113q0 -121 -78 -180.5t-216 -59.5q-152 0 -281 51l41 183q114 -55 223 -55q56 0 56 25q0 13 -33 21.5l-80 20.5t-93.5 33t-79.5 70t-32 120q1 111 78.5 172t209.5 61q126 0 259 -39l-41 -182q-88 40 -200 40
q-56 0 -56 -25zM420 891l119 -155h-145l-71 70l-71 -70h-145l119 155h194z" />
    <glyph glyph-name="scircumflex" unicode="&#x15d;" horiz-adv-x="547" 
d="M287 369q0 -8 17.5 -14t43.5 -10t56 -15t56 -27.5t43.5 -50.5t17.5 -80q0 -92 -68 -138.5t-189 -46.5q-127 0 -241 61l23 152q81 -54 180 -54q42 0 42 20q0 8 -23.5 13.5l-57 13.5t-67 23t-57 51.5t-23.5 89.5q0 92 70 139t191 47q103 0 204 -43l-22 -145q-72 32 -143 32
q-53 0 -53 -18zM374 745l119 -155h-145l-71 70l-71 -70h-145l119 155h194z" />
    <glyph glyph-name="Scedilla" unicode="&#x15e;" horiz-adv-x="636" 
d="M163 -207l26 58q122 -26 122 26q0 30 -86 35l44 76q-124 6 -235 50l41 183q114 -55 223 -55q56 0 56 25q0 13 -33 21.5l-80 20.5t-93.5 33t-79.5 70t-32 120q1 111 78.5 172t209.5 61q126 0 259 -39l-41 -182q-88 40 -200 40q-56 0 -56 -25q0 -13 33.5 -22l80.5 -21
t94.5 -33t81 -67t33.5 -113q0 -115 -71 -174.5t-198 -64.5l-29 -46q49 -2 83 -25t34 -59q0 -40 -32.5 -65.5t-92.5 -25.5q-74 0 -140 26z" />
    <glyph glyph-name="scedilla" unicode="&#x15f;" horiz-adv-x="549" 
d="M128 -207l26 58q122 -26 122 26q0 30 -86 35l44 76q-113 7 -210 60l23 152q81 -54 180 -54q42 0 42 20q0 8 -23.5 13.5l-57 13.5t-67 23t-57 51.5t-23.5 89.5q0 92 70 139t191 47q103 0 204 -43l-22 -145q-72 32 -143 32q-53 0 -53 -18q0 -8 17.5 -14t43.5 -10t56 -15
t56 -27.5t43.5 -50.5t17.5 -80q0 -83 -56.5 -129t-159.5 -54l-30 -47q49 -2 83 -25t34 -59q0 -40 -32.5 -65.5t-92.5 -25.5q-74 0 -140 26z" />
    <glyph glyph-name="Scaron" unicode="&#x160;" horiz-adv-x="635" 
d="M286 483q0 -13 33.5 -22l80.5 -21t94.5 -33t81 -67t33.5 -113q0 -121 -78 -180.5t-216 -59.5q-152 0 -281 51l41 183q114 -55 223 -55q56 0 56 25q0 13 -33 21.5l-80 20.5t-93.5 33t-79.5 70t-32 120q1 111 78.5 172t209.5 61q126 0 259 -39l-41 -182q-88 40 -200 40
q-56 0 -56 -25zM537 891l-119 -155h-194l-119 155h145l71 -70l71 70h145z" />
    <glyph glyph-name="scaron" unicode="&#x161;" horiz-adv-x="547" 
d="M287 369q0 -8 17.5 -14t43.5 -10t56 -15t56 -27.5t43.5 -50.5t17.5 -80q0 -92 -68 -138.5t-189 -46.5q-127 0 -241 61l23 152q81 -54 180 -54q42 0 42 20q0 8 -23.5 13.5l-57 13.5t-67 23t-57 51.5t-23.5 89.5q0 92 70 139t191 47q103 0 204 -43l-22 -145q-72 32 -143 32
q-53 0 -53 -18zM491 745l-119 -155h-194l-119 155h145l71 -70l71 70h145z" />
    <glyph glyph-name="Tcommaaccent" unicode="&#x162;" horiz-adv-x="665" 
d="M463 483v-483h-261v483h-192v193h645v-193h-192zM242 -73h186v-144l-89 -131h-92l72 117h-77v158z" />
    <glyph glyph-name="tcommaaccent" unicode="&#x163;" horiz-adv-x="469" 
d="M27 355v175h55v123h255v-123h92v-175h-92v-141q0 -29 18 -43t44 -14q11 0 27 2l20 -141q-71 -31 -171 -31q-193 0 -193 165v203h-55zM152 -73h186v-144l-89 -131h-92l72 117h-77v158z" />
    <glyph glyph-name="Tcaron" unicode="&#x164;" horiz-adv-x="665" 
d="M463 483v-483h-261v483h-192v193h645v-193h-192zM548 891l-119 -155h-194l-119 155h145l71 -70l71 70h145z" />
    <glyph glyph-name="tcaron" unicode="&#x165;" horiz-adv-x="469" 
d="M27 355v175h55v123h255v-123h92v-175h-92v-141q0 -29 18 -43t44 -14q11 0 27 2l20 -141q-71 -31 -171 -31q-193 0 -193 165v203h-55zM395 904h186v-144l-89 -131h-92l72 117h-77v158z" />
    <glyph glyph-name="Tbar" unicode="&#x166;" horiz-adv-x="665" 
d="M463 483v-123h131v-108h-131v-252h-261v252h-131v108h131v123h-192v193h645v-193h-192z" />
    <glyph glyph-name="tbar" unicode="&#x167;" horiz-adv-x="469" 
d="M35 206v108h47v41h-55v175h55v123h255v-123h92v-175h-92v-41h74v-108h-74q3 -25 20.5 -37t41.5 -12q11 0 27 2l20 -141q-71 -31 -171 -31q-193 0 -193 165v54h-47z" />
    <glyph glyph-name="Utilde" unicode="&#x168;" horiz-adv-x="755" 
d="M443 676h261v-409q0 -141 -85 -210.5t-242 -69.5t-241.5 69.5t-84.5 210.5v409h261v-406q0 -41 13.5 -62.5t51.5 -21.5q39 0 52.5 21.5t13.5 62.5v406zM177 734q0 54 35 104t91 50q43 0 88 -25t60 -25t29 16t20 39h83q-1 -59 -38 -110.5t-90 -51.5q-41 0 -84.5 24.5
t-65.5 24.5q-16 0 -28.5 -13.5t-18.5 -32.5h-81z" />
    <glyph glyph-name="utilde" unicode="&#x169;" horiz-adv-x="699" 
d="M45 170v360h255v-303q0 -20 14 -34.5t33 -14.5t33 14.5t14 34.5v303h255v-530h-247v52q-65 -65 -166 -65q-81 0 -136 52.5t-55 130.5zM146 588q0 54 35 104t91 50q43 0 88 -25t60 -25t29 16t20 39h83q-1 -59 -38 -110.5t-90 -51.5q-41 0 -84.5 24.5t-65.5 24.5
q-16 0 -28.5 -13.5t-18.5 -32.5h-81z" />
    <glyph glyph-name="Umacron" unicode="&#x16a;" horiz-adv-x="755" 
d="M443 676h261v-409q0 -141 -85 -210.5t-242 -69.5t-241.5 69.5t-84.5 210.5v409h261v-406q0 -41 13.5 -62.5t51.5 -21.5q39 0 52.5 21.5t13.5 62.5v406zM199 751v101h357v-101h-357z" />
    <glyph glyph-name="umacron" unicode="&#x16b;" horiz-adv-x="699" 
d="M45 170v360h255v-303q0 -20 14 -34.5t33 -14.5t33 14.5t14 34.5v303h255v-530h-247v52q-65 -65 -166 -65q-81 0 -136 52.5t-55 130.5zM169 609v101h357v-101h-357z" />
    <glyph glyph-name="Ubreve" unicode="&#x16c;" horiz-adv-x="755" 
d="M443 676h261v-409q0 -141 -85 -210.5t-242 -69.5t-241.5 69.5t-84.5 210.5v409h261v-406q0 -41 13.5 -62.5t51.5 -21.5q39 0 52.5 21.5t13.5 62.5v406zM473 886h91q-7 -75 -56.5 -114.5t-130.5 -39.5t-130.5 39.5t-56.5 114.5h91q7 -30 33.5 -45t62.5 -15t62.5 15
t33.5 45z" />
    <glyph glyph-name="ubreve" unicode="&#x16d;" horiz-adv-x="699" 
d="M45 170v360h255v-303q0 -20 14 -34.5t33 -14.5t33 14.5t14 34.5v303h255v-530h-247v52q-65 -65 -166 -65q-81 0 -136 52.5t-55 130.5zM443 740h91q-7 -75 -56.5 -114.5t-130.5 -39.5t-130.5 39.5t-56.5 114.5h91q7 -30 33.5 -45t62.5 -15t62.5 15t33.5 45z" />
    <glyph glyph-name="Uring" unicode="&#x16e;" horiz-adv-x="755" 
d="M443 676h261v-409q0 -141 -85 -210.5t-242 -69.5t-241.5 69.5t-84.5 210.5v409h261v-406q0 -41 13.5 -62.5t51.5 -21.5q39 0 52.5 21.5t13.5 62.5v406zM377 711q-51 0 -87 31.5t-36 81.5t36 81.5t87 31.5t87 -31.5t36 -81.5t-36 -81.5t-87 -31.5zM377 873q-22 0 -37 -14
t-15 -35t15 -35t37 -14t37 14t15 35t-15 35t-37 14z" />
    <glyph glyph-name="uring" unicode="&#x16f;" horiz-adv-x="699" 
d="M45 170v360h255v-303q0 -20 14 -34.5t33 -14.5t33 14.5t14 34.5v303h255v-530h-247v52q-65 -65 -166 -65q-81 0 -136 52.5t-55 130.5zM347 586q-51 0 -87 31.5t-36 81.5t36 81.5t87 31.5t87 -31.5t36 -81.5t-36 -81.5t-87 -31.5zM347 748q-22 0 -37 -14t-15 -35t15 -35
t37 -14t37 14t15 35t-15 35t-37 14z" />
    <glyph glyph-name="Uhungarumlaut" unicode="&#x170;" horiz-adv-x="755" 
d="M443 676h261v-409q0 -141 -85 -210.5t-242 -69.5t-241.5 69.5t-84.5 210.5v409h261v-406q0 -41 13.5 -62.5t51.5 -21.5q39 0 52.5 21.5t13.5 62.5v406zM470 891l-164 -155h-145l110 155h199zM731 891l-164 -155h-145l110 155h199z" />
    <glyph glyph-name="uhungarumlaut" unicode="&#x171;" horiz-adv-x="699" 
d="M45 170v360h255v-303q0 -20 14 -34.5t33 -14.5t33 14.5t14 34.5v303h255v-530h-247v52q-65 -65 -166 -65q-81 0 -136 52.5t-55 130.5zM424 745l-164 -155h-145l110 155h199zM685 745l-164 -155h-145l110 155h199z" />
    <glyph glyph-name="Uogonek" unicode="&#x172;" horiz-adv-x="756" 
d="M582 -123l39 -25q-44 -63 -135 -63q-45 0 -80.5 22.5t-35.5 64.5q0 59 68 114q-30 -3 -61 -3q-157 0 -241.5 69.5t-84.5 210.5v409h261v-406q0 -41 13.5 -62.5t51.5 -21.5q39 0 52.5 21.5t13.5 62.5v406h261v-409q0 -61 -16.5 -108t-41 -72.5t-53.5 -48.5t-53.5 -38.5
t-41 -40.5t-16.5 -56q0 -22 14 -34t31 -12q35 0 55 20z" />
    <glyph glyph-name="uogonek" unicode="&#x173;" horiz-adv-x="699" 
d="M670 -123l39 -25q-44 -63 -135 -63q-47 0 -81.5 20.5t-34.5 61.5q0 68 100 129h-156v52q-65 -65 -166 -65q-81 0 -136 52.5t-55 130.5v360h255v-303q0 -20 14 -34.5t33 -14.5t33 14.5t14 34.5v303h255v-530q-79 -58 -79 -102q0 -41 45 -41q35 0 55 20z" />
    <glyph glyph-name="Wcircumflex" unicode="&#x174;" horiz-adv-x="1103" 
d="M841 676h259l-151 -676h-318l-80 380l-81 -380h-316l-151 676h258l68 -460l102 460h238l103 -460zM648 891l119 -155h-145l-71 70l-71 -70h-145l119 155h194z" />
    <glyph glyph-name="wcircumflex" unicode="&#x175;" horiz-adv-x="955" 
d="M699 530h257l-160 -530h-247l-71 241l-73 -241h-246l-160 530h260l51 -289l75 289h181l79 -289zM574 745l119 -155h-145l-71 70l-71 -70h-145l119 155h194z" />
    <glyph glyph-name="Ycircumflex" unicode="&#x176;" horiz-adv-x="715" 
d="M469 676h263l-244 -435v-241h-261v241l-245 435h264l110 -244zM454 891l119 -155h-145l-71 70l-71 -70h-145l119 155h194z" />
    <glyph glyph-name="ycircumflex" unicode="&#x177;" horiz-adv-x="696" 
d="M392 530h255v-446q0 -154 -73 -222.5t-239 -68.5q-268 0 -268 142q0 45 29.5 80.5t84.5 54.5q-67 5 -102.5 41.5t-35.5 97.5v321h255v-287q0 -21 13.5 -35.5t33.5 -14.5t33.5 14.5t13.5 35.5v287zM392 -3v71q-4 -1 -10 -2t-22 -7t-28 -14.5t-22 -24t-10 -35.5
q0 -47 43 -47q49 0 49 59zM442 745l119 -155h-145l-71 70l-71 -70h-145l119 155h194z" />
    <glyph glyph-name="Ydieresis" unicode="&#x178;" horiz-adv-x="715" 
d="M469 676h263l-244 -435v-241h-261v241l-245 435h264l110 -244zM149 744v131h163v-131h-163zM401 744v131h163v-131h-163z" />
    <glyph glyph-name="Zacute" unicode="&#x179;" horiz-adv-x="660" 
d="M48 676h566v-186l-254 -299h260v-191h-587v155l285 330h-270v191zM530 891l-164 -155h-145l110 155h199z" />
    <glyph glyph-name="zacute" unicode="&#x17a;" horiz-adv-x="567" 
d="M526 377l-191 -206h196v-171h-502v144l204 215h-186v171h479v-153zM477 745l-164 -155h-145l110 155h199z" />
    <glyph glyph-name="Zdotaccent" unicode="&#x17b;" horiz-adv-x="660" 
d="M48 676h566v-186l-254 -299h260v-191h-587v155l285 330h-270v191zM251 744v131h163v-131h-163z" />
    <glyph glyph-name="zdotaccent" unicode="&#x17c;" horiz-adv-x="567" 
d="M526 377l-191 -206h196v-171h-502v144l204 215h-186v171h479v-153zM203 598v131h163v-131h-163z" />
    <glyph glyph-name="Zcaron" unicode="&#x17d;" horiz-adv-x="660" 
d="M48 676h566v-186l-254 -299h260v-191h-587v155l285 330h-270v191zM546 891l-119 -155h-194l-119 155h145l71 -70l71 70h145z" />
    <glyph glyph-name="zcaron" unicode="&#x17e;" horiz-adv-x="567" 
d="M526 377l-191 -206h196v-171h-502v144l204 215h-186v171h479v-153zM506 745l-119 -155h-194l-119 155h145l71 -70l71 70h145z" />
    <glyph glyph-name="florin" unicode="&#x192;" horiz-adv-x="503" 
d="M427 474q-67 0 -67 -55v-4h84v-175h-84v-253q0 -63 -18 -108t-49.5 -68.5t-66.5 -33.5t-77 -10q-60 0 -114 14v145q83 -9 83 55v259h-56v175h56v2q0 63 18 108t49.5 68.5t66.5 33.5t77 10q85 0 147 -25l-17 -141q-21 3 -32 3z" />
    <glyph glyph-name="Acaron" unicode="&#x1cd;" horiz-adv-x="758" 
d="M534 676l237 -676h-261l-31 113h-200l-30 -113h-262l236 676h311zM379 479l-57 -208h114zM595 891l-119 -155h-194l-119 155h145l71 -70l71 70h145z" />
    <glyph glyph-name="acaron" unicode="&#x1ce;" horiz-adv-x="649" 
d="M312 543q294 0 294 -230v-313h-252v49q-67 -62 -155 -62q-78 0 -129 49.5t-51 120.5q0 84 59 127.5t169 43.5q58 0 104 -10v5q0 49 -93 49q-90 0 -166 -29l-35 158q108 42 255 42zM357 197v18q-15 3 -37 3q-29 0 -45.5 -13t-16.5 -36q0 -18 11.5 -29.5t32.5 -11.5
q55 0 55 69zM532 745l-119 -155h-194l-119 155h145l71 -70l71 70h145z" />
    <glyph glyph-name="Icaron" unicode="&#x1cf;" horiz-adv-x="377" 
d="M319 676v-676h-261v676h261zM404 891l-119 -155h-194l-119 155h145l71 -70l71 70h145z" />
    <glyph glyph-name="icaron" unicode="&#x1d0;" horiz-adv-x="355" 
d="M50 0v530h255v-530h-255zM393 745l-119 -155h-194l-119 155h145l71 -70l71 70h145z" />
    <glyph glyph-name="Ocaron" unicode="&#x1d1;" horiz-adv-x="819" 
d="M410 689q172 0 277 -94.5t105 -256.5t-105 -256.5t-277 -94.5q-173 0 -278 94.5t-105 256.5t105 256.5t278 94.5zM410 181q59 0 89 40.5t30 116.5t-30 116.5t-89 40.5t-89.5 -40.5t-30.5 -116.5t30.5 -116.5t89.5 -40.5zM625 891l-119 -155h-194l-119 155h145l71 -70
l71 70h145z" />
    <glyph glyph-name="ocaron" unicode="&#x1d2;" horiz-adv-x="684" 
d="M343 543q134 0 226.5 -75t92.5 -203t-92.5 -203t-226.5 -75q-136 0 -228.5 75t-92.5 203t92.5 203t228.5 75zM342 172q33 0 54 27t21 66t-21 66t-54 27t-54 -27t-21 -66t21 -66t54 -27zM558 745l-119 -155h-194l-119 155h145l71 -70l71 70h145z" />
    <glyph glyph-name="Ucaron" unicode="&#x1d3;" horiz-adv-x="755" 
d="M443 676h261v-409q0 -141 -85 -210.5t-242 -69.5t-241.5 69.5t-84.5 210.5v409h261v-406q0 -41 13.5 -62.5t51.5 -21.5q39 0 52.5 21.5t13.5 62.5v406zM593 891l-119 -155h-194l-119 155h145l71 -70l71 70h145z" />
    <glyph glyph-name="ucaron" unicode="&#x1d4;" horiz-adv-x="699" 
d="M45 170v360h255v-303q0 -20 14 -34.5t33 -14.5t33 14.5t14 34.5v303h255v-530h-247v52q-65 -65 -166 -65q-81 0 -136 52.5t-55 130.5zM563 745l-119 -155h-194l-119 155h145l71 -70l71 70h145z" />
    <glyph glyph-name="Udieresismacron" unicode="&#x1d5;" horiz-adv-x="755" 
d="M199 923v101h357v-101h-357zM443 676h261v-409q0 -141 -85 -210.5t-242 -69.5t-241.5 69.5t-84.5 210.5v409h261v-406q0 -41 13.5 -62.5t51.5 -21.5q39 0 52.5 21.5t13.5 62.5v406zM170 741v131h163v-131h-163zM422 741v131h163v-131h-163z" />
    <glyph glyph-name="udieresismacron" unicode="&#x1d6;" horiz-adv-x="699" 
d="M169 797v101h357v-101h-357zM45 170v360h255v-303q0 -20 14 -34.5t33 -14.5t33 14.5t14 34.5v303h255v-530h-247v52q-65 -65 -166 -65q-81 0 -136 52.5t-55 130.5zM140 598v131h163v-131h-163zM392 598v131h163v-131h-163z" />
    <glyph glyph-name="Udieresisacute" unicode="&#x1d7;" horiz-adv-x="755" 
d="M584 1088l-164 -155h-145l110 155h199zM443 676h261v-409q0 -141 -85 -210.5t-242 -69.5t-241.5 69.5t-84.5 210.5v409h261v-406q0 -41 13.5 -62.5t51.5 -21.5q39 0 52.5 21.5t13.5 62.5v406zM170 741v131h163v-131h-163zM422 741v131h163v-131h-163z" />
    <glyph glyph-name="udieresisacute" unicode="&#x1d8;" horiz-adv-x="699" 
d="M555 953l-164 -155h-145l110 155h199zM45 170v360h255v-303q0 -20 14 -34.5t33 -14.5t33 14.5t14 34.5v303h255v-530h-247v52q-65 -65 -166 -65q-81 0 -136 52.5t-55 130.5zM140 598v131h163v-131h-163zM392 598v131h163v-131h-163z" />
    <glyph glyph-name="Udieresiscaron" unicode="&#x1d9;" horiz-adv-x="755" 
d="M593 1082l-119 -155h-194l-119 155h145l71 -70l71 70h145zM443 676h261v-409q0 -141 -85 -210.5t-242 -69.5t-241.5 69.5t-84.5 210.5v409h261v-406q0 -41 13.5 -62.5t51.5 -21.5q39 0 52.5 21.5t13.5 62.5v406zM170 741v131h163v-131h-163zM422 741v131h163v-131h-163z
" />
    <glyph glyph-name="udieresiscaron" unicode="&#x1da;" horiz-adv-x="699" 
d="M563 956l-119 -155h-194l-119 155h145l71 -70l71 70h145zM45 170v360h255v-303q0 -20 14 -34.5t33 -14.5t33 14.5t14 34.5v303h255v-530h-247v52q-65 -65 -166 -65q-81 0 -136 52.5t-55 130.5zM140 598v131h163v-131h-163zM392 598v131h163v-131h-163z" />
    <glyph glyph-name="Udieresisgrave" unicode="&#x1db;" horiz-adv-x="755" 
d="M329 933l-164 155h199l110 -155h-145zM443 676h261v-409q0 -141 -85 -210.5t-242 -69.5t-241.5 69.5t-84.5 210.5v409h261v-406q0 -41 13.5 -62.5t51.5 -21.5q39 0 52.5 21.5t13.5 62.5v406zM170 741v131h163v-131h-163zM422 741v131h163v-131h-163z" />
    <glyph glyph-name="udieresisgrave" unicode="&#x1dc;" horiz-adv-x="699" 
d="M298 798l-164 155h199l110 -155h-145zM45 170v360h255v-303q0 -20 14 -34.5t33 -14.5t33 14.5t14 34.5v303h255v-530h-247v52q-65 -65 -166 -65q-81 0 -136 52.5t-55 130.5zM140 598v131h163v-131h-163zM392 598v131h163v-131h-163z" />
    <glyph glyph-name="uni01DD" unicode="&#x1dd;" horiz-adv-x="613" 
d="M26 324h333q-28 57 -145 57q-64 0 -139 -25l-26 150q94 37 226 37q137 0 226 -73t89 -211q0 -121 -83.5 -196.5t-203.5 -75.5q-160 0 -229 93.5t-48 243.5zM366 205h-132q9 -70 63 -70t69 70z" />
    <glyph glyph-name="Adieresismacron" unicode="&#x1de;" horiz-adv-x="758" 
d="M534 676l237 -676h-261l-31 113h-200l-30 -113h-262l236 676h311zM379 479l-57 -208h114zM201 923v101h357v-101h-357zM172 741v131h163v-131h-163zM424 741v131h163v-131h-163z" />
    <glyph glyph-name="adieresismacron" unicode="&#x1df;" horiz-adv-x="649" 
d="M312 543q294 0 294 -230v-313h-252v49q-67 -62 -155 -62q-78 0 -129 49.5t-51 120.5q0 84 59 127.5t169 43.5q58 0 104 -10v5q0 49 -93 49q-90 0 -166 -29l-35 158q108 42 255 42zM357 197v18q-15 3 -37 3q-29 0 -45.5 -13t-16.5 -36q0 -18 11.5 -29.5t32.5 -11.5
q55 0 55 69zM141 797v101h357v-101h-357zM112 598v131h163v-131h-163zM364 598v131h163v-131h-163z" />
    <glyph glyph-name="Adotaccentmacron" unicode="&#x1e0;" horiz-adv-x="758" 
d="M534 676l237 -676h-261l-31 113h-200l-30 -113h-262l236 676h311zM379 479l-57 -208h114zM298 737v131h163v-131h-163zM201 928v101h357v-101h-357z" />
    <glyph glyph-name="adotaccentmacron" unicode="&#x1e1;" horiz-adv-x="649" 
d="M312 543q294 0 294 -230v-313h-252v49q-67 -62 -155 -62q-78 0 -129 49.5t-51 120.5q0 84 59 127.5t169 43.5q58 0 104 -10v5q0 49 -93 49q-90 0 -166 -29l-35 158q108 42 255 42zM357 197v18q-15 3 -37 3q-29 0 -45.5 -13t-16.5 -36q0 -18 11.5 -29.5t32.5 -11.5
q55 0 55 69zM237 598v131h163v-131h-163zM140 786v101h357v-101h-357z" />
    <glyph glyph-name="AEmacron" unicode="&#x1e2;" horiz-adv-x="1048" 
d="M520 0l-8 109h-224l-55 -109h-264l358 676h679v-190h-285l4 -59h238v-176h-225l4 -62h264v-189h-486zM479 486l-109 -215h130l-15 215h-6zM389 751v101h357v-101h-357z" />
    <glyph glyph-name="aemacron" unicode="&#x1e3;" horiz-adv-x="963" 
d="M283 543q141 0 208 -79q62 79 180 79q133 0 202 -75t69 -202q0 -18 -4 -60h-333q28 -57 145 -57q64 0 139 25l26 -150q-94 -37 -212 -37q-150 0 -222 88q-74 -88 -234 -88q-107 0 -168 48.5t-61 121.5q0 84 59 127.5t169 43.5q58 0 104 -10v5q0 49 -93 49q-90 0 -166 -29
l-35 158q108 42 227 42zM359 197v18q-15 3 -37 3q-29 0 -45.5 -13t-16.5 -36q0 -18 11.5 -29.5t32.5 -11.5q55 0 55 69zM594 325h132q-9 70 -63 70t-69 -70zM300 609v101h357v-101h-357z" />
    <glyph glyph-name="Gcaron" unicode="&#x1e6;" horiz-adv-x="730" 
d="M465 375h227v-337q-117 -51 -281 -51q-169 0 -276.5 93.5t-107.5 255.5q0 161 110 257t286 96q119 0 240 -32l-33 -186q-82 24 -156 24q-182 0 -182 -159q0 -75 44.5 -115t104.5 -40q10 0 24 2v192zM613 891l-119 -155h-194l-119 155h145l71 -70l71 70h145z" />
    <glyph glyph-name="gcaron" unicode="&#x1e7;" horiz-adv-x="702" 
d="M408 530h245v-446q0 -154 -73 -222.5t-239 -68.5q-268 0 -268 142q0 47 31.5 83t89.5 54q-77 17 -124 81.5t-47 150.5q0 101 63 170t161 69q97 0 161 -69v56zM340 366q-30 0 -49 -24t-19 -59t19 -59.5t49 -24.5t49.5 24.5t19.5 59.5t-19.5 59t-49.5 24zM404 -2v70
q-4 0 -10.5 -1t-23.5 -6.5t-30 -13.5t-23.5 -23t-10.5 -35q0 -51 47 -51q51 0 51 60zM562 745l-119 -155h-194l-119 155h145l71 -70l71 70h145z" />
    <glyph glyph-name="Kcaron" unicode="&#x1e8;" horiz-adv-x="750" 
d="M537 372l225 -372h-298l-145 275v-275h-261v676h261v-240l145 240h280zM594 891l-119 -155h-194l-119 155h145l71 -70l71 70h145z" />
    <glyph glyph-name="kcaron" unicode="&#x1e9;" horiz-adv-x="684" 
d="M691 0h-271l-115 216v-216h-255v739h255v-380l108 171h257l-163 -216zM579 964l-119 -155h-194l-119 155h145l71 -70l71 70h145z" />
    <glyph glyph-name="Oogonek" unicode="&#x1ea;" horiz-adv-x="820" 
d="M577 -123l39 -25q-44 -63 -135 -63q-47 0 -81.5 20.5t-34.5 61.5q0 60 66 117q-7 -1 -21 -1q-173 0 -278 94.5t-105 256.5t105 256.5t278 94.5q172 0 277 -94.5t105 -256.5q0 -85 -29 -149t-72 -101.5t-109 -72.5q-105 -55 -105 -117q0 -41 45 -41q35 0 55 20zM410 181
q59 0 89 40.5t30 116.5t-30 116.5t-89 40.5t-89.5 -40.5t-30.5 -116.5t30.5 -116.5t89.5 -40.5z" />
    <glyph glyph-name="oogonek" unicode="&#x1eb;" horiz-adv-x="685" 
d="M504 -123l39 -25q-44 -63 -135 -63q-47 0 -81.5 20.5t-34.5 61.5q0 59 66 116h-15q-136 0 -228.5 75t-92.5 203t92.5 203t228.5 75q134 0 226.5 -75t92.5 -203q0 -160 -158 -247q-100 -56 -100 -120q0 -41 45 -41q35 0 55 20zM342 172q33 0 54 27t21 66t-21 66t-54 27
t-54 -27t-21 -66t21 -66t54 -27z" />
    <glyph glyph-name="Oogonekmacron" unicode="&#x1ec;" horiz-adv-x="820" 
d="M577 -123l39 -25q-44 -63 -135 -63q-47 0 -81.5 20.5t-34.5 61.5q0 60 66 117q-7 -1 -21 -1q-173 0 -278 94.5t-105 256.5t105 256.5t278 94.5q172 0 277 -94.5t105 -256.5q0 -85 -29 -149t-72 -101.5t-109 -72.5q-105 -55 -105 -117q0 -41 45 -41q35 0 55 20zM410 181
q59 0 89 40.5t30 116.5t-30 116.5t-89 40.5t-89.5 -40.5t-30.5 -116.5t30.5 -116.5t89.5 -40.5zM232 751v101h357v-101h-357z" />
    <glyph glyph-name="oogonekmacron" unicode="&#x1ed;" horiz-adv-x="685" 
d="M504 -123l39 -25q-44 -63 -135 -63q-47 0 -81.5 20.5t-34.5 61.5q0 59 66 116h-15q-136 0 -228.5 75t-92.5 203t92.5 203t228.5 75q134 0 226.5 -75t92.5 -203q0 -160 -158 -247q-100 -56 -100 -120q0 -41 45 -41q35 0 55 20zM342 172q33 0 54 27t21 66t-21 66t-54 27
t-54 -27t-21 -66t21 -66t54 -27zM164 609v101h357v-101h-357z" />
    <glyph glyph-name="Gacute" unicode="&#x1f4;" horiz-adv-x="730" 
d="M465 375h227v-337q-117 -51 -281 -51q-169 0 -276.5 93.5t-107.5 255.5q0 161 110 257t286 96q119 0 240 -32l-33 -186q-82 24 -156 24q-182 0 -182 -159q0 -75 44.5 -115t104.5 -40q10 0 24 2v192zM598 891l-164 -155h-145l110 155h199z" />
    <glyph glyph-name="gacute" unicode="&#x1f5;" horiz-adv-x="702" 
d="M408 530h245v-446q0 -154 -73 -222.5t-239 -68.5q-268 0 -268 142q0 47 31.5 83t89.5 54q-77 17 -124 81.5t-47 150.5q0 101 63 170t161 69q97 0 161 -69v56zM340 366q-30 0 -49 -24t-19 -59t19 -59.5t49 -24.5t49.5 24.5t19.5 59.5t-19.5 59t-49.5 24zM404 -2v70
q-4 0 -10.5 -1t-23.5 -6.5t-30 -13.5t-23.5 -23t-10.5 -35q0 -51 47 -51q51 0 51 60zM537 745l-164 -155h-145l110 155h199z" />
    <glyph glyph-name="Ngrave" unicode="&#x1f8;" horiz-adv-x="814" 
d="M517 676h239v-676h-247l-212 347v-347h-239v676h260l199 -345v345zM375 736l-164 155h199l110 -155h-145z" />
    <glyph glyph-name="ngrave" unicode="&#x1f9;" horiz-adv-x="699" 
d="M654 360v-360h-255v303q0 20 -14 34.5t-33 14.5t-33 -14.5t-14 -34.5v-303h-255v530h247v-52q65 65 166 65q81 0 136 -52.5t55 -130.5zM310 590l-164 155h199l110 -155h-145z" />
    <glyph glyph-name="Aringacute" unicode="&#x1fa;" horiz-adv-x="758" 
d="M578 1137l-164 -155h-145l110 155h199zM534 676l237 -676h-261l-31 113h-200l-30 -113h-262l236 676h311zM379 479l-57 -208h114zM379 711q-51 0 -87 31.5t-36 81.5t36 81.5t87 31.5t87 -31.5t36 -81.5t-36 -81.5t-87 -31.5zM379 873q-22 0 -37 -14t-15 -35t15 -35
t37 -14t37 14t15 35t-15 35t-37 14z" />
    <glyph glyph-name="aringacute" unicode="&#x1fb;" horiz-adv-x="649" 
d="M515 1019l-164 -155h-145l110 155h199zM312 543q294 0 294 -230v-313h-252v49q-67 -62 -155 -62q-78 0 -129 49.5t-51 120.5q0 84 59 127.5t169 43.5q58 0 104 -10v5q0 49 -93 49q-90 0 -166 -29l-35 158q108 42 255 42zM357 197v18q-15 3 -37 3q-29 0 -45.5 -13
t-16.5 -36q0 -18 11.5 -29.5t32.5 -11.5q55 0 55 69zM314 586q-51 0 -87 31.5t-36 81.5t36 81.5t87 31.5t87 -31.5t36 -81.5t-36 -81.5t-87 -31.5zM314 748q-22 0 -37 -14t-15 -35t15 -35t37 -14t37 14t15 35t-15 35t-37 14z" />
    <glyph glyph-name="AEacute" unicode="&#x1fc;" horiz-adv-x="1048" 
d="M520 0l-8 109h-224l-55 -109h-264l358 676h679v-190h-285l4 -59h238v-176h-225l4 -62h264v-189h-486zM479 486l-109 -215h130l-15 215h-6zM731 891l-164 -155h-145l110 155h199z" />
    <glyph glyph-name="aeacute" unicode="&#x1fd;" horiz-adv-x="963" 
d="M283 543q141 0 208 -79q62 79 180 79q133 0 202 -75t69 -202q0 -18 -4 -60h-333q28 -57 145 -57q64 0 139 25l26 -150q-94 -37 -212 -37q-150 0 -222 88q-74 -88 -234 -88q-107 0 -168 48.5t-61 121.5q0 84 59 127.5t169 43.5q58 0 104 -10v5q0 49 -93 49q-90 0 -166 -29
l-35 158q108 42 227 42zM359 197v18q-15 3 -37 3q-29 0 -45.5 -13t-16.5 -36q0 -18 11.5 -29.5t32.5 -11.5q55 0 55 69zM594 325h132q-9 70 -63 70t-69 -70zM686 745l-164 -155h-145l110 155h199z" />
    <glyph glyph-name="Oslashacute" unicode="&#x1fe;" horiz-adv-x="819" 
d="M410 689q108 0 193 -40l57 78l47 -35l-53 -71q138 -95 138 -283q0 -162 -105 -256.5t-277 -94.5q-108 0 -195 39l-57 -77l-47 34l53 72q-137 96 -137 283q0 162 105 256.5t278 94.5zM410 181q59 0 89 40.5t30 116.5q0 53 -16 91l-170 -230q27 -18 67 -18zM290 338
q0 -55 15 -91l170 230q-25 18 -65 18q-59 0 -89.5 -40.5t-30.5 -116.5zM607 891l-164 -155h-145l110 155h199z" />
    <glyph glyph-name="oslashacute" unicode="&#x1ff;" horiz-adv-x="684" 
d="M565 561l34 -29l-45 -53q108 -77 108 -214q0 -128 -92.5 -203t-226.5 -75q-98 0 -173 39l-50 -59l-34 29l45 53q-109 78 -109 216q0 128 92.5 203t228.5 75q95 0 173 -40zM267 265q0 -27 8 -46l110 129q-19 17 -43 17q-34 0 -54.5 -30t-20.5 -70zM342 165q34 0 54.5 30
t20.5 70q0 24 -7 44l-110 -129q16 -15 42 -15zM537 745l-164 -155h-145l110 155h199z" />
    <glyph glyph-name="Adblgrave" unicode="&#x200;" horiz-adv-x="758" 
d="M458 736l-164 155h199l110 -155h-145zM197 736l-164 155h199l110 -155h-145zM534 676l237 -676h-261l-31 113h-200l-30 -113h-262l236 676h311zM379 479l-57 -208h114z" />
    <glyph glyph-name="adblgrave" unicode="&#x201;" horiz-adv-x="649" 
d="M406 590l-164 155h199l110 -155h-145zM145 590l-164 155h199l110 -155h-145zM312 543q294 0 294 -230v-313h-252v49q-67 -62 -155 -62q-78 0 -129 49.5t-51 120.5q0 84 59 127.5t169 43.5q58 0 104 -10v5q0 49 -93 49q-90 0 -166 -29l-35 158q108 42 255 42zM357 197v18
q-15 3 -37 3q-29 0 -45.5 -13t-16.5 -36q0 -18 11.5 -29.5t32.5 -11.5q55 0 55 69z" />
    <glyph glyph-name="Ainvertedbreve" unicode="&#x202;" horiz-adv-x="758" 
d="M534 676l237 -676h-261l-31 113h-200l-30 -113h-262l236 676h311zM379 479l-57 -208h114zM566 736h-91q-7 30 -33.5 45t-62.5 15t-62.5 -15t-33.5 -45h-91q7 75 56.5 114.5t130.5 39.5t130.5 -39.5t56.5 -114.5z" />
    <glyph glyph-name="ainvertedbreve" unicode="&#x203;" horiz-adv-x="649" 
d="M312 543q294 0 294 -230v-313h-252v49q-67 -62 -155 -62q-78 0 -129 49.5t-51 120.5q0 84 59 127.5t169 43.5q58 0 104 -10v5q0 49 -93 49q-90 0 -166 -29l-35 158q108 42 255 42zM357 197v18q-15 3 -37 3q-29 0 -45.5 -13t-16.5 -36q0 -18 11.5 -29.5t32.5 -11.5
q55 0 55 69zM513 586h-91q-7 30 -33.5 45t-62.5 15t-62.5 -15t-33.5 -45h-91q7 75 56.5 114.5t130.5 39.5t130.5 -39.5t56.5 -114.5z" />
    <glyph glyph-name="Edblgrave" unicode="&#x204;" horiz-adv-x="658" 
d="M438 736l-164 155h199l110 -155h-145zM177 736l-164 155h199l110 -155h-145zM616 486h-304v-59h266v-176h-266v-62h304v-189h-558v676h558v-190z" />
    <glyph glyph-name="edblgrave" unicode="&#x205;" horiz-adv-x="612" 
d="M402 590l-164 155h199l110 -155h-145zM141 590l-164 155h199l110 -155h-145zM587 206q21 150 -48 243.5t-229 93.5q-120 0 -203.5 -75.5t-83.5 -196.5q0 -138 89 -211t226 -73q132 0 226 37l-26 150q-75 -25 -139 -25q-117 0 -145 57h333zM379 325h-132q15 70 69 70
t63 -70zM379 325h-132h132z" />
    <glyph glyph-name="Einvertedbreve" unicode="&#x206;" horiz-adv-x="658" 
d="M616 486h-304v-59h266v-176h-266v-62h304v-189h-558v676h558v-190zM527 736h-91q-7 30 -33.5 45t-62.5 15t-62.5 -15t-33.5 -45h-91q7 75 56.5 114.5t130.5 39.5t130.5 -39.5t56.5 -114.5z" />
    <glyph glyph-name="einvertedbreve" unicode="&#x207;" horiz-adv-x="612" 
d="M587 206q21 150 -48 243.5t-229 93.5q-120 0 -203.5 -75.5t-83.5 -196.5q0 -138 89 -211t226 -73q132 0 226 37l-26 150q-75 -25 -139 -25q-117 0 -145 57h333zM379 325h-132q15 70 69 70t63 -70zM379 325h-132h132zM492 586h-91q-7 30 -33.5 45t-62.5 15t-62.5 -15
t-33.5 -45h-91q7 75 56.5 114.5t130.5 39.5t130.5 -39.5t56.5 -114.5z" />
    <glyph glyph-name="Idblgrave" unicode="&#x208;" horiz-adv-x="377" 
d="M281 736l-164 155h199l110 -155h-145zM20 736l-164 155h199l110 -155h-145zM319 676v-676h-261v676h261z" />
    <glyph glyph-name="idblgrave" unicode="&#x209;" horiz-adv-x="355" 
d="M278 590l-164 155h199l110 -155h-145zM17 590l-164 155h199l110 -155h-145zM50 0v530h255v-530h-255z" />
    <glyph glyph-name="Iinvertedbreve" unicode="&#x20a;" horiz-adv-x="377" 
d="M319 676v-676h-261v676h261zM375 736h-91q-7 30 -33.5 45t-62.5 15t-62.5 -15t-33.5 -45h-91q7 75 56.5 114.5t130.5 39.5t130.5 -39.5t56.5 -114.5z" />
    <glyph glyph-name="iinvertedbreve" unicode="&#x20b;" horiz-adv-x="355" 
d="M50 0v530h255v-530h-255zM364 586h-91q-7 30 -33.5 45t-62.5 15t-62.5 -15t-33.5 -45h-91q7 75 56.5 114.5t130.5 39.5t130.5 -39.5t56.5 -114.5z" />
    <glyph glyph-name="Odblgrave" unicode="&#x20c;" horiz-adv-x="819" 
d="M495 736l-164 155h199l110 -155h-145zM234 736l-164 155h199l110 -155h-145zM410 689q172 0 277 -94.5t105 -256.5t-105 -256.5t-277 -94.5q-173 0 -278 94.5t-105 256.5t105 256.5t278 94.5zM410 181q59 0 89 40.5t30 116.5t-30 116.5t-89 40.5t-89.5 -40.5
t-30.5 -116.5t30.5 -116.5t89.5 -40.5z" />
    <glyph glyph-name="odblgrave" unicode="&#x20d;" horiz-adv-x="684" 
d="M428 590l-164 155h199l110 -155h-145zM167 590l-164 155h199l110 -155h-145zM343 543q134 0 226.5 -75t92.5 -203t-92.5 -203t-226.5 -75q-136 0 -228.5 75t-92.5 203t92.5 203t228.5 75zM342 172q33 0 54 27t21 66t-21 66t-54 27t-54 -27t-21 -66t21 -66t54 -27z" />
    <glyph glyph-name="Oinvertedbreve" unicode="&#x20e;" horiz-adv-x="819" 
d="M410 689q172 0 277 -94.5t105 -256.5t-105 -256.5t-277 -94.5q-173 0 -278 94.5t-105 256.5t105 256.5t278 94.5zM410 181q59 0 89 40.5t30 116.5t-30 116.5t-89 40.5t-89.5 -40.5t-30.5 -116.5t30.5 -116.5t89.5 -40.5zM596 736h-91q-7 30 -33.5 45t-62.5 15t-62.5 -15
t-33.5 -45h-91q7 75 56.5 114.5t130.5 39.5t130.5 -39.5t56.5 -114.5z" />
    <glyph glyph-name="oinvertedbreve" unicode="&#x20f;" horiz-adv-x="684" 
d="M343 543q134 0 226.5 -75t92.5 -203t-92.5 -203t-226.5 -75q-136 0 -228.5 75t-92.5 203t92.5 203t228.5 75zM342 172q33 0 54 27t21 66t-21 66t-54 27t-54 -27t-21 -66t21 -66t54 -27zM529 586h-91q-7 30 -33.5 45t-62.5 15t-62.5 -15t-33.5 -45h-91q7 75 56.5 114.5
t130.5 39.5t130.5 -39.5t56.5 -114.5z" />
    <glyph glyph-name="Rdblgrave" unicode="&#x210;" horiz-adv-x="742" 
d="M450 736l-164 155h199l110 -155h-145zM189 736l-164 155h199l110 -155h-145zM579 278q105 -20 140 -278h-259q-9 45 -17.5 78t-16 56.5t-19 38t-19 22.5t-23 11.5t-25 4t-31.5 0.5v-211h-251v669q116 20 260 20q385 0 385 -235q0 -120 -124 -176zM331 369q27 0 51 4.5
t46 21t22 44.5q0 37 -34.5 52.5t-77.5 15.5q-14 0 -30 -2v-135q7 -1 23 -1z" />
    <glyph glyph-name="rdblgrave" unicode="&#x211;" horiz-adv-x="477" 
d="M356 590l-164 155h199l110 -155h-145zM95 590l-164 155h199l110 -155h-145zM462 340q-75 10 -116 -27t-41 -115v-198h-255v530h238v-94q6 12 9 18.5t10 19.5t14 20.5l17.5 18.5t22.5 16t27 10t34 4.5t40 -5.5v-198z" />
    <glyph glyph-name="Rinvertedbreve" unicode="&#x212;" horiz-adv-x="742" 
d="M579 278q105 -20 140 -278h-259q-9 45 -17.5 78t-16 56.5t-19 38t-19 22.5t-23 11.5t-25 4t-31.5 0.5v-211h-251v669q116 20 260 20q385 0 385 -235q0 -120 -124 -176zM331 369q27 0 51 4.5t46 21t22 44.5q0 37 -34.5 52.5t-77.5 15.5q-14 0 -30 -2v-135q7 -1 23 -1z
M546 736h-91q-7 30 -33.5 45t-62.5 15t-62.5 -15t-33.5 -45h-91q7 75 56.5 114.5t130.5 39.5t130.5 -39.5t56.5 -114.5z" />
    <glyph glyph-name="rinvertedbreve" unicode="&#x213;" horiz-adv-x="477" 
d="M462 340q-75 10 -116 -27t-41 -115v-198h-255v530h238v-94q6 12 9 18.5t10 19.5t14 20.5l17.5 18.5t22.5 16t27 10t34 4.5t40 -5.5v-198zM446 586h-91q-7 30 -33.5 45t-62.5 15t-62.5 -15t-33.5 -45h-91q7 75 56.5 114.5t130.5 39.5t130.5 -39.5t56.5 -114.5z" />
    <glyph glyph-name="Udblgrave" unicode="&#x214;" horiz-adv-x="755" 
d="M466 736l-164 155h199l110 -155h-145zM205 736l-164 155h199l110 -155h-145zM443 676h261v-409q0 -141 -85 -210.5t-242 -69.5t-241.5 69.5t-84.5 210.5v409h261v-406q0 -41 13.5 -62.5t51.5 -21.5q39 0 52.5 21.5t13.5 62.5v406z" />
    <glyph glyph-name="udblgrave" unicode="&#x215;" horiz-adv-x="699" 
d="M437 590l-164 155h199l110 -155h-145zM176 590l-164 155h199l110 -155h-145zM45 170v360h255v-303q0 -20 14 -34.5t33 -14.5t33 14.5t14 34.5v303h255v-530h-247v52q-65 -65 -166 -65q-81 0 -136 52.5t-55 130.5z" />
    <glyph glyph-name="Uinvertedbreve" unicode="&#x216;" horiz-adv-x="755" 
d="M443 676h261v-409q0 -141 -85 -210.5t-242 -69.5t-241.5 69.5t-84.5 210.5v409h261v-406q0 -41 13.5 -62.5t51.5 -21.5q39 0 52.5 21.5t13.5 62.5v406zM564 736h-91q-7 30 -33.5 45t-62.5 15t-62.5 -15t-33.5 -45h-91q7 75 56.5 114.5t130.5 39.5t130.5 -39.5
t56.5 -114.5z" />
    <glyph glyph-name="uinvertedbreve" unicode="&#x217;" horiz-adv-x="699" 
d="M45 170v360h255v-303q0 -20 14 -34.5t33 -14.5t33 14.5t14 34.5v303h255v-530h-247v52q-65 -65 -166 -65q-81 0 -136 52.5t-55 130.5zM534 586h-91q-7 30 -33.5 45t-62.5 15t-62.5 -15t-33.5 -45h-91q7 75 56.5 114.5t130.5 39.5t130.5 -39.5t56.5 -114.5z" />
    <glyph glyph-name="Scommaaccent" unicode="&#x218;" horiz-adv-x="635" 
d="M286 483q0 -13 33.5 -22l80.5 -21t94.5 -33t81 -67t33.5 -113q0 -121 -78 -180.5t-216 -59.5q-152 0 -281 51l41 183q114 -55 223 -55q56 0 56 25q0 13 -33 21.5l-80 20.5t-93.5 33t-79.5 70t-32 120q1 111 78.5 172t209.5 61q126 0 259 -39l-41 -182q-88 40 -200 40
q-56 0 -56 -25zM232 -73h186v-144l-89 -131h-92l72 117h-77v158z" />
    <glyph glyph-name="scommaaccent" unicode="&#x219;" horiz-adv-x="547" 
d="M287 369q0 -8 17.5 -14t43.5 -10t56 -15t56 -27.5t43.5 -50.5t17.5 -80q0 -92 -68 -138.5t-189 -46.5q-127 0 -241 61l23 152q81 -54 180 -54q42 0 42 20q0 8 -23.5 13.5l-57 13.5t-67 23t-57 51.5t-23.5 89.5q0 92 70 139t191 47q103 0 204 -43l-22 -145q-72 32 -143 32
q-53 0 -53 -18zM188 -73h186v-144l-89 -131h-92l72 117h-77v158z" />
    <glyph glyph-name="uni021A" unicode="&#x21a;" horiz-adv-x="665" 
d="M463 483v-483h-261v483h-192v193h645v-193h-192zM242 -73h186v-144l-89 -131h-92l72 117h-77v158z" />
    <glyph glyph-name="uni021B" unicode="&#x21b;" horiz-adv-x="469" 
d="M27 355v175h55v123h255v-123h92v-175h-92v-141q0 -29 18 -43t44 -14q11 0 27 2l20 -141q-71 -31 -171 -31q-193 0 -193 165v203h-55zM152 -73h186v-144l-89 -131h-92l72 117h-77v158z" />
    <glyph glyph-name="circumflex" unicode="&#x2c6;" horiz-adv-x="536" 
d="M363 745l119 -155h-145l-71 70l-71 -70h-145l119 155h194z" />
    <glyph glyph-name="caron" unicode="&#x2c7;" horiz-adv-x="529" 
d="M482 745l-119 -155h-194l-119 155h145l71 -70l71 70h145z" />
    <glyph glyph-name="breve" unicode="&#x2d8;" horiz-adv-x="481" 
d="M336 740h91q-7 -75 -56.5 -114.5t-130.5 -39.5t-130.5 39.5t-56.5 114.5h91q7 -30 33.5 -45t62.5 -15t62.5 15t33.5 45z" />
    <glyph glyph-name="dotaccent" unicode="&#x2d9;" horiz-adv-x="351" 
d="M92 598v131h163v-131h-163z" />
    <glyph glyph-name="ring" unicode="&#x2da;" horiz-adv-x="376" 
d="M187 586q-51 0 -87 31.5t-36 81.5t36 81.5t87 31.5t87 -31.5t36 -81.5t-36 -81.5t-87 -31.5zM187 748q-22 0 -37 -14t-15 -35t15 -35t37 -14t37 14t15 35t-15 35t-37 14z" />
    <glyph glyph-name="ogonek" unicode="&#x2db;" horiz-adv-x="342" 
d="M266 -123l39 -25q-44 -63 -135 -63q-47 0 -81.5 20.5t-34.5 61.5q0 43 33 81.5t67 59.5h91q-79 -58 -79 -114q0 -41 45 -41q35 0 55 20z" />
    <glyph glyph-name="tilde" unicode="&#x2dc;" horiz-adv-x="531" 
d="M67 588q0 54 35 104t91 50q43 0 88 -25t60 -25t29 16t20 39h83q-1 -59 -38 -110.5t-90 -51.5q-41 0 -84.5 24.5t-65.5 24.5q-16 0 -28.5 -13.5t-18.5 -32.5h-81z" />
    <glyph glyph-name="hungarumlaut" unicode="&#x2dd;" horiz-adv-x="667" 
d="M363 745l-164 -155h-145l110 155h199zM624 745l-164 -155h-145l110 155h199z" />
    <glyph glyph-name="doublegrave" unicode="&#x30f;" horiz-adv-x="677" 
d="M479 590l-164 155h199l110 -155h-145zM218 590l-164 155h199l110 -155h-145z" />
    <glyph glyph-name="invertedbreve" unicode="&#x311;" horiz-adv-x="491" 
d="M427 586h-91q-7 30 -33.5 45t-62.5 15t-62.5 -15t-33.5 -45h-91q7 75 56.5 114.5t130.5 39.5t130.5 -39.5t56.5 -114.5z" />
    <glyph glyph-name="pi" unicode="&#x3c0;" horiz-adv-x="761" 
d="M730 154l24 -103q-69 -59 -172 -59q-74 0 -109.5 42.5t-35.5 110.5v235h-110v-380h-166v380h-8q-69 0 -123 -30l-34 136q79 44 169 44h539v-150h-101v-217q0 -40 50 -40q41 0 77 31z" />
    <glyph glyph-name="Aringbelow" unicode="&#x1e00;" horiz-adv-x="758" 
d="M534 676l237 -676h-261l-31 113h-200l-30 -113h-262l236 676h311zM379 479l-57 -208h114zM379 -283q-51 0 -87 31.5t-36 81.5t36 81.5t87 31.5t87 -31.5t36 -81.5t-36 -81.5t-87 -31.5zM379 -121q-22 0 -37 -14t-15 -35t15 -35t37 -14t37 14t15 35t-15 35t-37 14z" />
    <glyph glyph-name="aringbelow" unicode="&#x1e01;" horiz-adv-x="649" 
d="M312 543q294 0 294 -230v-313h-252v49q-67 -62 -155 -62q-78 0 -129 49.5t-51 120.5q0 84 59 127.5t169 43.5q58 0 104 -10v5q0 49 -93 49q-90 0 -166 -29l-35 158q108 42 255 42zM357 197v18q-15 3 -37 3q-29 0 -45.5 -13t-16.5 -36q0 -18 11.5 -29.5t32.5 -11.5
q55 0 55 69zM320 -283q-51 0 -87 31.5t-36 81.5t36 81.5t87 31.5t87 -31.5t36 -81.5t-36 -81.5t-87 -31.5zM320 -121q-22 0 -37 -14t-15 -35t15 -35t37 -14t37 14t15 35t-15 35t-37 14z" />
    <glyph glyph-name="Bdotaccent" unicode="&#x1e02;" horiz-adv-x="716" 
d="M696 189q0 -60 -31.5 -101.5t-90 -62.5t-125 -29.5t-153.5 -8.5q-126 0 -238 14v671q131 17 235 17q72 0 132.5 -9t116.5 -30t88 -63t32 -101q0 -98 -91 -143q43 -9 84 -49t41 -105zM306 522v-111q9 -1 37 -1q87 0 87 59q0 55 -84 55q-20 0 -40 -2zM351 158q39 0 69.5 14
t30.5 47q0 62 -103 62q-22 0 -42 -2v-120q7 -1 45 -1zM249 744v131h163v-131h-163z" />
    <glyph glyph-name="bdotaccent" unicode="&#x1e03;" horiz-adv-x="704" 
d="M456 543q98 0 160.5 -80t62.5 -197t-62.5 -198t-160.5 -81q-97 0 -161 81v-68h-245v739h255v-263q62 67 151 67zM358 177q32 0 53 26t21 63t-21 63t-53 26t-53 -26t-21 -63t21 -63t53 -26zM357 767v131h163v-131h-163z" />
    <glyph glyph-name="Bdotbelow" unicode="&#x1e04;" horiz-adv-x="716" 
d="M269 -204v131h163v-131h-163zM696 189q0 -60 -31.5 -101.5t-90 -62.5t-125 -29.5t-153.5 -8.5q-126 0 -238 14v671q131 17 235 17q72 0 132.5 -9t116.5 -30t88 -63t32 -101q0 -98 -91 -143q43 -9 84 -49t41 -105zM306 522v-111q9 -1 37 -1q87 0 87 59q0 55 -84 55
q-20 0 -40 -2zM351 158q39 0 69.5 14t30.5 47q0 62 -103 62q-22 0 -42 -2v-120q7 -1 45 -1z" />
    <glyph glyph-name="bdotbelow" unicode="&#x1e05;" horiz-adv-x="704" 
d="M274 -204v131h163v-131h-163zM456 543q98 0 160.5 -80t62.5 -197t-62.5 -198t-160.5 -81q-97 0 -161 81v-68h-245v739h255v-263q62 67 151 67zM358 177q32 0 53 26t21 63t-21 63t-53 26t-53 -26t-21 -63t21 -63t53 -26z" />
    <glyph glyph-name="Blinebelow" unicode="&#x1e06;" horiz-adv-x="716" 
d="M180 -174v101h357v-101h-357zM696 189q0 -60 -31.5 -101.5t-90 -62.5t-125 -29.5t-153.5 -8.5q-126 0 -238 14v671q131 17 235 17q72 0 132.5 -9t116.5 -30t88 -63t32 -101q0 -98 -91 -143q43 -9 84 -49t41 -105zM306 522v-111q9 -1 37 -1q87 0 87 59q0 55 -84 55
q-20 0 -40 -2zM351 158q39 0 69.5 14t30.5 47q0 62 -103 62q-22 0 -42 -2v-120q7 -1 45 -1z" />
    <glyph glyph-name="blinebelow" unicode="&#x1e07;" horiz-adv-x="704" 
d="M165 -174v101h357v-101h-357zM456 543q98 0 160.5 -80t62.5 -197t-62.5 -198t-160.5 -81q-97 0 -161 81v-68h-245v739h255v-263q62 67 151 67zM358 177q32 0 53 26t21 63t-21 63t-53 26t-53 -26t-21 -63t21 -63t53 -26z" />
    <glyph glyph-name="Ccedillaacute" unicode="&#x1e08;" horiz-adv-x="665" 
d="M225 -207l26 58q122 -26 122 26q0 30 -86 35l46 80q-140 18 -222.5 109.5t-82.5 236.5q0 162 102 256.5t270 94.5q119 0 245 -42l-50 -182q-59 25 -130 25q-82 0 -127 -40t-45 -112t45 -112t127 -40q71 0 130 25l50 -182q-122 -41 -243 -42l-29 -45q49 -2 83 -25t34 -59
q0 -40 -32.5 -65.5t-92.5 -25.5q-74 0 -140 26zM586 891l-164 -155h-145l110 155h199z" />
    <glyph glyph-name="ccedillaacute" unicode="&#x1e09;" horiz-adv-x="539" 
d="M155 -207l26 58q122 -26 122 26q0 30 -86 35l46 79q-111 16 -175 89.5t-64 184.5q0 124 80.5 201t216.5 77q92 0 196 -36l-33 -164q-50 21 -102 21q-58 0 -83 -28t-25 -68q0 -39 25 -68t83 -29q54 0 102 22l33 -171q-96 -33 -185 -35l-29 -45q49 -2 83 -25t34 -59
q0 -40 -32.5 -65.5t-92.5 -25.5q-74 0 -140 26zM495 745l-164 -155h-145l110 155h199z" />
    <glyph glyph-name="Ddotaccent" unicode="&#x1e0a;" horiz-adv-x="782" 
d="M318 689q198 0 317.5 -93.5t119.5 -261.5q0 -86 -31.5 -150.5t-78.5 -101t-113 -59t-124 -29.5t-122 -7q-97 0 -228 14v671q114 17 260 17zM318 179q8 -1 30 -1q73 0 108.5 45.5t35.5 122.5q0 75 -37 116.5t-105 41.5q-24 0 -32 -1v-324zM268 744v131h163v-131h-163z" />
    <glyph glyph-name="ddotaccent" unicode="&#x1e0b;" horiz-adv-x="704" 
d="M257 543q83 0 142 -65v261h255v-739h-245v68q-64 -81 -161 -81q-98 0 -160.5 81t-62.5 198t65.5 197t166.5 80zM346 177q32 0 53 26t21 63t-21 63t-53 26t-53 -26t-21 -63t21 -63t53 -26zM180 767v131h163v-131h-163z" />
    <glyph glyph-name="Ddotbelow" unicode="&#x1e0c;" horiz-adv-x="782" 
d="M278 -204v131h163v-131h-163zM318 689q198 0 317.5 -93.5t119.5 -261.5q0 -86 -31.5 -150.5t-78.5 -101t-113 -59t-124 -29.5t-122 -7q-97 0 -228 14v671q114 17 260 17zM318 179q8 -1 30 -1q73 0 108.5 45.5t35.5 122.5q0 75 -37 116.5t-105 41.5q-24 0 -32 -1v-324z
" />
    <glyph glyph-name="ddotbelow" unicode="&#x1e0d;" horiz-adv-x="704" 
d="M270 -204v131h163v-131h-163zM257 543q83 0 142 -65v261h255v-739h-245v68q-64 -81 -161 -81q-98 0 -160.5 81t-62.5 198t65.5 197t166.5 80zM346 177q32 0 53 26t21 63t-21 63t-53 26t-53 -26t-21 -63t21 -63t53 -26z" />
    <glyph glyph-name="Dlinebelow" unicode="&#x1e0e;" horiz-adv-x="782" 
d="M188 -174v101h357v-101h-357zM318 689q198 0 317.5 -93.5t119.5 -261.5q0 -86 -31.5 -150.5t-78.5 -101t-113 -59t-124 -29.5t-122 -7q-97 0 -228 14v671q114 17 260 17zM318 179q8 -1 30 -1q73 0 108.5 45.5t35.5 122.5q0 75 -37 116.5t-105 41.5q-24 0 -32 -1v-324z
" />
    <glyph glyph-name="dlinebelow" unicode="&#x1e0f;" horiz-adv-x="704" 
d="M173 -174v101h357v-101h-357zM257 543q83 0 142 -65v261h255v-739h-245v68q-64 -81 -161 -81q-98 0 -160.5 81t-62.5 198t65.5 197t166.5 80zM346 177q32 0 53 26t21 63t-21 63t-53 26t-53 -26t-21 -63t21 -63t53 -26z" />
    <glyph glyph-name="Dcedilla" unicode="&#x1e10;" horiz-adv-x="782" 
d="M226 -207l26 58q122 -26 122 26q0 30 -86 35l44 76q-8 0 -23.5 -0.5t-22.5 -0.5q-97 0 -228 14v671q114 17 260 17q198 0 317.5 -93.5t119.5 -261.5q0 -86 -29.5 -150t-82 -102t-109.5 -58t-126 -29l-34 -53q49 -2 83 -25t34 -59q0 -40 -32.5 -65.5t-92.5 -25.5
q-74 0 -140 26zM318 179q8 -1 30 -1q73 0 108.5 45.5t35.5 122.5q0 75 -37 116.5t-105 41.5q-24 0 -32 -1v-324z" />
    <glyph glyph-name="dcedilla" unicode="&#x1e11;" horiz-adv-x="704" 
d="M162 -206l26 58q122 -26 122 26q0 30 -86 35l44 75q-4 0 -10.5 -0.5t-9.5 -0.5q-98 0 -160.5 81t-62.5 198t65.5 197t166.5 80q83 0 142 -65v261h255v-739h-245v68q-23 -28 -46 -44l-53 -81q49 -2 83 -25t34 -59q0 -40 -32.5 -65.5t-92.5 -25.5q-74 0 -140 26zM346 177
q32 0 53 26t21 63t-21 63t-53 26t-53 -26t-21 -63t21 -63t53 -26z" />
    <glyph glyph-name="Dcircumflexbelow" unicode="&#x1e12;" horiz-adv-x="782" 
d="M466 -73l119 -155h-145l-71 70l-71 -70h-145l119 155h194zM318 689q198 0 317.5 -93.5t119.5 -261.5q0 -86 -31.5 -150.5t-78.5 -101t-113 -59t-124 -29.5t-122 -7q-97 0 -228 14v671q114 17 260 17zM318 179q8 -1 30 -1q73 0 108.5 45.5t35.5 122.5q0 75 -37 116.5
t-105 41.5q-24 0 -32 -1v-324z" />
    <glyph glyph-name="dcircumflexbelow" unicode="&#x1e13;" horiz-adv-x="704" 
d="M445 -73l119 -155h-145l-71 70l-71 -70h-145l119 155h194zM257 543q83 0 142 -65v261h255v-739h-245v68q-64 -81 -161 -81q-98 0 -160.5 81t-62.5 198t65.5 197t166.5 80zM346 177q32 0 53 26t21 63t-21 63t-53 26t-53 -26t-21 -63t21 -63t53 -26z" />
    <glyph glyph-name="Emacrongrave" unicode="&#x1e14;" horiz-adv-x="658" 
d="M616 486h-304v-59h266v-176h-266v-62h304v-189h-558v676h558v-190zM309 886l-164 155h199l110 -155h-145zM163 739v101h357v-101h-357z" />
    <glyph glyph-name="emacrongrave" unicode="&#x1e15;" horiz-adv-x="612" 
d="M587 206q21 150 -48 243.5t-229 93.5q-120 0 -203.5 -75.5t-83.5 -196.5q0 -138 89 -211t226 -73q132 0 226 37l-26 150q-75 -25 -139 -25q-117 0 -145 57h333zM379 325h-132q15 70 69 70t63 -70zM379 325h-132h132zM272 747l-164 155h199l110 -155h-145zM126 600v101
h357v-101h-357z" />
    <glyph glyph-name="Emacronacute" unicode="&#x1e16;" horiz-adv-x="658" 
d="M550 1041l-164 -155h-145l110 155h199zM616 486h-304v-59h266v-176h-266v-62h304v-189h-558v676h558v-190zM163 739v101h357v-101h-357z" />
    <glyph glyph-name="emacronacute" unicode="&#x1e17;" horiz-adv-x="612" 
d="M508 902l-164 -155h-145l110 155h199zM587 206q21 150 -48 243.5t-229 93.5q-120 0 -203.5 -75.5t-83.5 -196.5q0 -138 89 -211t226 -73q132 0 226 37l-26 150q-75 -25 -139 -25q-117 0 -145 57h333zM379 325h-132q15 70 69 70t63 -70zM379 325h-132h132zM126 600v101
h357v-101h-357z" />
    <glyph glyph-name="Ecircumflexbelow" unicode="&#x1e18;" horiz-adv-x="658" 
d="M435 -73l119 -155h-145l-71 70l-71 -70h-145l119 155h194zM616 486h-304v-59h266v-176h-266v-62h304v-189h-558v676h558v-190z" />
    <glyph glyph-name="ecircumflexbelow" unicode="&#x1e19;" horiz-adv-x="612" 
d="M412 -73l119 -155h-145l-71 70l-71 -70h-145l119 155h194zM587 206h-333q28 -57 145 -57q64 0 139 25l26 -150q-94 -37 -226 -37q-137 0 -226 73t-89 211q0 121 83.5 196.5t203.5 75.5q160 0 229 -93.5t48 -243.5zM247 325h132q-9 70 -63 70t-69 -70zM247 325h132h-132z
" />
    <glyph glyph-name="Etildebelow" unicode="&#x1e1a;" horiz-adv-x="658" 
d="M129 -226q0 54 35 104t91 50q43 0 88 -25t60 -25t29 16t20 39h83q-1 -59 -38 -110.5t-90 -51.5q-41 0 -84.5 24.5t-65.5 24.5q-16 0 -28.5 -13.5t-18.5 -32.5h-81zM616 486h-304v-59h266v-176h-266v-62h304v-189h-558v676h558v-190z" />
    <glyph glyph-name="etildebelow" unicode="&#x1e1b;" horiz-adv-x="612" 
d="M114 -226q0 54 35 104t91 50q43 0 88 -25t60 -25t29 16t20 39h83q-1 -59 -38 -110.5t-90 -51.5q-41 0 -84.5 24.5t-65.5 24.5q-16 0 -28.5 -13.5t-18.5 -32.5h-81zM587 206h-333q28 -57 145 -57q64 0 139 25l26 -150q-94 -37 -226 -37q-137 0 -226 73t-89 211
q0 121 83.5 196.5t203.5 75.5q160 0 229 -93.5t48 -243.5zM247 325h132q-9 70 -63 70t-69 -70zM247 325h132h-132z" />
    <glyph glyph-name="Ecedillabreve" unicode="&#x1e1c;" horiz-adv-x="658" 
d="M193 -207l26 58q122 -26 122 26q0 30 -86 35l51 88h-248v676h558v-190h-304v-59h266v-176h-266v-62h304v-189h-237l-38 -58q49 -2 83 -25t34 -59q0 -40 -32.5 -65.5t-92.5 -25.5q-74 0 -140 26zM435 886h91q-7 -75 -56.5 -114.5t-130.5 -39.5t-130.5 39.5t-56.5 114.5h91
q7 -30 33.5 -45t62.5 -15t62.5 15t33.5 45z" />
    <glyph glyph-name="ecedillabreve" unicode="&#x1e1d;" horiz-adv-x="613" 
d="M311 543q160 0 229 -93.5t48 -243.5h-333q28 -57 145 -57q64 0 139 25l26 -150q-93 -37 -222 -37l-29 -45q49 -2 83 -25t34 -59q0 -40 -32.5 -65.5t-92.5 -25.5q-74 0 -140 26l26 58q122 -26 122 26q0 30 -86 35l46 79q-112 17 -181 88t-69 192t83.5 196.5t203.5 75.5z
M248 325h132q-9 70 -63 70t-69 -70zM315 586q-81 0 -130.5 39.5t-56.5 114.5h91q7 -30 33.5 -45t62.5 -15t62.5 15t33.5 45h91q-7 -75 -56.5 -114.5t-130.5 -39.5z" />
    <glyph glyph-name="Fdotaccent" unicode="&#x1e1e;" horiz-adv-x="612" 
d="M588 484h-272v-83h238v-199h-238v-202h-258v676h530v-192zM242 744v131h163v-131h-163z" />
    <glyph glyph-name="fdotaccent" unicode="&#x1e1f;" horiz-adv-x="442" 
d="M297 752q85 0 147 -25l-17 -140q-14 2 -24 2q-19 0 -30.5 -2.5t-21.5 -15.5t-10 -37v-4h84v-175h-84v-355h-255v355h-56v175h56v2q0 63 18 108t49.5 68.5t66.5 33.5t77 10zM165 810v131h163v-131h-163z" />
    <glyph glyph-name="Gmacron" unicode="&#x1e20;" horiz-adv-x="730" 
d="M465 375h227v-337q-117 -51 -281 -51q-169 0 -276.5 93.5t-107.5 255.5q0 161 110 257t286 96q119 0 240 -32l-33 -186q-82 24 -156 24q-182 0 -182 -159q0 -75 44.5 -115t104.5 -40q10 0 24 2v192zM217 751v101h357v-101h-357z" />
    <glyph glyph-name="gmacron" unicode="&#x1e21;" horiz-adv-x="702" 
d="M408 530h245v-446q0 -154 -73 -222.5t-239 -68.5q-268 0 -268 142q0 47 31.5 83t89.5 54q-77 17 -124 81.5t-47 150.5q0 101 63 170t161 69q97 0 161 -69v56zM340 366q-30 0 -49 -24t-19 -59t19 -59.5t49 -24.5t49.5 24.5t19.5 59.5t-19.5 59t-49.5 24zM404 -2v70
q-4 0 -10.5 -1t-23.5 -6.5t-30 -13.5t-23.5 -23t-10.5 -35q0 -51 47 -51q51 0 51 60zM169 609v101h357v-101h-357z" />
    <glyph glyph-name="Hdotaccent" unicode="&#x1e22;" horiz-adv-x="802" 
d="M485 676h259v-676h-259v251h-168v-251h-259v676h259v-243h168v243zM320 744v131h163v-131h-163z" />
    <glyph glyph-name="hdotaccent" unicode="&#x1e23;" horiz-adv-x="699" 
d="M654 360v-360h-255v303q0 20 -14 34.5t-33 14.5t-33 -14.5t-14 -34.5v-303h-255v739h255v-258q60 62 158 62q81 0 136 -52.5t55 -130.5zM98 810v131h163v-131h-163z" />
    <glyph glyph-name="Hdotbelow" unicode="&#x1e24;" horiz-adv-x="802" 
d="M319 -204v131h163v-131h-163zM485 676h259v-676h-259v251h-168v-251h-259v676h259v-243h168v243z" />
    <glyph glyph-name="hdotbelow" unicode="&#x1e25;" horiz-adv-x="699" 
d="M271 -204v131h163v-131h-163zM654 360v-360h-255v303q0 20 -14 34.5t-33 14.5t-33 -14.5t-14 -34.5v-303h-255v739h255v-258q60 62 158 62q81 0 136 -52.5t55 -130.5z" />
    <glyph glyph-name="Hdieresis" unicode="&#x1e26;" horiz-adv-x="802" 
d="M485 676h259v-676h-259v251h-168v-251h-259v676h259v-243h168v243zM194 744v131h163v-131h-163zM446 744v131h163v-131h-163z" />
    <glyph glyph-name="hdieresis" unicode="&#x1e27;" horiz-adv-x="699" 
d="M654 360v-360h-255v303q0 20 -14 34.5t-33 14.5t-33 -14.5t-14 -34.5v-303h-255v739h255v-258q60 62 158 62q81 0 136 -52.5t55 -130.5zM158 813v131h163v-131h-163zM410 813v131h163v-131h-163z" />
    <glyph glyph-name="Hcedilla" unicode="&#x1e28;" horiz-adv-x="802" 
d="M52 -207l26 58q122 -26 122 26q0 30 -86 35l51 88h-107v676h259v-243h168v243h259v-676h-259v251h-168v-251h-79l-38 -58q49 -2 83 -25t34 -59q0 -40 -32.5 -65.5t-92.5 -25.5q-74 0 -140 26z" />
    <glyph glyph-name="hcedilla" unicode="&#x1e29;" horiz-adv-x="699" 
d="M41 -207l26 58q122 -26 122 26q0 30 -86 35l51 88h-104v739h255v-258q60 62 158 62q81 0 136 -52.5t55 -130.5v-360h-255v303q0 20 -14 34.5t-33 14.5t-33 -14.5t-14 -34.5v-303h-78l-38 -58q49 -2 83 -25t34 -59q0 -40 -32.5 -65.5t-92.5 -25.5q-74 0 -140 26z" />
    <glyph glyph-name="Hbrevebelow" unicode="&#x1e2a;" horiz-adv-x="802" 
d="M497 -71h91q-7 -75 -56.5 -114.5t-130.5 -39.5t-130.5 39.5t-56.5 114.5h91q7 -30 33.5 -45t62.5 -15t62.5 15t33.5 45zM485 676h259v-676h-259v251h-168v-251h-259v676h259v-243h168v243z" />
    <glyph glyph-name="hbrevebelow" unicode="&#x1e2b;" horiz-adv-x="699" 
d="M448 -71h91q-7 -75 -56.5 -114.5t-130.5 -39.5t-130.5 39.5t-56.5 114.5h91q7 -30 33.5 -45t62.5 -15t62.5 15t33.5 45zM654 360v-360h-255v303q0 20 -14 34.5t-33 14.5t-33 -14.5t-14 -34.5v-303h-255v739h255v-258q60 62 158 62q81 0 136 -52.5t55 -130.5z" />
    <glyph glyph-name="Itildebelow" unicode="&#x1e2c;" horiz-adv-x="377" 
d="M-7 -226q0 54 35 104t91 50q43 0 88 -25t60 -25t29 16t20 39h83q-1 -59 -38 -110.5t-90 -51.5q-41 0 -84.5 24.5t-65.5 24.5q-16 0 -28.5 -13.5t-18.5 -32.5h-81zM319 676v-676h-261v676h261z" />
    <glyph glyph-name="itildebelow" unicode="&#x1e2d;" horiz-adv-x="355" 
d="M-21 -226q0 54 35 104t91 50q43 0 88 -25t60 -25t29 16t20 39h83q-1 -59 -38 -110.5t-90 -51.5q-41 0 -84.5 24.5t-65.5 24.5q-16 0 -28.5 -13.5t-18.5 -32.5h-81zM50 0v530h255v-530h-255zM308 739v-158h-261v158h261z" />
    <glyph glyph-name="Idieresisacute" unicode="&#x1e2e;" horiz-adv-x="377" 
d="M319 676v-676h-261v676h261zM-19 734v131h163v-131h-163zM233 734v131h163v-131h-163zM377 1065l-164 -155h-145l110 155h199z" />
    <glyph glyph-name="idieresisacute" unicode="&#x1e2f;" horiz-adv-x="355" 
d="M50 0v530h255v-530h-255zM-30 598v131h163v-131h-163zM222 598v131h163v-131h-163zM366 935l-164 -155h-145l110 155h199z" />
    <glyph glyph-name="Kacute" unicode="&#x1e30;" horiz-adv-x="750" 
d="M537 372l225 -372h-298l-145 275v-275h-261v676h261v-240l145 240h280zM583 891l-164 -155h-145l110 155h199z" />
    <glyph glyph-name="kacute" unicode="&#x1e31;" horiz-adv-x="684" 
d="M691 0h-271l-115 216v-216h-255v739h255v-380l108 171h257l-163 -216zM431 966l-164 -155h-145l110 155h199z" />
    <glyph glyph-name="Kdotbelow" unicode="&#x1e32;" horiz-adv-x="750" 
d="M307 -204v131h163v-131h-163zM537 372l225 -372h-298l-145 275v-275h-261v676h261v-240l145 240h280z" />
    <glyph glyph-name="kdotbelow" unicode="&#x1e33;" horiz-adv-x="684" 
d="M277 -204v131h163v-131h-163zM691 0h-271l-115 216v-216h-255v739h255v-380l108 171h257l-163 -216z" />
    <glyph glyph-name="Klinebelow" unicode="&#x1e34;" horiz-adv-x="750" 
d="M203 -174v101h357v-101h-357zM537 372l225 -372h-298l-145 275v-275h-261v676h261v-240l145 240h280z" />
    <glyph glyph-name="klinebelow" unicode="&#x1e35;" horiz-adv-x="684" 
d="M165 -174v101h357v-101h-357zM691 0h-271l-115 216v-216h-255v739h255v-380l108 171h257l-163 -216z" />
    <glyph glyph-name="Ldotbelow" unicode="&#x1e36;" horiz-adv-x="585" 
d="M243 -204v131h163v-131h-163zM319 676v-486h256v-190h-517v676h261z" />
    <glyph glyph-name="ldotbelow" unicode="&#x1e37;" horiz-adv-x="355" 
d="M96 -204v131h163v-131h-163zM50 0v739h255v-739h-255z" />
    <glyph glyph-name="Ldotbelowmacron" unicode="&#x1e38;" horiz-adv-x="585" 
d="M243 -204v131h163v-131h-163zM319 676v-486h256v-190h-517v676h261zM147 751v101h357v-101h-357z" />
    <glyph glyph-name="ldotbelowmacron" unicode="&#x1e39;" horiz-adv-x="355" 
d="M96 -204v131h163v-131h-163zM50 0v739h255v-739h-255zM-1 814v101h357v-101h-357z" />
    <glyph glyph-name="Llinebelow" unicode="&#x1e3a;" horiz-adv-x="585" 
d="M141 -174v101h357v-101h-357zM319 676v-486h256v-190h-517v676h261z" />
    <glyph glyph-name="llinebelow" unicode="&#x1e3b;" horiz-adv-x="355" 
d="M-1 -174v101h357v-101h-357zM50 0v739h255v-739h-255z" />
    <glyph glyph-name="Lcircumflexbelow" unicode="&#x1e3c;" horiz-adv-x="585" 
d="M415 -73l119 -155h-145l-71 70l-71 -70h-145l119 155h194zM319 676v-486h256v-190h-517v676h261z" />
    <glyph glyph-name="lcircumflexbelow" unicode="&#x1e3d;" horiz-adv-x="355" 
d="M274 -73l119 -155h-145l-71 70l-71 -70h-145l119 155h194zM50 0v739h255v-739h-255z" />
    <glyph glyph-name="Macute" unicode="&#x1e3e;" horiz-adv-x="879" 
d="M559 676h262v-676h-243v345l-136 -216h-6l-135 216v-345h-243v676h262l119 -221zM613 891l-164 -155h-145l110 155h199z" />
    <glyph glyph-name="macute" unicode="&#x1e3f;" horiz-adv-x="1038" 
d="M805 543q80 0 134 -52t54 -131v-360h-255v303q0 21 -12.5 35t-31.5 14t-32 -14.5t-13 -34.5v-303h-255v303q0 21 -12.5 35t-31.5 14t-32 -14.5t-13 -34.5v-303h-255v530h244v-54q62 67 167 67q101 0 155 -77q69 77 189 77zM755 745l-164 -155h-145l110 155h199z" />
    <glyph glyph-name="Mdotaccent" unicode="&#x1e40;" horiz-adv-x="879" 
d="M559 676h262v-676h-243v345l-136 -216h-6l-135 216v-345h-243v676h262l119 -221zM358 744v131h163v-131h-163z" />
    <glyph glyph-name="mdotaccent" unicode="&#x1e41;" horiz-adv-x="1038" 
d="M805 543q80 0 134 -52t54 -131v-360h-255v303q0 21 -12.5 35t-31.5 14t-32 -14.5t-13 -34.5v-303h-255v303q0 21 -12.5 35t-31.5 14t-32 -14.5t-13 -34.5v-303h-255v530h244v-54q62 67 167 67q101 0 155 -77q69 77 189 77zM445 598v131h163v-131h-163z" />
    <glyph glyph-name="Mdotbelow" unicode="&#x1e42;" horiz-adv-x="879" 
d="M358 -204v131h163v-131h-163zM559 676h262v-676h-243v345l-136 -216h-6l-135 216v-345h-243v676h262l119 -221z" />
    <glyph glyph-name="mdotbelow" unicode="&#x1e43;" horiz-adv-x="1038" 
d="M442 -204v131h163v-131h-163zM805 543q80 0 134 -52t54 -131v-360h-255v303q0 21 -12.5 35t-31.5 14t-32 -14.5t-13 -34.5v-303h-255v303q0 21 -12.5 35t-31.5 14t-32 -14.5t-13 -34.5v-303h-255v530h244v-54q62 67 167 67q101 0 155 -77q69 77 189 77z" />
    <glyph glyph-name="Ndotaccent" unicode="&#x1e44;" horiz-adv-x="814" 
d="M517 676h239v-676h-247l-212 347v-347h-239v676h260l199 -345v345zM324 744v131h163v-131h-163z" />
    <glyph glyph-name="ndotaccent" unicode="&#x1e45;" horiz-adv-x="699" 
d="M654 360v-360h-255v303q0 20 -14 34.5t-33 14.5t-33 -14.5t-14 -34.5v-303h-255v530h247v-52q65 65 166 65q81 0 136 -52.5t55 -130.5zM274 598v131h163v-131h-163z" />
    <glyph glyph-name="Ndotbelow" unicode="&#x1e46;" horiz-adv-x="814" 
d="M326 -204v131h163v-131h-163zM517 676h239v-676h-247l-212 347v-347h-239v676h260l199 -345v345z" />
    <glyph glyph-name="ndotbelow" unicode="&#x1e47;" horiz-adv-x="699" 
d="M270 -204v131h163v-131h-163zM654 360v-360h-255v303q0 20 -14 34.5t-33 14.5t-33 -14.5t-14 -34.5v-303h-255v530h247v-52q65 65 166 65q81 0 136 -52.5t55 -130.5z" />
    <glyph glyph-name="Nlinebelow" unicode="&#x1e48;" horiz-adv-x="814" 
d="M237 -174v101h357v-101h-357zM517 676h239v-676h-247l-212 347v-347h-239v676h260l199 -345v345z" />
    <glyph glyph-name="nlinebelow" unicode="&#x1e49;" horiz-adv-x="699" 
d="M172 -174v101h357v-101h-357zM654 360v-360h-255v303q0 20 -14 34.5t-33 14.5t-33 -14.5t-14 -34.5v-303h-255v530h247v-52q65 65 166 65q81 0 136 -52.5t55 -130.5z" />
    <glyph glyph-name="Ncircumflexbelow" unicode="&#x1e4a;" horiz-adv-x="814" 
d="M512 -73l119 -155h-145l-71 70l-71 -70h-145l119 155h194zM517 676h239v-676h-247l-212 347v-347h-239v676h260l199 -345v345z" />
    <glyph glyph-name="ncircumflexbelow" unicode="&#x1e4b;" horiz-adv-x="699" 
d="M451 -73l119 -155h-145l-71 70l-71 -70h-145l119 155h194zM654 360v-360h-255v303q0 20 -14 34.5t-33 14.5t-33 -14.5t-14 -34.5v-303h-255v530h247v-52q65 65 166 65q81 0 136 -52.5t55 -130.5z" />
    <glyph glyph-name="Otildeacute" unicode="&#x1e4c;" horiz-adv-x="819" 
d="M617 1089l-164 -155h-145l110 155h199zM410 689q172 0 277 -94.5t105 -256.5t-105 -256.5t-277 -94.5q-173 0 -278 94.5t-105 256.5t105 256.5t278 94.5zM410 181q59 0 89 40.5t30 116.5t-30 116.5t-89 40.5t-89.5 -40.5t-30.5 -116.5t30.5 -116.5t89.5 -40.5zM205 734
q0 54 35 104t91 50q43 0 88 -25t60 -25t29 16t20 39h83q-1 -59 -38 -110.5t-90 -51.5q-41 0 -84.5 24.5t-65.5 24.5q-16 0 -28.5 -13.5t-18.5 -32.5h-81z" />
    <glyph glyph-name="otildeacute" unicode="&#x1e4d;" horiz-adv-x="684" 
d="M547 947l-164 -155h-145l110 155h199zM343 543q134 0 226.5 -75t92.5 -203t-92.5 -203t-226.5 -75q-136 0 -228.5 75t-92.5 203t92.5 203t228.5 75zM342 172q33 0 54 27t21 66t-21 66t-54 27t-54 -27t-21 -66t21 -66t54 -27zM133 588q0 54 35 104t91 50q43 0 88 -25
t60 -25t29 16t20 39h83q-1 -59 -38 -110.5t-90 -51.5q-41 0 -84.5 24.5t-65.5 24.5q-16 0 -28.5 -13.5t-18.5 -32.5h-81z" />
    <glyph glyph-name="Otildedieresis" unicode="&#x1e4e;" horiz-adv-x="819" 
d="M204 942v131h163v-131h-163zM456 942v131h163v-131h-163zM410 689q172 0 277 -94.5t105 -256.5t-105 -256.5t-277 -94.5q-173 0 -278 94.5t-105 256.5t105 256.5t278 94.5zM410 181q59 0 89 40.5t30 116.5t-30 116.5t-89 40.5t-89.5 -40.5t-30.5 -116.5t30.5 -116.5
t89.5 -40.5zM205 734q0 54 35 104t91 50q43 0 88 -25t60 -25t29 16t20 39h83q-1 -59 -38 -110.5t-90 -51.5q-41 0 -84.5 24.5t-65.5 24.5q-16 0 -28.5 -13.5t-18.5 -32.5h-81z" />
    <glyph glyph-name="otildedieresis" unicode="&#x1e4f;" horiz-adv-x="684" 
d="M134 808v131h163v-131h-163zM386 808v131h163v-131h-163zM343 543q134 0 226.5 -75t92.5 -203t-92.5 -203t-226.5 -75q-136 0 -228.5 75t-92.5 203t92.5 203t228.5 75zM342 172q33 0 54 27t21 66t-21 66t-54 27t-54 -27t-21 -66t21 -66t54 -27zM133 588q0 54 35 104
t91 50q43 0 88 -25t60 -25t29 16t20 39h83q-1 -59 -38 -110.5t-90 -51.5q-41 0 -84.5 24.5t-65.5 24.5q-16 0 -28.5 -13.5t-18.5 -32.5h-81z" />
    <glyph glyph-name="Omacrongrave" unicode="&#x1e50;" horiz-adv-x="819" 
d="M410 689q172 0 277 -94.5t105 -256.5t-105 -256.5t-277 -94.5q-173 0 -278 94.5t-105 256.5t105 256.5t278 94.5zM410 181q59 0 89 40.5t30 116.5t-30 116.5t-89 40.5t-89.5 -40.5t-30.5 -116.5t30.5 -116.5t89.5 -40.5zM377 886l-164 155h199l110 -155h-145zM231 739
v101h357v-101h-357z" />
    <glyph glyph-name="omacrongrave" unicode="&#x1e51;" horiz-adv-x="684" 
d="M343 543q134 0 226.5 -75t92.5 -203t-92.5 -203t-226.5 -75q-136 0 -228.5 75t-92.5 203t92.5 203t228.5 75zM342 172q33 0 54 27t21 66t-21 66t-54 27t-54 -27t-21 -66t21 -66t54 -27zM310 747l-164 155h199l110 -155h-145zM164 600v101h357v-101h-357z" />
    <glyph glyph-name="Omacronacute" unicode="&#x1e52;" horiz-adv-x="819" 
d="M410 689q172 0 277 -94.5t105 -256.5t-105 -256.5t-277 -94.5q-173 0 -278 94.5t-105 256.5t105 256.5t278 94.5zM410 181q59 0 89 40.5t30 116.5t-30 116.5t-89 40.5t-89.5 -40.5t-30.5 -116.5t30.5 -116.5t89.5 -40.5zM618 1041l-164 -155h-145l110 155h199zM231 739
v101h357v-101h-357z" />
    <glyph glyph-name="omacronacute" unicode="&#x1e53;" horiz-adv-x="684" 
d="M343 543q134 0 226.5 -75t92.5 -203t-92.5 -203t-226.5 -75q-136 0 -228.5 75t-92.5 203t92.5 203t228.5 75zM342 172q33 0 54 27t21 66t-21 66t-54 27t-54 -27t-21 -66t21 -66t54 -27zM546 902l-164 -155h-145l110 155h199zM164 600v101h357v-101h-357z" />
    <glyph glyph-name="Pacute" unicode="&#x1e54;" horiz-adv-x="711" 
d="M301 689q72 0 137.5 -12.5t125.5 -41t96 -82t36 -127.5q0 -71 -34.5 -124.5t-91 -82t-122 -39.5t-134.5 -6v-174h-256v673q103 16 243 16zM312 498v-143q27 -2 52.5 1t51 21t25.5 51q0 31 -25.5 48.5t-53 21t-50.5 0.5zM523 891l-164 -155h-145l110 155h199z" />
    <glyph glyph-name="pacute" unicode="&#x1e55;" horiz-adv-x="704" 
d="M447 -13q-83 0 -142 65v-246h-255v724h245v-68q64 81 161 81q98 0 160.5 -81t62.5 -198t-65.5 -197t-166.5 -80zM358 355q-32 0 -53 -26t-21 -63t21 -63t53 -26t53 26t21 63t-21 63t-53 26zM512 745l-164 -155h-145l110 155h199z" />
    <glyph glyph-name="Pdotaccent" unicode="&#x1e56;" horiz-adv-x="711" 
d="M301 689q72 0 137.5 -12.5t125.5 -41t96 -82t36 -127.5q0 -71 -34.5 -124.5t-91 -82t-122 -39.5t-134.5 -6v-174h-256v673q103 16 243 16zM312 498v-143q27 -2 52.5 1t51 21t25.5 51q0 31 -25.5 48.5t-53 21t-50.5 0.5zM264 744v131h163v-131h-163z" />
    <glyph glyph-name="pdotaccent" unicode="&#x1e57;" horiz-adv-x="704" 
d="M447 -13q-83 0 -142 65v-246h-255v724h245v-68q64 81 161 81q98 0 160.5 -81t62.5 -198t-65.5 -197t-166.5 -80zM358 355q-32 0 -53 -26t-21 -63t21 -63t53 -26t53 26t21 63t-21 63t-53 26zM245 598v131h163v-131h-163z" />
    <glyph glyph-name="Rdotaccent" unicode="&#x1e58;" horiz-adv-x="742" 
d="M579 278q105 -20 140 -278h-259q-9 45 -17.5 78t-16 56.5t-19 38t-19 22.5t-23 11.5t-25 4t-31.5 0.5v-211h-251v669q116 20 260 20q385 0 385 -235q0 -120 -124 -176zM331 369q27 0 51 4.5t46 21t22 44.5q0 37 -34.5 52.5t-77.5 15.5q-14 0 -30 -2v-135q7 -1 23 -1z
M266 744v131h163v-131h-163z" />
    <glyph glyph-name="rdotaccent" unicode="&#x1e59;" horiz-adv-x="477" 
d="M462 340q-75 10 -116 -27t-41 -115v-198h-255v530h238v-94q6 12 9 18.5t10 19.5t14 20.5l17.5 18.5t22.5 16t27 10t34 4.5t40 -5.5v-198zM177 598v131h163v-131h-163z" />
    <glyph glyph-name="Rdotbelow" unicode="&#x1e5a;" horiz-adv-x="742" 
d="M294 -204v131h163v-131h-163zM579 278q105 -20 140 -278h-259q-9 45 -17.5 78t-16 56.5t-19 38t-19 22.5t-23 11.5t-25 4t-31.5 0.5v-211h-251v669q116 20 260 20q385 0 385 -235q0 -120 -124 -176zM331 369q27 0 51 4.5t46 21t22 44.5q0 37 -34.5 52.5t-77.5 15.5
q-14 0 -30 -2v-135q7 -1 23 -1z" />
    <glyph glyph-name="rdotbelow" unicode="&#x1e5b;" horiz-adv-x="477" 
d="M99 -204v131h163v-131h-163zM462 340q-75 10 -116 -27t-41 -115v-198h-255v530h238v-94q6 12 9 18.5t10 19.5t14 20.5l17.5 18.5t22.5 16t27 10t34 4.5t40 -5.5v-198z" />
    <glyph glyph-name="Rdotbelowmacron" unicode="&#x1e5c;" horiz-adv-x="742" 
d="M294 -204v131h163v-131h-163zM579 278q105 -20 140 -278h-259q-9 45 -17.5 78t-16 56.5t-19 38t-19 22.5t-23 11.5t-25 4t-31.5 0.5v-211h-251v669q116 20 260 20q385 0 385 -235q0 -120 -124 -176zM331 369q27 0 51 4.5t46 21t22 44.5q0 37 -34.5 52.5t-77.5 15.5
q-14 0 -30 -2v-135q7 -1 23 -1zM189 751v101h357v-101h-357z" />
    <glyph glyph-name="rdotbelowmacron" unicode="&#x1e5d;" horiz-adv-x="477" 
d="M99 -204v131h163v-131h-163zM462 340q-75 10 -116 -27t-41 -115v-198h-255v530h238v-94q6 12 9 18.5t10 19.5t14 20.5l17.5 18.5t22.5 16t27 10t34 4.5t40 -5.5v-198zM68 609v101h357v-101h-357z" />
    <glyph glyph-name="Rlinebelow" unicode="&#x1e5e;" horiz-adv-x="742" 
d="M204 -174v101h357v-101h-357zM579 278q105 -20 140 -278h-259q-9 45 -17.5 78t-16 56.5t-19 38t-19 22.5t-23 11.5t-25 4t-31.5 0.5v-211h-251v669q116 20 260 20q385 0 385 -235q0 -120 -124 -176zM331 369q27 0 51 4.5t46 21t22 44.5q0 37 -34.5 52.5t-77.5 15.5
q-14 0 -30 -2v-135q7 -1 23 -1z" />
    <glyph glyph-name="rlinebelow" unicode="&#x1e5f;" horiz-adv-x="477" 
d="M55 -174v101h357v-101h-357zM462 340q-75 10 -116 -27t-41 -115v-198h-255v530h238v-94q6 12 9 18.5t10 19.5t14 20.5l17.5 18.5t22.5 16t27 10t34 4.5t40 -5.5v-198z" />
    <glyph glyph-name="Sdotaccent" unicode="&#x1e60;" horiz-adv-x="635" 
d="M286 483q0 -13 33.5 -22l80.5 -21t94.5 -33t81 -67t33.5 -113q0 -121 -78 -180.5t-216 -59.5q-152 0 -281 51l41 183q114 -55 223 -55q56 0 56 25q0 13 -33 21.5l-80 20.5t-93.5 33t-79.5 70t-32 120q1 111 78.5 172t209.5 61q126 0 259 -39l-41 -182q-88 40 -200 40
q-56 0 -56 -25zM238 744v131h163v-131h-163z" />
    <glyph glyph-name="sdotaccent" unicode="&#x1e61;" horiz-adv-x="547" 
d="M287 369q0 -8 17.5 -14t43.5 -10t56 -15t56 -27.5t43.5 -50.5t17.5 -80q0 -92 -68 -138.5t-189 -46.5q-127 0 -241 61l23 152q81 -54 180 -54q42 0 42 20q0 8 -23.5 13.5l-57 13.5t-67 23t-57 51.5t-23.5 89.5q0 92 70 139t191 47q103 0 204 -43l-22 -145q-72 32 -143 32
q-53 0 -53 -18zM186 598v131h163v-131h-163z" />
    <glyph glyph-name="Sdotbelow" unicode="&#x1e62;" horiz-adv-x="635" 
d="M241 -204v131h163v-131h-163zM286 483q0 -13 33.5 -22l80.5 -21t94.5 -33t81 -67t33.5 -113q0 -121 -78 -180.5t-216 -59.5q-152 0 -281 51l41 183q114 -55 223 -55q56 0 56 25q0 13 -33 21.5l-80 20.5t-93.5 33t-79.5 70t-32 120q1 111 78.5 172t209.5 61q126 0 259 -39
l-41 -182q-88 40 -200 40q-56 0 -56 -25z" />
    <glyph glyph-name="sdotbelow" unicode="&#x1e63;" horiz-adv-x="547" 
d="M200 -204v131h163v-131h-163zM287 369q0 -8 17.5 -14t43.5 -10t56 -15t56 -27.5t43.5 -50.5t17.5 -80q0 -92 -68 -138.5t-189 -46.5q-127 0 -241 61l23 152q81 -54 180 -54q42 0 42 20q0 8 -23.5 13.5l-57 13.5t-67 23t-57 51.5t-23.5 89.5q0 92 70 139t191 47
q103 0 204 -43l-22 -145q-72 32 -143 32q-53 0 -53 -18z" />
    <glyph glyph-name="Sacutedotaccent" unicode="&#x1e64;" horiz-adv-x="635" 
d="M286 483q0 -13 33.5 -22l80.5 -21t94.5 -33t81 -67t33.5 -113q0 -121 -78 -180.5t-216 -59.5q-152 0 -281 51l41 183q114 -55 223 -55q56 0 56 25q0 13 -33 21.5l-80 20.5t-93.5 33t-79.5 70t-32 120q1 111 78.5 172t209.5 61q126 0 259 -39l-41 -182q-88 40 -200 40
q-56 0 -56 -25zM603 890l-164 -155h-145l110 155h199zM121 805v131h163v-131h-163z" />
    <glyph glyph-name="sacutedotaccent" unicode="&#x1e65;" horiz-adv-x="547" 
d="M287 369q0 -8 17.5 -14t43.5 -10t56 -15t56 -27.5t43.5 -50.5t17.5 -80q0 -92 -68 -138.5t-189 -46.5q-127 0 -241 61l23 152q81 -54 180 -54q42 0 42 20q0 8 -23.5 13.5l-57 13.5t-67 23t-57 51.5t-23.5 89.5q0 92 70 139t191 47q103 0 204 -43l-22 -145q-72 32 -143 32
q-53 0 -53 -18zM563 744l-164 -155h-145l110 155h199zM79 646v131h163v-131h-163z" />
    <glyph glyph-name="Scarondotaccent" unicode="&#x1e66;" horiz-adv-x="635" 
d="M234 930v131h163v-131h-163zM286 483q0 -13 33.5 -22l80.5 -21t94.5 -33t81 -67t33.5 -113q0 -121 -78 -180.5t-216 -59.5q-152 0 -281 51l41 183q114 -55 223 -55q56 0 56 25q0 13 -33 21.5l-80 20.5t-93.5 33t-79.5 70t-32 120q1 111 78.5 172t209.5 61q126 0 259 -39
l-41 -182q-88 40 -200 40q-56 0 -56 -25zM532 886l-119 -155h-194l-119 155h145l71 -70l71 70h145z" />
    <glyph glyph-name="scarondotaccent" unicode="&#x1e67;" horiz-adv-x="547" 
d="M193 798v131h163v-131h-163zM287 369q0 -8 17.5 -14t43.5 -10t56 -15t56 -27.5t43.5 -50.5t17.5 -80q0 -92 -68 -138.5t-189 -46.5q-127 0 -241 61l23 152q81 -54 180 -54q42 0 42 20q0 8 -23.5 13.5l-57 13.5t-67 23t-57 51.5t-23.5 89.5q0 92 70 139t191 47
q103 0 204 -43l-22 -145q-72 32 -143 32q-53 0 -53 -18zM491 744l-119 -155h-194l-119 155h145l71 -70l71 70h145z" />
    <glyph glyph-name="Sdotbelowdotaccent" unicode="&#x1e68;" horiz-adv-x="635" 
d="M241 -204v131h163v-131h-163zM286 483q0 -13 33.5 -22l80.5 -21t94.5 -33t81 -67t33.5 -113q0 -121 -78 -180.5t-216 -59.5q-152 0 -281 51l41 183q114 -55 223 -55q56 0 56 25q0 13 -33 21.5l-80 20.5t-93.5 33t-79.5 70t-32 120q1 111 78.5 172t209.5 61q126 0 259 -39
l-41 -182q-88 40 -200 40q-56 0 -56 -25zM238 744v131h163v-131h-163z" />
    <glyph glyph-name="sdotbelowdotaccent" unicode="&#x1e69;" horiz-adv-x="547" 
d="M200 -204v131h163v-131h-163zM287 369q0 -8 17.5 -14t43.5 -10t56 -15t56 -27.5t43.5 -50.5t17.5 -80q0 -92 -68 -138.5t-189 -46.5q-127 0 -241 61l23 152q81 -54 180 -54q42 0 42 20q0 8 -23.5 13.5l-57 13.5t-67 23t-57 51.5t-23.5 89.5q0 92 70 139t191 47
q103 0 204 -43l-22 -145q-72 32 -143 32q-53 0 -53 -18zM186 598v131h163v-131h-163z" />
    <glyph glyph-name="Tdotaccent" unicode="&#x1e6a;" horiz-adv-x="665" 
d="M463 483v-483h-261v483h-192v193h645v-193h-192zM251 744v131h163v-131h-163z" />
    <glyph glyph-name="tdotaccent" unicode="&#x1e6b;" horiz-adv-x="469" 
d="M27 355v175h55v123h255v-123h92v-175h-92v-141q0 -29 18 -43t44 -14q11 0 27 2l20 -141q-71 -31 -171 -31q-193 0 -193 165v203h-55zM131 728v131h163v-131h-163z" />
    <glyph glyph-name="Tdotbelow" unicode="&#x1e6c;" horiz-adv-x="665" 
d="M251 -204v131h163v-131h-163zM463 483v-483h-261v483h-192v193h645v-193h-192z" />
    <glyph glyph-name="tdotbelow" unicode="&#x1e6d;" horiz-adv-x="469" 
d="M179 -204v131h163v-131h-163zM27 355v175h55v123h255v-123h92v-175h-92v-141q0 -29 18 -43t44 -14q11 0 27 2l20 -141q-71 -31 -171 -31q-193 0 -193 165v203h-55z" />
    <glyph glyph-name="Tlinebelow" unicode="&#x1e6e;" horiz-adv-x="665" 
d="M154 -174v101h357v-101h-357zM463 483v-483h-261v483h-192v193h645v-193h-192z" />
    <glyph glyph-name="tlinebelow" unicode="&#x1e6f;" horiz-adv-x="469" 
d="M62 -174v101h357v-101h-357zM27 355v175h55v123h255v-123h92v-175h-92v-141q0 -29 18 -43t44 -14q11 0 27 2l20 -141q-71 -31 -171 -31q-193 0 -193 165v203h-55z" />
    <glyph glyph-name="Tcircumflexbelow" unicode="&#x1e70;" horiz-adv-x="665" 
d="M429 -73l119 -155h-145l-71 70l-71 -70h-145l119 155h194zM463 483v-483h-261v483h-192v193h645v-193h-192z" />
    <glyph glyph-name="tcircumflexbelow" unicode="&#x1e71;" horiz-adv-x="469" 
d="M338 -73l119 -155h-145l-71 70l-71 -70h-145l119 155h194zM27 355v175h55v123h255v-123h92v-175h-92v-141q0 -29 18 -43t44 -14q11 0 27 2l20 -141q-71 -31 -171 -31q-193 0 -193 165v203h-55z" />
    <glyph glyph-name="Udieresisbelow" unicode="&#x1e72;" horiz-adv-x="755" 
d="M170 -204v131h163v-131h-163zM422 -204v131h163v-131h-163zM443 676h261v-409q0 -141 -85 -210.5t-242 -69.5t-241.5 69.5t-84.5 210.5v409h261v-406q0 -41 13.5 -62.5t51.5 -21.5q39 0 52.5 21.5t13.5 62.5v406z" />
    <glyph glyph-name="udieresisbelow" unicode="&#x1e73;" horiz-adv-x="699" 
d="M147 -204v131h163v-131h-163zM399 -204v131h163v-131h-163zM45 170v360h255v-303q0 -20 14 -34.5t33 -14.5t33 14.5t14 34.5v303h255v-530h-247v52q-65 -65 -166 -65q-81 0 -136 52.5t-55 130.5z" />
    <glyph glyph-name="Utildebelow" unicode="&#x1e74;" horiz-adv-x="755" 
d="M173 -226q0 54 35 104t91 50q43 0 88 -25t60 -25t29 16t20 39h83q-1 -59 -38 -110.5t-90 -51.5q-41 0 -84.5 24.5t-65.5 24.5q-16 0 -28.5 -13.5t-18.5 -32.5h-81zM443 676h261v-409q0 -141 -85 -210.5t-242 -69.5t-241.5 69.5t-84.5 210.5v409h261v-406
q0 -41 13.5 -62.5t51.5 -21.5q39 0 52.5 21.5t13.5 62.5v406z" />
    <glyph glyph-name="utildebelow" unicode="&#x1e75;" horiz-adv-x="699" 
d="M143 -226q0 54 35 104t91 50q43 0 88 -25t60 -25t29 16t20 39h83q-1 -59 -38 -110.5t-90 -51.5q-41 0 -84.5 24.5t-65.5 24.5q-16 0 -28.5 -13.5t-18.5 -32.5h-81zM45 170v360h255v-303q0 -20 14 -34.5t33 -14.5t33 14.5t14 34.5v303h255v-530h-247v52q-65 -65 -166 -65
q-81 0 -136 52.5t-55 130.5z" />
    <glyph glyph-name="Ucircumflexbelow" unicode="&#x1e76;" horiz-adv-x="755" 
d="M474 -73l119 -155h-145l-71 70l-71 -70h-145l119 155h194zM443 676h261v-409q0 -141 -85 -210.5t-242 -69.5t-241.5 69.5t-84.5 210.5v409h261v-406q0 -41 13.5 -62.5t51.5 -21.5q39 0 52.5 21.5t13.5 62.5v406z" />
    <glyph glyph-name="ucircumflexbelow" unicode="&#x1e77;" horiz-adv-x="699" 
d="M451 -73l119 -155h-145l-71 70l-71 -70h-145l119 155h194zM45 170v360h255v-303q0 -20 14 -34.5t33 -14.5t33 14.5t14 34.5v303h255v-530h-247v52q-65 -65 -166 -65q-81 0 -136 52.5t-55 130.5z" />
    <glyph glyph-name="Utildeacute" unicode="&#x1e78;" horiz-adv-x="755" 
d="M443 676h261v-409q0 -141 -85 -210.5t-242 -69.5t-241.5 69.5t-84.5 210.5v409h261v-406q0 -41 13.5 -62.5t51.5 -21.5q39 0 52.5 21.5t13.5 62.5v406zM589 1089l-164 -155h-145l110 155h199zM177 734q0 54 35 104t91 50q43 0 88 -25t60 -25t29 16t20 39h83
q-1 -59 -38 -110.5t-90 -51.5q-41 0 -84.5 24.5t-65.5 24.5q-16 0 -28.5 -13.5t-18.5 -32.5h-81z" />
    <glyph glyph-name="utildeacute" unicode="&#x1e79;" horiz-adv-x="699" 
d="M45 170v360h255v-303q0 -20 14 -34.5t33 -14.5t33 14.5t14 34.5v303h255v-530h-247v52q-65 -65 -166 -65q-81 0 -136 52.5t-55 130.5zM560 947l-164 -155h-145l110 155h199zM146 588q0 54 35 104t91 50q43 0 88 -25t60 -25t29 16t20 39h83q-1 -59 -38 -110.5t-90 -51.5
q-41 0 -84.5 24.5t-65.5 24.5q-16 0 -28.5 -13.5t-18.5 -32.5h-81z" />
    <glyph glyph-name="Umacrondieresis" unicode="&#x1e7a;" horiz-adv-x="755" 
d="M170 899v131h163v-131h-163zM422 899v131h163v-131h-163zM443 676h261v-409q0 -141 -85 -210.5t-242 -69.5t-241.5 69.5t-84.5 210.5v409h261v-406q0 -41 13.5 -62.5t51.5 -21.5q39 0 52.5 21.5t13.5 62.5v406zM199 742v101h357v-101h-357z" />
    <glyph glyph-name="umacrondieresis" unicode="&#x1e7b;" horiz-adv-x="699" 
d="M140 764v131h163v-131h-163zM392 764v131h163v-131h-163zM45 170v360h255v-303q0 -20 14 -34.5t33 -14.5t33 14.5t14 34.5v303h255v-530h-247v52q-65 -65 -166 -65q-81 0 -136 52.5t-55 130.5zM169 609v101h357v-101h-357z" />
    <glyph glyph-name="Vtilde" unicode="&#x1e7c;" horiz-adv-x="749" 
d="M196 0l-202 676h266l114 -449l115 449h267l-204 -676h-356zM174 734q0 54 35 104t91 50q43 0 88 -25t60 -25t29 16t20 39h83q-1 -59 -38 -110.5t-90 -51.5q-41 0 -84.5 24.5t-65.5 24.5q-16 0 -28.5 -13.5t-18.5 -32.5h-81z" />
    <glyph glyph-name="vtilde" unicode="&#x1e7d;" horiz-adv-x="644" 
d="M396 530h255l-186 -530h-286l-186 530h255l74 -313zM123 588q0 54 35 104t91 50q43 0 88 -25t60 -25t29 16t20 39h83q-1 -59 -38 -110.5t-90 -51.5q-41 0 -84.5 24.5t-65.5 24.5q-16 0 -28.5 -13.5t-18.5 -32.5h-81z" />
    <glyph glyph-name="Vdotbelow" unicode="&#x1e7e;" horiz-adv-x="749" 
d="M293 -204v131h163v-131h-163zM196 0l-202 676h266l114 -449l115 449h267l-204 -676h-356z" />
    <glyph glyph-name="vdotbelow" unicode="&#x1e7f;" horiz-adv-x="644" 
d="M241 -204v131h163v-131h-163zM396 530h255l-186 -530h-286l-186 530h255l74 -313z" />
    <glyph glyph-name="Wgrave" unicode="&#x1e80;" horiz-adv-x="1103" 
d="M841 676h259l-151 -676h-318l-80 380l-81 -380h-316l-151 676h258l68 -460l102 460h238l103 -460zM518 736l-164 155h199l110 -155h-145z" />
    <glyph glyph-name="wgrave" unicode="&#x1e81;" horiz-adv-x="955" 
d="M699 530h257l-160 -530h-247l-71 241l-73 -241h-246l-160 530h260l51 -289l75 289h181l79 -289zM442 590l-164 155h199l110 -155h-145z" />
    <glyph glyph-name="Wacute" unicode="&#x1e82;" horiz-adv-x="1103" 
d="M841 676h259l-151 -676h-318l-80 380l-81 -380h-316l-151 676h258l68 -460l102 460h238l103 -460zM736 891l-164 -155h-145l110 155h199z" />
    <glyph glyph-name="wacute" unicode="&#x1e83;" horiz-adv-x="955" 
d="M699 530h257l-160 -530h-247l-71 241l-73 -241h-246l-160 530h260l51 -289l75 289h181l79 -289zM673 745l-164 -155h-145l110 155h199z" />
    <glyph glyph-name="Wdieresis" unicode="&#x1e84;" horiz-adv-x="1103" 
d="M841 676h259l-151 -676h-318l-80 380l-81 -380h-316l-151 676h258l68 -460l102 460h238l103 -460zM344 744v131h163v-131h-163zM596 744v131h163v-131h-163z" />
    <glyph glyph-name="wdieresis" unicode="&#x1e85;" horiz-adv-x="955" 
d="M699 530h257l-160 -530h-247l-71 241l-73 -241h-246l-160 530h260l51 -289l75 289h181l79 -289zM271 598v131h163v-131h-163zM523 598v131h163v-131h-163z" />
    <glyph glyph-name="Wdotaccent" unicode="&#x1e86;" horiz-adv-x="1103" 
d="M841 676h259l-151 -676h-318l-80 380l-81 -380h-316l-151 676h258l68 -460l102 460h238l103 -460zM470 744v131h163v-131h-163z" />
    <glyph glyph-name="wdotaccent" unicode="&#x1e87;" horiz-adv-x="955" 
d="M699 530h257l-160 -530h-247l-71 241l-73 -241h-246l-160 530h260l51 -289l75 289h181l79 -289zM397 598v131h163v-131h-163z" />
    <glyph glyph-name="Wdotbelow" unicode="&#x1e88;" horiz-adv-x="1103" 
d="M470 -204v131h163v-131h-163zM841 676h259l-151 -676h-318l-80 380l-81 -380h-316l-151 676h258l68 -460l102 460h238l103 -460z" />
    <glyph glyph-name="wdotbelow" unicode="&#x1e89;" horiz-adv-x="955" 
d="M396 -204v131h163v-131h-163zM699 530h257l-160 -530h-247l-71 241l-73 -241h-246l-160 530h260l51 -289l75 289h181l79 -289z" />
    <glyph glyph-name="Xdotaccent" unicode="&#x1e8a;" horiz-adv-x="745" 
d="M6 676h270l96 -190l95 190h272l-189 -326l199 -350h-270l-107 206l-107 -206h-270l198 350zM291 744v131h163v-131h-163z" />
    <glyph glyph-name="xdotaccent" unicode="&#x1e8b;" horiz-adv-x="676" 
d="M508 277l173 -277h-271l-72 158l-72 -158h-271l173 277l-155 253h246l79 -139l79 139h246zM257 598v131h163v-131h-163z" />
    <glyph glyph-name="Xdieresis" unicode="&#x1e8c;" horiz-adv-x="745" 
d="M6 676h270l96 -190l95 190h272l-189 -326l199 -350h-270l-107 206l-107 -206h-270l198 350zM165 744v131h163v-131h-163zM417 744v131h163v-131h-163z" />
    <glyph glyph-name="xdieresis" unicode="&#x1e8d;" horiz-adv-x="676" 
d="M508 277l173 -277h-271l-72 158l-72 -158h-271l173 277l-155 253h246l79 -139l79 139h246zM131 598v131h163v-131h-163zM383 598v131h163v-131h-163z" />
    <glyph glyph-name="Ydotaccent" unicode="&#x1e8e;" horiz-adv-x="715" 
d="M469 676h263l-244 -435v-241h-261v241l-245 435h264l110 -244zM275 744v131h163v-131h-163z" />
    <glyph glyph-name="ydotaccent" unicode="&#x1e8f;" horiz-adv-x="696" 
d="M392 530h255v-446q0 -154 -73 -222.5t-239 -68.5q-268 0 -268 142q0 45 29.5 80.5t84.5 54.5q-67 5 -102.5 41.5t-35.5 97.5v321h255v-287q0 -21 13.5 -35.5t33.5 -14.5t33.5 14.5t13.5 35.5v287zM392 -3v71q-4 -1 -10 -2t-22 -7t-28 -14.5t-22 -24t-10 -35.5
q0 -47 43 -47q49 0 49 59zM264 598v131h163v-131h-163z" />
    <glyph glyph-name="Zcircumflex" unicode="&#x1e90;" horiz-adv-x="660" 
d="M48 676h566v-186l-254 -299h260v-191h-587v155l285 330h-270v191zM427 891l119 -155h-145l-71 70l-71 -70h-145l119 155h194z" />
    <glyph glyph-name="zcircumflex" unicode="&#x1e91;" horiz-adv-x="567" 
d="M526 377l-191 -206h196v-171h-502v144l204 215h-186v171h479v-153zM386 745l119 -155h-145l-71 70l-71 -70h-145l119 155h194z" />
    <glyph glyph-name="Zdotbelow" unicode="&#x1e92;" horiz-adv-x="660" 
d="M251 -204v131h163v-131h-163zM48 676h566v-186l-254 -299h260v-191h-587v155l285 330h-270v191z" />
    <glyph glyph-name="zdotbelow" unicode="&#x1e93;" horiz-adv-x="567" 
d="M210 -204v131h163v-131h-163zM526 377l-191 -206h196v-171h-502v144l204 215h-186v171h479v-153z" />
    <glyph glyph-name="Zlinebelow" unicode="&#x1e94;" horiz-adv-x="660" 
d="M149 -174v101h357v-101h-357zM48 676h566v-186l-254 -299h260v-191h-587v155l285 330h-270v191z" />
    <glyph glyph-name="zlinebelow" unicode="&#x1e95;" horiz-adv-x="567" 
d="M108 -174v101h357v-101h-357zM526 377l-191 -206h196v-171h-502v144l204 215h-186v171h479v-153z" />
    <glyph glyph-name="hlinebelow" unicode="&#x1e96;" horiz-adv-x="699" 
d="M173 -174v101h357v-101h-357zM654 360v-360h-255v303q0 20 -14 34.5t-33 14.5t-33 -14.5t-14 -34.5v-303h-255v739h255v-258q60 62 158 62q81 0 136 -52.5t55 -130.5z" />
    <glyph glyph-name="tdieresis" unicode="&#x1e97;" horiz-adv-x="469" 
d="M27 355v175h55v123h255v-123h92v-175h-92v-141q0 -29 18 -43t44 -14q11 0 27 2l20 -141q-71 -31 -171 -31q-193 0 -193 165v203h-55zM12 725v131h163v-131h-163zM264 725v131h163v-131h-163z" />
    <glyph glyph-name="wring" unicode="&#x1e98;" horiz-adv-x="955" 
d="M699 530h257l-160 -530h-247l-71 241l-73 -241h-246l-160 530h260l51 -289l75 289h181l79 -289zM478 586q-51 0 -87 31.5t-36 81.5t36 81.5t87 31.5t87 -31.5t36 -81.5t-36 -81.5t-87 -31.5zM478 748q-22 0 -37 -14t-15 -35t15 -35t37 -14t37 14t15 35t-15 35t-37 14z
" />
    <glyph glyph-name="yring" unicode="&#x1e99;" horiz-adv-x="696" 
d="M392 530h255v-446q0 -154 -73 -222.5t-239 -68.5q-268 0 -268 142q0 45 29.5 80.5t84.5 54.5q-67 5 -102.5 41.5t-35.5 97.5v321h255v-287q0 -21 13.5 -35.5t33.5 -14.5t33.5 14.5t13.5 35.5v287zM392 -3v71q-4 -1 -10 -2t-22 -7t-28 -14.5t-22 -24t-10 -35.5
q0 -47 43 -47q49 0 49 59zM345 586q-51 0 -87 31.5t-36 81.5t36 81.5t87 31.5t87 -31.5t36 -81.5t-36 -81.5t-87 -31.5zM345 748q-22 0 -37 -14t-15 -35t15 -35t37 -14t37 14t15 35t-15 35t-37 14z" />
    <glyph glyph-name="endash" unicode="&#x2013;" horiz-adv-x="664" 
d="M616 338v-155h-568v155h568z" />
    <glyph glyph-name="emdash" unicode="&#x2014;" horiz-adv-x="948" 
d="M900 338v-155h-852v155h852z" />
    <glyph glyph-name="quoteleft" unicode="&#x2018;" horiz-adv-x="322" 
d="M276 327h-235v182l113 167h117l-92 -149h97v-200z" />
    <glyph glyph-name="quoteright" unicode="&#x2019;" horiz-adv-x="312" 
d="M47 676h235v-182l-113 -167h-117l92 149h-97v200z" />
    <glyph glyph-name="quotesinglbase" unicode="&#x201a;" horiz-adv-x="330" 
d="M48 200h235v-182l-113 -167h-117l92 149h-97v200z" />
    <glyph glyph-name="quotedblleft" unicode="&#x201c;" horiz-adv-x="625" 
d="M276 327h-235v182l113 167h117l-92 -149h97v-200zM579 327h-235v182l113 167h117l-92 -149h97v-200z" />
    <glyph glyph-name="quotedblright" unicode="&#x201d;" horiz-adv-x="615" 
d="M350 676h235v-182l-113 -167h-117l92 149h-97v200zM47 676h235v-182l-113 -167h-117l92 149h-97v200z" />
    <glyph glyph-name="quotedblbase" unicode="&#x201e;" horiz-adv-x="633" 
d="M351 200h235v-182l-113 -167h-117l92 149h-97v200zM48 200h235v-182l-113 -167h-117l92 149h-97v200z" />
    <glyph glyph-name="dagger" unicode="&#x2020;" horiz-adv-x="567" 
d="M492 482l51 -24v-117l-51 -24h-32l-123 23l29 -114v-24l-24 -396h-117l-24 396v24l29 114l-123 -23h-32l-51 24v117l51 24h32l117 -23l-23 134v32l24 51h117l24 -51v-32l-23 -134l117 23h32zM293 330l57 57v19l-57 58h-19l-57 -58v-19l57 -57h19z" />
    <glyph glyph-name="daggerdbl" unicode="&#x2021;" horiz-adv-x="581" 
d="M499 317h-32l-123 23l29 -99l-29 -99l123 23h32l51 -24v-117l-51 -24h-32l-117 23l23 -134v-32l-24 -51h-117l-24 51v32l23 134l-117 -23h-32l-51 24v117l51 24h32l123 -23l-29 99l29 99l-123 -23h-32l-51 24v117l51 24h32l117 -23l-23 134v32l24 51h117l24 -51v-32
l-23 -134l117 23h32l51 -24v-117zM357 95l-57 57h-19l-57 -57v-19l57 -58h19l57 58v19zM357 387v19l-57 58h-19l-57 -58v-19l57 -57h19z" />
    <glyph glyph-name="bullet" unicode="&#x2022;" horiz-adv-x="448" 
d="M50 318q0 73 50.5 123.5t123.5 50.5t123.5 -50.5t50.5 -123.5t-50.5 -123.5t-123.5 -50.5t-123.5 50.5t-50.5 123.5z" />
    <glyph glyph-name="ellipsis" unicode="&#x2026;" horiz-adv-x="1063" 
d="M48 0v200h235v-200h-235zM414 0v200h235v-200h-235zM780 0v200h235v-200h-235z" />
    <glyph glyph-name="perthousand" unicode="&#x2030;" horiz-adv-x="1215" 
d="M152 -10l438 696h100l-439 -696h-99zM193 327q-80 0 -123 49.5t-43 131.5t43 131.5t123 49.5t123 -49.5t43 -131.5t-43 -131.5t-123 -49.5zM193 593q-22 0 -34 -23t-12 -62t12 -62t34 -23t34 23t12 62t-12 62t-34 23zM649 -13q-80 0 -123 49.5t-43 131.5t43 131.5
t123 49.5t123 -49.5t43 -131.5t-43 -131.5t-123 -49.5zM649 253q-22 0 -34 -23t-12 -62t12 -62t34 -23t34 23t12 62t-12 62t-34 23zM1023 -13q-80 0 -123 49.5t-43 131.5t43 131.5t123 49.5t123 -49.5t43 -131.5t-43 -131.5t-123 -49.5zM1023 253q-22 0 -34 -23t-12 -62
t12 -62t34 -23t34 23t12 62t-12 62t-34 23z" />
    <glyph glyph-name="uni2031" unicode="&#x2031;" horiz-adv-x="1574" 
d="M148 -10l438 696h100l-439 -696h-99zM192 327q-80 0 -123 49.5t-43 131.5t43 131.5t123 49.5t123 -49.5t43 -131.5t-43 -131.5t-123 -49.5zM192 593q-22 0 -34 -23t-12 -62t12 -62t34 -23t34 23t12 62t-12 62t-34 23zM642 -13q-80 0 -123 49.5t-43 131.5t43 131.5
t123 49.5t123 -49.5t43 -131.5t-43 -131.5t-123 -49.5zM642 253q-22 0 -34 -23t-12 -62t12 -62t34 -23t34 23t12 62t-12 62t-34 23zM1013 -13q-80 0 -123 49.5t-43 131.5t43 131.5t123 49.5t123 -49.5t43 -131.5t-43 -131.5t-123 -49.5zM1013 253q-22 0 -34 -23t-12 -62
t12 -62t34 -23t34 23t12 62t-12 62t-34 23zM1384 -13q-80 0 -123 49.5t-43 131.5t43 131.5t123 49.5t123 -49.5t43 -131.5t-43 -131.5t-123 -49.5zM1384 253q-22 0 -34 -23t-12 -62t12 -62t34 -23t34 23t12 62t-12 62t-34 23z" />
    <glyph glyph-name="guilsinglleft" unicode="&#x2039;" horiz-adv-x="464" 
d="M441 509l-209 -241l209 -241h-225l-192 241l192 241h225z" />
    <glyph glyph-name="guilsinglright" unicode="&#x203a;" horiz-adv-x="464" 
d="M232 268l-209 241h225l192 -241l-192 -241h-225z" />
    <glyph glyph-name="fraction" unicode="&#x2044;" horiz-adv-x="305" 
d="M300 700h153l-448 -719h-153z" />
    <glyph glyph-name="zerosuperior" unicode="&#x2070;" horiz-adv-x="405" 
d="M202 833q94 0 143.5 -57t49.5 -153t-49.5 -153.5t-143.5 -57.5q-93 0 -143 58t-50 153t50 152.5t143 57.5zM202 524q32 0 32 99t-32 99t-32 -99t32 -99z" />
    <glyph glyph-name="foursuperior" unicode="&#x2074;" horiz-adv-x="405" 
d="M386 607v-114h-39v-73h-148v73h-195v113l157 220h186v-219h39zM131 604h71v101z" />
    <glyph glyph-name="fivesuperior" unicode="&#x2075;" horiz-adv-x="405" 
d="M38 625l30 201h293v-120h-155l-7 -27q3 0 11 0.5t12 0.5q64 0 109 -33.5t45 -101.5q0 -69 -57 -101t-141 -32q-71 0 -151 23l16 117q55 -24 100 -24q61 0 61 26q0 32 -57 32q-24 0 -49 -5z" />
    <glyph glyph-name="sixsuperior" unicode="&#x2076;" horiz-adv-x="405" 
d="M258 688q65 0 97.5 -37t32.5 -97q0 -64 -48 -103t-136 -39q-90 0 -137.5 56t-47.5 155q0 96 57.5 153t144.5 57q81 0 144 -30l-22 -108q-38 18 -93 18q-73 0 -79 -50q39 25 87 25zM209 517q26 0 26 37q0 38 -26 38t-26 -38q0 -37 26 -37z" />
    <glyph glyph-name="sevensuperior" unicode="&#x2077;" horiz-adv-x="405" 
d="M32 826h345v-111q-112 -142 -118 -295h-163q2 119 107 278h-171v128z" />
    <glyph glyph-name="eightsuperior" unicode="&#x2078;" horiz-adv-x="405" 
d="M307 627q81 -26 81 -101q0 -65 -49 -89.5t-137 -24.5t-137 24.5t-49 89.5q0 75 82 101q-67 22 -67 98q0 54 45 81t126 27t126.5 -27t45.5 -81q0 -76 -67 -98zM202 749q-23 0 -23 -36q0 -35 23 -35t23 35q0 36 -23 36zM202 499q28 0 28 41q0 44 -28 44t-28 -44
q0 -41 28 -41z" />
    <glyph glyph-name="ninesuperior" unicode="&#x2079;" horiz-adv-x="405" 
d="M154 557q-67 0 -102.5 38.5t-35.5 98.5q0 62 49.5 100.5t127.5 38.5q101 0 148.5 -56.5t47.5 -148.5q0 -101 -52 -158.5t-154 -57.5q-88 0 -153 31l22 111q48 -22 107 -22q71 0 78 44q-36 -19 -83 -19zM198 728q-27 0 -27 -39q0 -38 27 -38t27 38q0 39 -27 39z" />
    <glyph glyph-name="plus.sups" unicode="&#x207a;" horiz-adv-x="380" 
d="M361 674v-103h-118v-117h-106v117h-118v103h118v118h106v-118h118z" />
    <glyph glyph-name="minus.sups" unicode="&#x207b;" horiz-adv-x="416" 
d="M379 674v-103h-342v103h342z" />
    <glyph glyph-name="equal.sups" unicode="&#x207c;" horiz-adv-x="416" 
d="M379 595v-104h-342v104h342zM379 755v-103h-342v103h342z" />
    <glyph glyph-name="parenleft.sups" unicode="&#x207d;" horiz-adv-x="242" 
d="M245 295h-132q-92 156 -92 313q0 156 92 314h132q-98 -137 -98 -314q0 -176 98 -313z" />
    <glyph glyph-name="parenright.sups" unicode="&#x207e;" horiz-adv-x="267" 
d="M146 295h-132q98 137 98 313q0 177 -98 314h132q92 -158 92 -314q0 -157 -92 -313z" />
    <glyph glyph-name="zeroinferior" unicode="&#x2080;" horiz-adv-x="405" 
d="M202 264q94 0 143.5 -57t49.5 -153t-49.5 -153.5t-143.5 -57.5q-93 0 -143 58t-50 153t50 152.5t143 57.5zM202 -45q32 0 32 99t-32 99t-32 -99t32 -99z" />
    <glyph glyph-name="oneinferior" unicode="&#x2081;" horiz-adv-x="405" 
d="M158 -149v229h-98v90q119 0 124 87h132v-406h-158z" />
    <glyph glyph-name="twoinferior" unicode="&#x2082;" horiz-adv-x="405" 
d="M197 264q81 0 127.5 -28.5t46.5 -101.5q0 -46 -28.5 -81.5t-86.5 -76.5h119v-125h-348v119l51.5 30.5l52 31t39 26.5t30.5 29.5t9 26.5q0 25 -48 25q-57 0 -111 -26l-23 117q81 34 170 34z" />
    <glyph glyph-name="threeinferior" unicode="&#x2083;" horiz-adv-x="405" 
d="M293 59q35 -9 60.5 -36t25.5 -63q0 -61 -55.5 -89t-140.5 -28q-92 0 -159 24l15 120q59 -25 111 -25q64 0 64 20q0 21 -40 21h-78v107h61q45 0 45 18t-49 18q-50 0 -96 -19l-18 113q67 24 145 24q82 0 128.5 -29t46.5 -88q0 -60 -66 -88z" />
    <glyph glyph-name="fourinferior" unicode="&#x2084;" horiz-adv-x="405" 
d="M388 38v-114h-39v-73h-148v73h-195v113l157 220h186v-219h39zM133 35h71v101z" />
    <glyph glyph-name="fiveinferior" unicode="&#x2085;" horiz-adv-x="405" 
d="M37 56l30 201h293v-120h-155l-7 -27q3 0 11 0.5t12 0.5q64 0 109 -33.5t45 -101.5q0 -69 -57 -101t-141 -32q-71 0 -151 23l16 117q55 -24 100 -24q61 0 61 26q0 32 -57 32q-24 0 -49 -5z" />
    <glyph glyph-name="sixinferior" unicode="&#x2086;" horiz-adv-x="405" 
d="M258 119q65 0 97.5 -37t32.5 -97q0 -64 -48 -103t-136 -39q-90 0 -137.5 56t-47.5 155q0 96 57.5 153t144.5 57q81 0 144 -30l-22 -108q-38 18 -93 18q-73 0 -79 -50q39 25 87 25zM209 -52q26 0 26 37q0 38 -26 38t-26 -38q0 -37 26 -37z" />
    <glyph glyph-name="seveninferior" unicode="&#x2087;" horiz-adv-x="405" 
d="M31 257h345v-111q-112 -142 -118 -295h-163q2 119 107 278h-171v128z" />
    <glyph glyph-name="eightinferior" unicode="&#x2088;" horiz-adv-x="405" 
d="M307 58q81 -26 81 -101q0 -65 -49 -89.5t-137 -24.5t-137 24.5t-49 89.5q0 75 82 101q-67 22 -67 98q0 54 45 81t126 27t126.5 -27t45.5 -81q0 -76 -67 -98zM202 180q-23 0 -23 -36q0 -35 23 -35t23 35q0 36 -23 36zM202 -70q28 0 28 41q0 44 -28 44t-28 -44
q0 -41 28 -41z" />
    <glyph glyph-name="nineinferior" unicode="&#x2089;" horiz-adv-x="405" 
d="M154 -12q-67 0 -102.5 38.5t-35.5 98.5q0 62 49.5 100.5t127.5 38.5q101 0 148.5 -56.5t47.5 -148.5q0 -101 -52 -158.5t-154 -57.5q-88 0 -153 31l22 111q48 -22 107 -22q71 0 78 44q-36 -19 -83 -19zM198 159q-27 0 -27 -39q0 -38 27 -38t27 38q0 39 -27 39z" />
    <glyph glyph-name="parenleft.sinf" unicode="&#x208d;" horiz-adv-x="266" 
d="M253 -274h-132q-92 156 -92 313q0 156 92 314h132q-98 -137 -98 -314q0 -176 98 -313z" />
    <glyph glyph-name="parenright.sinf" unicode="&#x208e;" horiz-adv-x="266" 
d="M145 -274h-132q98 137 98 313q0 177 -98 314h132q92 -158 92 -314q0 -157 -92 -313z" />
    <glyph glyph-name="colonmonetary" unicode="&#x20a1;" horiz-adv-x="677" 
d="M518 784h84l-37 -115q35 -7 80 -22l-50 -182q-59 25 -130 25q-82 0 -127 -40t-45 -112t45 -112t127 -40q71 0 130 25l50 -182q-126 -42 -245 -42q-28 0 -53 3l-30 -94h-84l35 109q-32 9 -61 24l-43 -133h-84l57 179q-109 95 -109 263q0 145 82.5 237t223.5 110l32 99h84
l-31 -95q23 -1 67 -5z" />
    <glyph glyph-name="franc" unicode="&#x20a3;" horiz-adv-x="653" 
d="M30 73v90h62v513h530v-192h-272v-71h229v-193h-229v-57h120v-90h-120v-73h-258v73h-62z" />
    <glyph glyph-name="uni20A6" unicode="&#x20a6;" horiz-adv-x="949" 
d="M918 383h-94v-71h94v-90h-94v-222h-247l-212 347v-347h-239v222h-95v90h95v71h-95v90h95v203h260l199 -345v345h239v-203h94v-90z" />
    <glyph glyph-name="Euro" unicode="&#x20ac;" horiz-adv-x="750" 
d="M537 186q71 0 130 25l50 -182q-126 -42 -245 -42q-138 0 -233.5 66t-125.5 183h-83v80h539v-80h-169q44 -50 137 -50zM569 366h-539v80h84q31 115 126 179t232 64q119 0 245 -42l-50 -182q-59 25 -130 25q-85 0 -131 -44h163v-80z" />
    <glyph glyph-name="uni20B9" unicode="&#x20b9;" horiz-adv-x="576" 
d="M64 405v90h135q-31 63 -135 63v131h504l-36 -90h-141q52 -37 63 -104h114l-37 -90h-79q-19 -81 -118 -127q51 -10 94 -74t62 -204h-259q-17 70 -34 112.5t-41.5 65t-47.5 31t-65 14.5l21 109q117 0 140 73h-140z" />
    <glyph glyph-name="centigrade" unicode="&#x2103;" horiz-adv-x="1016" 
d="M173 706q61 0 105 -44t44 -105t-44 -105t-105 -44q-62 0 -105.5 43.5t-43.5 105.5t43.5 105.5t105.5 43.5zM173 490q28 0 47.5 19.5t19.5 47.5t-19.5 47.5t-47.5 19.5t-47.5 -19.5t-19.5 -47.5t19.5 -47.5t47.5 -19.5zM796 186q71 0 130 25l50 -182q-126 -42 -245 -42
q-168 0 -270 95t-102 256q0 162 102 256.5t270 94.5q119 0 245 -42l-50 -182q-59 25 -130 25q-82 0 -127 -40t-45 -112t45 -112t127 -40z" />
    <glyph glyph-name="fahrenheit" unicode="&#x2109;" horiz-adv-x="978" 
d="M173 706q61 0 105 -44t44 -105t-44 -105t-105 -44q-62 0 -105.5 43.5t-43.5 105.5t43.5 105.5t105.5 43.5zM173 490q28 0 47.5 19.5t19.5 47.5t-19.5 47.5t-47.5 19.5t-47.5 -19.5t-19.5 -47.5t19.5 -47.5t47.5 -19.5zM938 484h-272v-83h238v-199h-238l1 -202h-259v676
h530v-192z" />
    <glyph glyph-name="afii61352" unicode="&#x2116;" horiz-adv-x="1136" 
d="M895 166q-86 0 -145.5 50.5t-59.5 136.5q0 85 59.5 135.5t145.5 50.5q87 0 146 -50t59 -136t-59 -136.5t-146 -50.5zM894 416q-20 0 -33.5 -18.5t-13.5 -44.5t13 -44t34 -18q22 0 35.5 18t13.5 44t-13.5 44.5t-35.5 18.5zM434 281v325h189v-606h-196l-179 302v-302h-189
v606h197zM696 0v117h397v-117h-397z" />
    <glyph glyph-name="uni2117" unicode="&#x2117;" horiz-adv-x="717" 
d="M359 646q136 0 231.5 -96t95.5 -232t-95.5 -231.5t-231.5 -95.5t-232 95.5t-96 231.5t96 232t232 96zM359 35q117 0 200 83t83 200q0 118 -83 201t-200 83q-118 0 -201 -83t-83 -201q0 -117 83 -200t201 -83zM347 496q37 0 69 -6.5t62 -21t47.5 -42.5t17.5 -66
q0 -67 -50.5 -99.5t-126.5 -32.5v-81h-143v340q56 9 124 9zM362 390v-59q48 -2 48 30q0 15 -13.5 23t-34.5 6z" />
    <glyph glyph-name="uni2120" unicode="&#x2120;" horiz-adv-x="666" 
d="M508 676h108v-265h-103v117l-44 -60h-5l-43 60v-117h-104v265h109l40 -70zM164 591q0 -5 19 -9.5t42.5 -9.5t42.5 -23.5t19 -47.5q0 -96 -118 -96q-66 0 -120 23l18 79q37 -21 85 -21q20 0 20 9q0 5 -18 9.5l-39.5 9.5t-39.5 23.5t-18 48.5q0 46 31 71t85 25
q47 0 105 -21l-18 -78q-38 17 -74 17q-22 0 -22 -9z" />
    <glyph glyph-name="trademark" unicode="&#x2122;" horiz-adv-x="682" 
d="M51 587v89h248v-89h-68v-176h-112v176h-68zM479 606l41 70h109v-265h-103v117l-45 -60h-5l-43 60v-117h-103v265h108z" />
    <glyph glyph-name="estimated" unicode="&#x212e;" horiz-adv-x="727" 
d="M699 278h-509v-185q77 -66 178 -66q129 0 215 104h64q-50 -66 -123.5 -104t-155.5 -38q-137 0 -233.5 89.5t-96.5 215.5q0 127 96.5 216.5t233.5 89.5q135 0 233 -87.5t98 -210.5v-24zM546 495q-78 67 -178 67q-98 0 -178 -67v-179h356v179z" />
    <glyph glyph-name="onethird" unicode="&#x2153;" horiz-adv-x="1115" 
d="M56 600q119 0 124 87h132v-406h-158v229h-98v90zM689 700h153l-448 -719h-153zM979 208q35 -9 60.5 -36t25.5 -63q0 -61 -55.5 -89t-140.5 -28q-92 0 -159 24l15 120q59 -25 111 -25q64 0 64 20q0 21 -40 21h-78v107h61q45 0 45 18t-49 18q-50 0 -96 -19l-18 113
q67 24 145 24q82 0 128.5 -29t46.5 -88q0 -60 -66 -88z" />
    <glyph glyph-name="twothirds" unicode="&#x2154;" horiz-adv-x="1115" 
d="M722 700h153l-448 -719h-153zM1003 208q35 -9 60.5 -36t25.5 -63q0 -61 -55.5 -89t-140.5 -28q-92 0 -159 24l15 120q59 -25 111 -25q64 0 64 20q0 21 -40 21h-78v107h61q45 0 45 18t-49 18q-50 0 -96 -19l-18 113q67 24 145 24q82 0 128.5 -29t46.5 -88q0 -60 -66 -88z
M203 694q81 0 127.5 -28.5t46.5 -101.5q0 -46 -28.5 -81.5t-86.5 -76.5h119v-125h-348v119l51.5 30.5l52 31t39 26.5t30.5 29.5t9 26.5q0 25 -48 25q-57 0 -111 -26l-23 117q81 34 170 34z" />
    <glyph glyph-name="onefifth" unicode="&#x2155;" horiz-adv-x="1115" 
d="M56 600q119 0 124 87h132v-406h-158v229h-98v90zM689 700h153l-448 -719h-153zM727 205l30 201h293v-120h-155l-7 -27q3 0 11 0.5t12 0.5q64 0 109 -33.5t45 -101.5q0 -69 -57 -101t-141 -32q-71 0 -151 23l16 117q55 -24 100 -24q61 0 61 26q0 32 -57 32q-24 0 -49 -5z
" />
    <glyph glyph-name="twofifths" unicode="&#x2156;" horiz-adv-x="1115" 
d="M712 700h153l-448 -719h-153zM735 205l30 201h293v-120h-155l-7 -27q3 0 11 0.5t12 0.5q64 0 109 -33.5t45 -101.5q0 -69 -57 -101t-141 -32q-71 0 -151 23l16 117q55 -24 100 -24q61 0 61 26q0 32 -57 32q-24 0 -49 -5zM208 694q81 0 127.5 -28.5t46.5 -101.5
q0 -46 -28.5 -81.5t-86.5 -76.5h119v-125h-348v119l51.5 30.5l52 31t39 26.5t30.5 29.5t9 26.5q0 25 -48 25q-57 0 -111 -26l-23 117q81 34 170 34z" />
    <glyph glyph-name="threefifths" unicode="&#x2157;" horiz-adv-x="1115" 
d="M705 700h153l-448 -719h-153zM736 205l30 201h293v-120h-155l-7 -27q3 0 11 0.5t12 0.5q64 0 109 -33.5t45 -101.5q0 -69 -57 -101t-141 -32q-71 0 -151 23l16 117q55 -24 100 -24q61 0 61 26q0 32 -57 32q-24 0 -49 -5zM309 489q35 -9 60.5 -36t25.5 -63
q0 -61 -55.5 -89t-140.5 -28q-92 0 -159 24l15 120q59 -25 111 -25q64 0 64 20q0 21 -40 21h-78v107h61q45 0 45 18t-49 18q-50 0 -96 -19l-18 113q67 24 145 24q82 0 128.5 -29t46.5 -88q0 -60 -66 -88z" />
    <glyph glyph-name="fourfifths" unicode="&#x2158;" horiz-adv-x="1115" 
d="M723 700h153l-448 -719h-153zM743 205l30 201h293v-120h-155l-7 -27q3 0 11 0.5t12 0.5q64 0 109 -33.5t45 -101.5q0 -69 -57 -101t-141 -32q-71 0 -151 23l16 117q55 -24 100 -24q61 0 61 26q0 32 -57 32q-24 0 -49 -5zM416 468v-114h-39v-73h-148v73h-195v113l157 220
h186v-219h39zM161 465h71v101z" />
    <glyph glyph-name="onesixth" unicode="&#x2159;" horiz-adv-x="1115" 
d="M49 600q119 0 124 87h132v-406h-158v229h-98v90zM682 700h153l-448 -719h-153zM936 268q65 0 97.5 -37t32.5 -97q0 -64 -48 -103t-136 -39q-90 0 -137.5 56t-47.5 155q0 96 57.5 153t144.5 57q81 0 144 -30l-22 -108q-38 18 -93 18q-73 0 -79 -50q39 25 87 25zM887 97
q26 0 26 37q0 38 -26 38t-26 -38q0 -37 26 -37z" />
    <glyph glyph-name="fivesixth" unicode="&#x215a;" horiz-adv-x="1115" 
d="M699 700h153l-448 -719h-153zM953 268q65 0 97.5 -37t32.5 -97q0 -64 -48 -103t-136 -39q-90 0 -137.5 56t-47.5 155q0 96 57.5 153t144.5 57q81 0 144 -30l-22 -108q-38 18 -93 18q-73 0 -79 -50q39 25 87 25zM904 97q26 0 26 37q0 38 -26 38t-26 -38q0 -37 26 -37z
M50 486l30 201h293v-120h-155l-7 -27q3 0 11 0.5t12 0.5q64 0 109 -33.5t45 -101.5q0 -69 -57 -101t-141 -32q-71 0 -151 23l16 117q55 -24 100 -24q61 0 61 26q0 32 -57 32q-24 0 -49 -5z" />
    <glyph glyph-name="oneeighth" unicode="&#x215b;" horiz-adv-x="1115" 
d="M56 600q119 0 124 87h132v-406h-158v229h-98v90zM689 700h153l-448 -719h-153zM978 207q81 -26 81 -101q0 -65 -49 -89.5t-137 -24.5t-137 24.5t-49 89.5q0 75 82 101q-67 22 -67 98q0 54 45 81t126 27t126.5 -27t45.5 -81q0 -76 -67 -98zM873 329q-23 0 -23 -36
q0 -35 23 -35t23 35q0 36 -23 36zM873 79q28 0 28 41q0 44 -28 44t-28 -44q0 -41 28 -41z" />
    <glyph glyph-name="threeeighths" unicode="&#x215c;" horiz-adv-x="1115" 
d="M705 700h153l-448 -719h-153zM994 207q81 -26 81 -101q0 -65 -49 -89.5t-137 -24.5t-137 24.5t-49 89.5q0 75 82 101q-67 22 -67 98q0 54 45 81t126 27t126.5 -27t45.5 -81q0 -76 -67 -98zM889 329q-23 0 -23 -36q0 -35 23 -35t23 35q0 36 -23 36zM889 79q28 0 28 41
q0 44 -28 44t-28 -44q0 -41 28 -41zM309 489q35 -9 60.5 -36t25.5 -63q0 -61 -55.5 -89t-140.5 -28q-92 0 -159 24l15 120q59 -25 111 -25q64 0 64 20q0 21 -40 21h-78v107h61q45 0 45 18t-49 18q-50 0 -96 -19l-18 113q67 24 145 24q82 0 128.5 -29t46.5 -88q0 -60 -66 -88
z" />
    <glyph glyph-name="fiveeighths" unicode="&#x215d;" horiz-adv-x="1115" 
d="M702 700h153l-448 -719h-153zM991 207q81 -26 81 -101q0 -65 -49 -89.5t-137 -24.5t-137 24.5t-49 89.5q0 75 82 101q-67 22 -67 98q0 54 45 81t126 27t126.5 -27t45.5 -81q0 -76 -67 -98zM886 329q-23 0 -23 -36q0 -35 23 -35t23 35q0 36 -23 36zM886 79q28 0 28 41
q0 44 -28 44t-28 -44q0 -41 28 -41zM53 486l30 201h293v-120h-155l-7 -27q3 0 11 0.5t12 0.5q64 0 109 -33.5t45 -101.5q0 -69 -57 -101t-141 -32q-71 0 -151 23l16 117q55 -24 100 -24q61 0 61 26q0 32 -57 32q-24 0 -49 -5z" />
    <glyph glyph-name="seveneighths" unicode="&#x215e;" horiz-adv-x="1115" 
d="M700 700h153l-448 -719h-153zM989 207q81 -26 81 -101q0 -65 -49 -89.5t-137 -24.5t-137 24.5t-49 89.5q0 75 82 101q-67 22 -67 98q0 54 45 81t126 27t126.5 -27t45.5 -81q0 -76 -67 -98zM884 329q-23 0 -23 -36q0 -35 23 -35t23 35q0 36 -23 36zM884 79q28 0 28 41
q0 44 -28 44t-28 -44q0 -41 28 -41zM50 687h345v-111q-112 -142 -118 -295h-163q2 119 107 278h-171v128z" />
    <glyph glyph-name="Oneroman" unicode="&#x2160;" horiz-adv-x="481" 
d="M36 0v96h74v484h-74v96h409v-96h-74v-484h74v-96h-409z" />
    <glyph glyph-name="Tworoman" unicode="&#x2161;" horiz-adv-x="847" 
d="M36 580v96h775v-96h-74v-484h74v-96h-775v96h74v484h-74zM371 580v-484h105v484h-105z" />
    <glyph glyph-name="Threeroman" unicode="&#x2162;" horiz-adv-x="1213" 
d="M36 580v96h1141v-96h-74v-484h74v-96h-1141v96h74v484h-74zM476 580h-105v-484h105v484zM737 96h105v484h-105v-484z" />
    <glyph glyph-name="Fourroman" unicode="&#x2163;" horiz-adv-x="1221" 
d="M36 580v96h1168v-96h-66l-146 -484h187v-96h-1143v96h74v484h-74zM433 580h-62v-484h207zM695 580l90 -353l90 353h-180z" />
    <glyph glyph-name="Fiveroman" unicode="&#x2164;" horiz-adv-x="873" 
d="M42 0v96h187l-146 484h-66v96h839v-96h-67l-146 -484h187v-96h-788zM345 580l91 -353l90 353h-181z" />
    <glyph glyph-name="Sixroman" unicode="&#x2165;" horiz-adv-x="1222" 
d="M1186 96v-96h-1144v96h187l-146 484h-66v96h1169v-96h-75v-484h75zM787 580l-145 -484h208v484h-63zM345 580l91 -353l89 353h-180z" />
    <glyph glyph-name="Sevenroman" unicode="&#x2166;" horiz-adv-x="1587" 
d="M1551 676v-96h-74v-484h74v-96h-1509v96h185l-145 484h-65v96h1534zM787 580l-146 -484h209v484h-63zM1216 580h-105v-484h105v484zM344 580l90 -353l90 353h-180z" />
    <glyph glyph-name="Eightroman" unicode="&#x2167;" horiz-adv-x="1954" 
d="M43 0v96h187l-146 484h-67v96h1901v-96h-74v-484h74v-96h-1875zM788 580l-145 -484h208v484h-63zM1112 580v-484h105v484h-105zM1478 580v-484h105v484h-105zM346 580l91 -353l89 353h-180z" />
    <glyph glyph-name="Nineroman" unicode="&#x2168;" horiz-adv-x="1205" 
d="M36 580v96h1136v-96h-82l-129 -230l140 -254h81v-96h-1146v96h74v484h-74zM597 350l-129 230h-97v-484h85zM779 218l-57 -122h114zM731 580l48 -106l47 106h-95z" />
    <glyph glyph-name="Tenroman" unicode="&#x2169;" horiz-adv-x="852" 
d="M33 676h786v-96h-82l-130 -230l141 -254h81v-96h-806v96h80l142 254l-131 230h-81v96zM426 218l-57 -122h114zM378 580l48 -106l47 106h-95z" />
    <glyph glyph-name="Elevenroman" unicode="&#x216a;" horiz-adv-x="1205" 
d="M1169 96v-96h-1146v96h80l142 254l-131 230h-81v96h1136v-96h-74v-484h74zM834 96v484h-97l-129 -230l140 -254h86zM426 218l-57 -122h114zM378 580l48 -106l47 106h-95z" />
    <glyph glyph-name="Twelveroman" unicode="&#x216b;" horiz-adv-x="1571" 
d="M23 0v96h80l142 254l-131 230h-81v96h1502v-96h-74v-484h74v-96h-1512zM608 350l140 -254h86v484h-97zM1095 580v-484h105v484h-105zM426 218l-57 -122h114zM378 580l48 -106l47 106h-95z" />
    <glyph glyph-name="Fiftyroman" unicode="&#x216c;" horiz-adv-x="683" 
d="M25 580v96h492v-96h-130v-390h176v112h96v-302h-634v96h101v484h-101z" />
    <glyph glyph-name="Hundredroman" unicode="&#x216d;" horiz-adv-x="677" 
d="M595 211l50 -182q-126 -42 -245 -42q-168 0 -270 95t-102 256q0 163 101.5 257t274.5 94q112 0 230 -38v-269h-96v100q-37 8 -73 8q-82 0 -127 -40t-45 -112t45 -112t127 -40q71 0 130 25z" />
    <glyph glyph-name="Fivehundredroman" unicode="&#x216e;" horiz-adv-x="850" 
d="M25 1v96h101v479h-101v96h80q33 0 127.5 8.5t153.5 8.5q198 0 317.5 -93.5t119.5 -261.5q0 -86 -31.5 -150.5t-78.5 -101t-113 -59t-124 -29.5t-122 -7q-48 0 -136.5 7t-112.5 7h-80zM416 178q73 0 108.5 45.5t35.5 122.5q0 75 -37 116.5t-105 41.5q-24 0 -32 -1v-324
q8 -1 30 -1z" />
    <glyph glyph-name="Thousandroman" unicode="&#x216f;" horiz-adv-x="1015" 
d="M564 0v96h82v249l-136 -216h-6l-135 216v-249h81v-96h-425v96h101v484h-101v96h363l119 -221l120 221h362v-96h-100v-484h100v-96h-425z" />
    <glyph glyph-name="oneroman" unicode="&#x2170;" horiz-adv-x="471" 
d="M35 449v81h401v-81h-73v-368h73v-81h-401v81h73v368h-73z" />
    <glyph glyph-name="tworoman" unicode="&#x2171;" horiz-adv-x="823" 
d="M35 449v81h753v-81h-73v-368h73v-81h-753v81h73v368h-73zM363 449v-368h97v368h-97z" />
    <glyph glyph-name="threeroman" unicode="&#x2172;" horiz-adv-x="1175" 
d="M34 449v81h1106v-81h-73v-368h73v-81h-1106v81h74v368h-74zM812 449h-97v-368h97v368zM363 449v-368h97v368h-97z" />
    <glyph glyph-name="fourroman" unicode="&#x2173;" horiz-adv-x="1115" 
d="M35 449v81h1057v-81h-65l-129 -368h176v-81h-1039v81h73v368h-73zM363 449v-368h192l-129 368h-63zM672 449l55 -232l55 232h-110z" />
    <glyph glyph-name="fiveroman" unicode="&#x2174;" horiz-adv-x="776" 
d="M753 530v-81h-65l-129 -368h176v-81h-694v81h175l-129 368h-64v81h730zM333 449l55 -232l55 232h-110z" />
    <glyph glyph-name="sixroman" unicode="&#x2175;" horiz-adv-x="1115" 
d="M1080 81v-81h-1039v81h175l-129 368h-64v81h1057v-81h-73v-368h73zM688 449l-129 -368h193v368h-64zM333 449l55 -232l55 232h-110z" />
    <glyph glyph-name="sevenroman" unicode="&#x2176;" horiz-adv-x="1467" 
d="M41 0v81h175l-129 368h-64v81h1409v-81h-73v-368h73v-81h-1391zM688 449l-129 -368h193v368h-64zM1007 449v-368h97v368h-97zM333 449l55 -232l55 232h-110z" />
    <glyph glyph-name="eightroman" unicode="&#x2177;" horiz-adv-x="1819" 
d="M41 0v81h175l-129 368h-64v81h1762v-81h-74v-368h74v-81h-1744zM688 449l-129 -368h193v368h-64zM1359 81h97v368h-97v-368zM1007 449v-368h97v368h-97zM333 449l55 -232l55 232h-110z" />
    <glyph glyph-name="nineroman" unicode="&#x2178;" horiz-adv-x="1148" 
d="M929 277l112 -196h81v-81h-1087v81h73v368h-73v81h1075v-81h-86zM569 277l-96 172h-110v-368h93zM749 188l-35 -107h70zM716 449l33 -90l33 90h-66z" />
    <glyph glyph-name="tenroman" unicode="&#x2179;" horiz-adv-x="798" 
d="M579 277l112 -196h81v-81h-746v81h80l113 196l-96 172h-85v81h722v-81h-86zM399 188l-35 -107h70zM366 449l33 -90l33 90h-66z" />
    <glyph glyph-name="elevenroman" unicode="&#x217a;" horiz-adv-x="1148" 
d="M1113 81v-81h-1087v81h80l113 196l-96 172h-85v81h1075v-81h-73v-368h73zM580 277l111 -196h94v368h-111zM399 188l-35 -107h70zM366 449l33 -90l33 90h-66z" />
    <glyph glyph-name="twelveroman" unicode="&#x217b;" horiz-adv-x="1500" 
d="M26 0v81h80l113 196l-96 172h-85v81h1427v-81h-73v-368h73v-81h-1439zM674 449l-93 -172l110 -196h94v368h-111zM1040 449v-368h97v368h-97zM399 188l-35 -107h70zM366 449l33 -90l33 90h-66z" />
    <glyph glyph-name="fiftyroman" unicode="&#x217c;" horiz-adv-x="429" 
d="M8 0v81h79v577h-79v81h334v-658h78v-81h-412z" />
    <glyph glyph-name="hundredroman" unicode="&#x217d;" horiz-adv-x="553" 
d="M24 265q0 124 81.5 201t222.5 77q90 0 191 -38v-212h-81v65q-22 6 -56 6q-58 0 -83 -28t-25 -68q0 -39 25 -68t83 -29q54 0 102 22l33 -171q-101 -35 -196 -35q-136 0 -216.5 76.5t-80.5 201.5z" />
    <glyph glyph-name="fivehundredroman" unicode="&#x217e;" horiz-adv-x="741" 
d="M310 658v81h344v-658h79v-81h-324v68q-64 -81 -161 -81q-98 0 -160.5 81t-62.5 198t65.5 197t166.5 80q83 0 142 -65v180h-89zM346 177q32 0 53 26t21 63t-21 63t-53 26t-53 -26t-21 -63t21 -63t53 -26z" />
    <glyph glyph-name="thousandroman" unicode="&#x217f;" horiz-adv-x="1129" 
d="M26 0v81h78v368h-78v81h322v-54q62 67 167 67q101 0 155 -77q69 77 189 77q80 0 134 -52t54 -131v-279h79v-81h-334v303q0 21 -12.5 35t-31.5 14t-32 -14.5t-13 -34.5v-303h-255v303q0 21 -12.5 35t-31.5 14t-32 -14.5t-13 -34.5v-303h-333z" />
    <glyph glyph-name="arrowleft" unicode="&#x2190;" horiz-adv-x="821" 
d="M769 333v-122h-485l44 -131l-277 192l277 192l-44 -131h485z" />
    <glyph glyph-name="arrowup" unicode="&#x2191;" horiz-adv-x="466" 
d="M294 -21h-122v485l-131 -44l192 277l192 -277l-131 44v-485z" />
    <glyph glyph-name="arrowright" unicode="&#x2192;" horiz-adv-x="821" 
d="M51 211v122h485l-44 131l277 -192l-277 -192l44 131h-485z" />
    <glyph glyph-name="arrowdown" unicode="&#x2193;" horiz-adv-x="466" 
d="M172 681h122v-485l131 44l-192 -277l-192 277l131 -44v485z" />
    <glyph glyph-name="arrowboth" unicode="&#x2194;" horiz-adv-x="926" 
d="M660 369l-45 132l277 -193l-277 -192l45 131h-396l45 -131l-277 192l277 193l-45 -132h396z" />
    <glyph glyph-name="arrowupdn" unicode="&#x2195;" horiz-adv-x="500" 
d="M311 153l132 45l-193 -277l-192 277l131 -45v396l-131 -45l192 277l193 -277l-132 45v-396z" />
    <glyph glyph-name="uni2196" unicode="&#x2196;" horiz-adv-x="637" 
d="M593 147l-87 -87l-342 342l-61 -124l-60 332l333 -60l-126 -61z" />
    <glyph glyph-name="uni2197" unicode="&#x2197;" horiz-adv-x="637" 
d="M130 60l-87 87l343 342l-126 61l333 60l-60 -332l-61 124z" />
    <glyph glyph-name="uni2198" unicode="&#x2198;" horiz-adv-x="637" 
d="M43 523l87 87l342 -342l61 124l60 -332l-333 60l126 61z" />
    <glyph glyph-name="uni2199" unicode="&#x2199;" horiz-adv-x="637" 
d="M506 610l87 -87l-343 -342l126 -61l-333 -60l60 332l61 -124z" />
    <glyph glyph-name="uni21B0" unicode="&#x21b0;" horiz-adv-x="634" 
d="M322 624l-45 -131h311v-465h-122v343h-189l45 -131l-277 192z" />
    <glyph glyph-name="uni21B1" unicode="&#x21b1;" horiz-adv-x="634" 
d="M588 432l-277 -192l45 131h-189v-343h-122v465h311l-45 131z" />
    <glyph glyph-name="uni21B2" unicode="&#x21b2;" horiz-adv-x="634" 
d="M467 333v343h122v-465h-311l44 -131l-277 192l277 192l-44 -131h189z" />
    <glyph glyph-name="uni21B3" unicode="&#x21b3;" horiz-adv-x="634" 
d="M167 676v-343h189l-44 131l277 -192l-277 -192l44 131h-311v465h122z" />
    <glyph glyph-name="uni21C4" unicode="&#x21c4;" horiz-adv-x="889" 
d="M68 402v122h541l-45 131l277 -192l-277 -193l45 132h-541zM821 199v-122h-541l45 -132l-277 193l277 192l-45 -131h541z" />
    <glyph glyph-name="uni21C5" unicode="&#x21c5;" horiz-adv-x="811" 
d="M303 -25h-122v541l-131 -45l192 277l193 -277l-132 45v-541zM506 728h122v-541l132 45l-193 -277l-192 277l131 -45v541z" />
    <glyph glyph-name="uni21C6" unicode="&#x21c6;" horiz-adv-x="889" 
d="M821 524v-122h-541l45 -132l-277 193l277 192l-45 -131h541zM68 77v122h541l-45 131l277 -192l-277 -193l45 132h-541z" />
    <glyph glyph-name="uni21C7" unicode="&#x21c7;" horiz-adv-x="889" 
d="M831 198v-122h-541l45 -131l-277 192l232 156v-95h541zM831 523v-122h-541v-95l-232 156l277 192l-45 -131h541z" />
    <glyph glyph-name="uni21C8" unicode="&#x21c8;" horiz-adv-x="811" 
d="M629 -25h-122v541h-95l156 232l192 -277l-131 45v-541zM304 -25h-122v541l-131 -45l192 277l156 -232h-95v-541z" />
    <glyph glyph-name="uni21C9" unicode="&#x21c9;" horiz-adv-x="889" 
d="M58 76v122h541v95l232 -156l-277 -192l45 131h-541zM58 401v122h541l-45 131l277 -192l-232 -156v95h-541z" />
    <glyph glyph-name="uni21CA" unicode="&#x21ca;" horiz-adv-x="811" 
d="M507 711h122v-541l131 45l-192 -277l-156 232h95v541zM182 711h122v-541h95l-156 -232l-192 277l131 -45v541z" />
    <glyph glyph-name="uni21CB" unicode="&#x21cb;" horiz-adv-x="885" 
d="M819 491v-122h-783l366 253l-45 -131h462zM66 109v122h783l-366 -253l45 131h-462z" />
    <glyph glyph-name="uni21CC" unicode="&#x21cc;" horiz-adv-x="885" 
d="M66 369v122h462l-45 131l366 -253h-783zM819 231v-122h-462l45 -131l-366 253h783z" />
    <glyph glyph-name="arrowdblleft" unicode="&#x21d0;" horiz-adv-x="833" 
d="M125 271l54 -49h603v-48h-551l118 -107l-35 -43l-263 248l264 246l34 -41l-118 -108l551 -1v-48h-604z" />
    <glyph glyph-name="arrowdblup" unicode="&#x21d1;" horiz-adv-x="568" 
d="M284 634l-49 -54v-603h-48v550l-107 -117l-43 35l248 263l246 -264l-41 -34l-109 117v-550h-48v603z" />
    <glyph glyph-name="arrowdblright" unicode="&#x21d2;" horiz-adv-x="833" 
d="M484 67l117 107h-550v48h603l54 49l-54 49h-603v48l550 1l-117 108l34 41l264 -246l-263 -248z" />
    <glyph glyph-name="arrowdbldown" unicode="&#x21d3;" horiz-adv-x="568" 
d="M80 260l107 -118v551h48v-603l49 -54l49 53v604h48v-551l109 118l41 -34l-246 -264l-248 263z" />
    <glyph glyph-name="arrowdblboth" unicode="&#x21d4;" horiz-adv-x="889" 
d="M542 67l118 108h-431l118 -108l-35 -42l-263 247l263 247l35 -42l-118 -108h431l-118 108l35 42l263 -247l-263 -247zM123 272l53 -49h536l54 49l-53 48h-538z" />
    <glyph glyph-name="uni21D5" unicode="&#x21d5;" horiz-adv-x="579" 
d="M77 238l108 -118v431l-108 -118l-42 35l247 263l247 -263l-42 -35l-108 118v-431l108 118l42 -35l-247 -263l-247 263zM282 657l-49 -54v-536l49 -53l48 52v538z" />
    <glyph glyph-name="uni21D6" unicode="&#x21d6;" horiz-adv-x="698" 
d="M108 578l3 -73l427 -426l-34 -34l-390 389l8 -159l-55 -5l-11 361l361 -12l-5 -54l-160 7l389 -390l-34 -34l-427 427z" />
    <glyph glyph-name="uni21D7" unicode="&#x21d7;" horiz-adv-x="698" 
d="M575 275l7 159l-389 -389l-34 34l426 426l4 73l-72 -3l-427 -427l-34 34l389 390l-160 -7l-5 54l361 12l-11 -361z" />
    <glyph glyph-name="uni21D8" unicode="&#x21d8;" horiz-adv-x="698" 
d="M589 98l-4 72l-426 427l34 34l389 -390l-7 160l55 5l11 -361l-361 12l5 54l160 -7l-389 390l34 34l427 -427z" />
    <glyph glyph-name="uni21D9" unicode="&#x21d9;" horiz-adv-x="698" 
d="M122 401l-8 -160l390 390l34 -34l-427 -427l-3 -72l72 3l427 427l34 -34l-389 -390l160 7l5 -54l-361 -12l11 361z" />
    <glyph glyph-name="partialdiff" unicode="&#x2202;" horiz-adv-x="619" 
d="M238 447q80 0 129 -47q-39 75 -98 122.5t-150 92.5l87 140q169 -64 273 -181t104 -280q0 -135 -74.5 -221t-217.5 -86q-121 0 -192.5 62t-71.5 168q0 98 58.5 164t152.5 66zM302 150q43 0 43 79q0 70 -42 70q-44 0 -44 -78q0 -71 43 -71z" />
    <glyph glyph-name="Delta" unicode="&#x2206;" horiz-adv-x="676" 
d="M428 676l226 -676h-632l226 676h180zM242 141h194l-98 323z" />
    <glyph glyph-name="product" unicode="&#x220f;" horiz-adv-x="735" 
d="M30 676h675v-149h-81v-527h-166v527h-181v-527h-166v527h-81v149z" />
    <glyph glyph-name="summation" unicode="&#x2211;" horiz-adv-x="573" 
d="M39 676h497v-149h-296l160 -167v-44l-160 -167h296v-149h-497v150l179 188l-179 188v150z" />
    <glyph glyph-name="minus" unicode="&#x2212;" horiz-adv-x="615" 
d="M565 332v-155h-515v155h515z" />
    <glyph glyph-name="radical" unicode="&#x221a;" horiz-adv-x="675" 
d="M696 676l-289 -676h-109l-169 277l-73 -49l-69 101l185 122l153 -249l204 474h167z" />
    <glyph glyph-name="infinity" unicode="&#x221e;" horiz-adv-x="762" 
d="M567 404q73 0 119 -52t46 -124t-46 -124t-119 -52q-17 0 -33.5 3.5t-28.5 7t-26.5 13t-22 14t-21.5 18.5l-18.5 18.5t-19 21t-16.5 19.5q-2 -3 -13 -15.5l-14.5 -16.5l-14 -15.5t-16 -16l-16.5 -13.5t-18.5 -13l-19.5 -10t-22.5 -8.5t-23.5 -4.5t-27 -2q-73 0 -119.5 52
t-46.5 124t46.5 124t119.5 52q15 0 29 -1.5t27.5 -7.5t23 -9t22 -13.5t18 -14t18.5 -17t15.5 -16.5l16.5 -19t15 -17q2 3 16.5 19.5t19 21l18.5 18.5t21.5 18.5t22 14t26.5 13t28.5 7t33.5 3.5zM209 137q10 0 20.5 2.5t18 5.5t17.5 11l15 12t15 15l13 14.5l13.5 16
t11.5 14.5q-3 3 -19 22t-23.5 26t-22 19.5t-29 17.5t-30.5 5q-38 0 -61.5 -26t-23.5 -64t23.5 -64.5t61.5 -26.5zM554 137q38 0 61.5 26t23.5 65q0 38 -23.5 64t-61.5 26q-11 0 -22 -2.5t-21.5 -9t-17.5 -11.5t-17.5 -16l-15 -16l-16 -18.5t-13.5 -16.5q2 -2 19 -23
t23.5 -27l21.5 -19t29 -17.5t30 -4.5z" />
    <glyph glyph-name="integral" unicode="&#x222b;" horiz-adv-x="435" 
d="M452 764l-24 -103q-36 31 -77 31q-50 0 -50 -40v-729q0 -68 -35.5 -110.5t-109.5 -42.5q-103 0 -172 59l24 103q36 -31 77 -31q50 0 50 40v729q0 68 35.5 110.5t109.5 42.5q103 0 172 -59z" />
    <glyph glyph-name="approxequal" unicode="&#x2248;" horiz-adv-x="685" 
d="M38 324q0 34 11.5 70.5t33.5 70t59.5 55t83.5 21.5q50 0 94 -18.5t76.5 -37t55.5 -18.5q53 0 75 84h119q-1 -51 -22 -102t-66 -88t-104 -37q-38 0 -73 11.5t-56 25t-47.5 25t-51.5 11.5q-28 0 -46 -22t-24 -51h-118zM38 66q0 34 11.5 70.5t33.5 70t59.5 55t83.5 21.5
q50 0 94 -18.5t76.5 -37t55.5 -18.5q53 0 75 84h119q-1 -51 -22 -102t-66 -88t-104 -37q-38 0 -73 11.5t-56 25t-47.5 25t-51.5 11.5q-28 0 -46 -22t-24 -51h-118z" />
    <glyph glyph-name="notequal" unicode="&#x2260;" horiz-adv-x="605" 
d="M44 57v155h203l43 86h-246v155h323l72 144l67 -33l-55 -111h108v-155h-185l-43 -86h228v-155h-305l-90 -181l-67 33l73 148h-126z" />
    <glyph glyph-name="lessequal" unicode="&#x2264;" horiz-adv-x="568" 
d="M261 334l259 -43v-291h-480v142h441l-441 115v154l480 125v-159z" />
    <glyph glyph-name="greaterequal" unicode="&#x2265;" horiz-adv-x="568" 
d="M48 291l259 43l-259 43v159l480 -125v-154l-442 -115h442v-142h-480v291z" />
    <glyph glyph-name="deleteright" unicode="&#x2326;" horiz-adv-x="809" 
d="M495 433l275 -201l-275 -202h-445v403h445zM100 383v-303h379l206 152l-206 151h-379zM286 233l67 -73l-30 -27l-63 72l-63 -72l-30 27l67 73l-67 73l30 27l63 -72l63 72l30 -27z" />
    <glyph glyph-name="clear" unicode="&#x2327;" horiz-adv-x="809" 
d="M757 433v-403h-704v403h704zM103 383v-303h604v303h-604zM431 233l67 -73l-30 -27l-63 72l-63 -72l-30 27l67 73l-67 73l30 27l63 -72l63 72l30 -27z" />
    <glyph glyph-name="deleteleft" unicode="&#x232b;" horiz-adv-x="809" 
d="M39 232l275 201h445v-403h-445zM709 80v303h-379l-206 -151l206 -152h379zM456 160l67 73l-67 73l30 27l63 -72l63 72l30 -27l-67 -73l67 -73l-30 -27l-63 72l-63 -72z" />
    <glyph glyph-name="Acircleopen" unicode="&#x24b6;" 
d="M452 184l-14 -59h-175l147 419h201l146 -419h-175l-15 59h-115zM510 421l-31 -129h62zM510 807q128 0 237 -63.5t172.5 -172.5t63.5 -237t-63.5 -237t-172.5 -172t-237 -63t-237 63t-172 172t-63 237t63 237t172 172.5t237 63.5zM510 -81q172 0 294 121.5t122 293.5
t-122 294t-294 122t-294 -122t-122 -294t122 -293.5t294 -121.5z" />
    </font>
</defs>
</svg>
