<?xml version="1.0" encoding="utf-8"?>
<!-- Generator: Adobe Illustrator 16.2.1, SVG Export Plug-In . SVG Version: 6.00 Build 0)  -->
<!DOCTYPE svg PUBLIC "-//W3C//DTD SVG 1.1//EN" "http://www.w3.org/Graphics/SVG/1.1/DTD/svg11.dtd">
<svg version="1.1" id="Layer_1" xmlns="http://www.w3.org/2000/svg" xmlns:xlink="http://www.w3.org/1999/xlink" x="0px" y="0px"
	 width="750px" height="200px" viewBox="0 0 750 200" enable-background="new 0 0 750 200" xml:space="preserve">
<g>
	<g>
		<path fill="#939598" d="M383.359,69.575l10.656-25.457c0.127-0.306,0.479-0.45,0.784-0.322s0.45,0.479,0.321,0.786l-9.389,22.431
			L383.359,69.575z"/>
	</g>
	<path fill="#931A2B" d="M392.551,56.62c0,0-5.1,6.75-8.699,10.65C380.25,71.171,375,77.321,375,77.321v13.751
		c0.038-0.002,0.073-0.01,0.111-0.01c0.87,0,1.575,0.705,1.575,1.574c0,0.871-0.705,1.576-1.575,1.576
		c-0.038,0-0.073-0.01-0.111-0.012v13.873c0,0,6.611-4.537,11.4-8.926c5.399-4.949,11.4-12.677,11.4-12.677L392.551,56.62z"/>
	<polygon fill="#A7A9AC" points="371.257,31.458 371.208,36.819 351.944,44.613 352.282,39.849 	"/>
	<polygon fill="#BCBEC0" points="398.02,39.662 398.395,44.423 379.034,36.787 378.943,31.427 	"/>
	<polygon fill="#BCBEC0" points="375.091,29.763 375.112,35.239 346.932,24.123 347.517,17.858 	"/>
	<polygon fill="#BCBEC0" points="347.517,17.858 346.932,24.123 343.195,26.35 343.841,20.233 	"/>
	<polygon fill="#A7A9AC" points="402.541,17.625 403.173,23.886 375.112,35.239 375.091,29.763 	"/>
	<polygon fill="#BCBEC0" points="406.245,19.969 406.938,26.082 403.173,23.886 402.541,17.625 	"/>
	<polygon fill="#808285" points="355.78,45.708 351.944,44.613 371.208,36.819 343.195,26.35 346.932,24.123 375.112,35.239 
		403.173,23.886 406.938,26.082 379.034,36.787 398.395,44.423 394.568,45.55 375.13,38.285 	"/>
	<g>
		<path fill="#939598" d="M343.499,61.431c-0.02,0-0.04,0-0.06-0.003c-0.33-0.033-0.571-0.326-0.538-0.656l3.434-34.607
			c0.032-0.329,0.319-0.571,0.656-0.538c0.329,0.033,0.57,0.327,0.537,0.656l-3.433,34.607
			C344.064,61.2,343.804,61.431,343.499,61.431z"/>
	</g>
	<g>
		<path fill="#939598" d="M405.247,61.431c-0.314,0-0.579-0.246-0.598-0.564l-2.075-34.845c-0.021-0.331,0.231-0.615,0.562-0.635
			c0.338-0.022,0.615,0.232,0.636,0.563l2.074,34.844c0.021,0.331-0.231,0.615-0.562,0.635
			C405.271,61.431,405.259,61.431,405.247,61.431z"/>
	</g>
	<g>
		<path fill="#939598" d="M365.162,68.395l-9.935-23.654c-0.128-0.306,0.016-0.658,0.32-0.786c0.307-0.128,0.658,0.016,0.786,0.321
			l11.026,26.253L365.162,68.395z"/>
	</g>
	<path fill="#A81E2C" d="M373.537,92.637c0-0.832,0.646-1.506,1.463-1.564V77.321c0,0-5.25-6.15-8.851-10.051
		c-3.6-3.9-8.7-10.65-8.7-10.65l-5.25,29.852c0,0,6,7.728,11.4,12.677c4.789,4.389,11.4,8.926,11.4,8.926V94.201
		C374.184,94.143,373.537,93.469,373.537,92.637z"/>
	<g>
		<path fill="#939598" d="M375.111,93.537c-0.146,0-0.293-0.053-0.408-0.16L354.027,74.18l-0.006-1.643l21.085,19.576l20.82-19.81
			l0.084,1.576L375.525,93.37C375.409,93.482,375.261,93.537,375.111,93.537z"/>
	</g>
	<path fill="#CE2227" d="M418.353,60.82l-25.802-4.2c0,0,2.4,13.801,2.4,36.901c0,23.104-3.15,38.854-3.15,38.854l26.103-2.85
		c0,0,3.3-12.603,3.3-34.354C421.202,73.421,418.353,60.82,418.353,60.82z M406.427,121.725c-0.704,0-1.274-0.57-1.274-1.274
		c0-0.703,0.57-1.275,1.274-1.275c0.705,0,1.275,0.572,1.275,1.275C407.702,121.154,407.132,121.725,406.427,121.725z"/>
	<path fill="#CE2227" d="M355.049,93.521c0-23.101,2.4-36.901,2.4-36.901l-25.802,4.2c0,0-2.85,12.601-2.85,34.352
		c0,21.752,3.3,34.354,3.3,34.354l26.102,2.851C358.199,132.375,355.049,116.625,355.049,93.521z M343.094,121.641
		c-0.657,0-1.189-0.533-1.189-1.19c0-0.656,0.532-1.189,1.189-1.189c0.657,0,1.189,0.533,1.189,1.189
		C344.283,121.107,343.751,121.641,343.094,121.641z"/>
	<path fill="none" stroke="#6D6E71" stroke-width="4" stroke-linecap="round" stroke-miterlimit="10" d="M403.427,120.449"/>
	<path fill="none" stroke="#6D6E71" stroke-width="4" stroke-linecap="round" stroke-miterlimit="10" d="M403.427,120.449"/>
	<circle fill="#A51724" cx="406.427" cy="68.396" r="1.179"/>
	<g>
		<path fill="#939598" d="M406.428,121.051c-0.046,0-0.093-0.006-0.14-0.018c-0.322-0.076-0.521-0.398-0.445-0.723
			c0.019-0.074,1.784-7.742,1.784-25.499c0-17.793-1.769-26.208-1.787-26.29c-0.068-0.324,0.137-0.644,0.461-0.713
			c0.321-0.071,0.644,0.136,0.713,0.46c0.019,0.084,1.813,8.625,1.813,26.543c0,17.926-1.742,25.463-1.816,25.775
			C406.945,120.865,406.699,121.051,406.428,121.051z"/>
	</g>
	<circle fill="#A51724" cx="343.094" cy="68.396" r="1.383"/>
	<g>
		<path fill="#939598" d="M343.093,121.051c-0.292,0-0.548-0.215-0.593-0.512c-0.015-0.1-1.507-10.203-1.507-26.041
			s1.492-26.088,1.507-26.19c0.049-0.328,0.354-0.553,0.682-0.505c0.327,0.048,0.554,0.354,0.506,0.681
			c-0.016,0.101-1.494,10.272-1.494,26.015c0,15.75,1.479,25.765,1.493,25.862c0.05,0.326-0.176,0.634-0.504,0.683
			C343.152,121.047,343.122,121.051,343.093,121.051z"/>
	</g>
</g>
<path fill="#CE2227" d="M452.629,148.039c-4.477,0-8.104,3.568-8.104,7.975c0,1.766,0.589,3.391,1.575,4.711
	c0.086,0.012,0.181,0.022,0.264,0.022c0.391,0,0.793-0.052,0.896-0.754l0.948-6.586h3.133l-0.936,6.586
	c-0.25,1.745-1.15,2.485-2.141,2.731c1.261,0.795,2.755,1.262,4.362,1.262c4.475,0,8.103-3.569,8.103-7.973
	C460.731,151.607,457.104,148.039,452.629,148.039z M448.275,152.755l0.285-2.021h3.223l-0.285,2.021H448.275z M457.788,157.717
	c0,1.688-1.416,2.635-3.482,2.635c-1.184,0-2.145-0.308-2.926-0.781l0.561-1.943c0.521,0.41,1.378,0.691,2.053,0.691
	c0.417,0,0.638-0.104,0.638-0.242c0-0.475-2.509,0.025-2.509-2.2c0-1.7,1.469-2.634,3.535-2.634c1.001,0,1.794,0.217,2.509,0.549
	l-0.545,1.854c-0.43-0.203-1.119-0.408-1.781-0.408c-0.17,0-0.609,0.014-0.609,0.219
	C455.229,155.965,457.788,155.454,457.788,157.717z"/>
<g>
	<path fill="#808285" d="M322.865,173.48l0.109-13.729h-0.082l-5.043,13.729h-3.29l-4.905-13.729h-0.083l0.109,13.729h-4.412
		v-19.403h6.668l4.419,12.442h0.109l4.227-12.442h6.777v19.403H322.865L322.865,173.48z"/>
	<path fill="#808285" d="M329.936,161.695c0.804-0.768,1.74-1.342,2.809-1.727c1.069-0.384,2.161-0.574,3.276-0.574
		c1.15,0,2.124,0.142,2.918,0.424c0.795,0.283,1.439,0.724,1.933,1.315c0.493,0.595,0.854,1.343,1.082,2.247
		c0.229,0.904,0.343,1.979,0.343,3.221v6.879h-4.111v-1.451h-0.082c-0.347,0.566-0.872,1.006-1.575,1.316
		c-0.704,0.309-1.468,0.465-2.289,0.465c-0.548,0-1.114-0.074-1.699-0.221s-1.119-0.383-1.604-0.712
		c-0.484-0.328-0.882-0.769-1.192-1.315s-0.466-1.225-0.466-2.027c0-0.986,0.269-1.78,0.809-2.385
		c0.539-0.604,1.232-1.068,2.083-1.397c0.85-0.329,1.795-0.548,2.837-0.658c1.041-0.108,2.056-0.163,3.042-0.163v-0.221
		c0-0.675-0.238-1.173-0.712-1.493c-0.476-0.319-1.061-0.479-1.755-0.479c-0.64,0-1.257,0.139-1.85,0.41
		c-0.594,0.274-1.101,0.604-1.521,0.987L329.936,161.695z M338.185,167.534h-0.575c-0.493,0-0.992,0.022-1.494,0.069
		c-0.502,0.045-0.949,0.133-1.343,0.26c-0.393,0.128-0.717,0.314-0.973,0.562c-0.256,0.246-0.384,0.57-0.384,0.974
		c0,0.256,0.06,0.476,0.179,0.656c0.118,0.184,0.27,0.329,0.452,0.439c0.183,0.107,0.393,0.188,0.63,0.232
		c0.237,0.045,0.466,0.067,0.686,0.067c0.913,0,1.611-0.251,2.097-0.754c0.483-0.501,0.726-1.183,0.726-2.041L338.185,167.534
		L338.185,167.534z"/>
	<path fill="#808285" d="M353.45,163.532c-0.201-0.056-0.397-0.091-0.589-0.109c-0.192-0.019-0.38-0.026-0.562-0.026
		c-0.603,0-1.11,0.109-1.521,0.328c-0.411,0.219-0.741,0.482-0.987,0.791c-0.246,0.312-0.425,0.647-0.534,1.012
		c-0.109,0.365-0.164,0.685-0.164,0.957v6.998h-4.496V159.85h4.331v1.974h0.055c0.348-0.698,0.84-1.271,1.48-1.71
		c0.64-0.441,1.379-0.663,2.221-0.663c0.182,0,0.36,0.01,0.534,0.026c0.172,0.02,0.314,0.045,0.425,0.082L353.45,163.532z"/>
	<path fill="#808285" d="M360.329,155.475c0,0.349-0.067,0.672-0.206,0.974c-0.136,0.303-0.318,0.562-0.547,0.782
		c-0.229,0.218-0.503,0.393-0.823,0.521c-0.319,0.128-0.653,0.19-1,0.19c-0.73,0-1.342-0.241-1.836-0.727
		c-0.493-0.482-0.741-1.062-0.741-1.74c0-0.328,0.064-0.644,0.193-0.945c0.127-0.301,0.311-0.562,0.548-0.78
		c0.237-0.22,0.511-0.397,0.822-0.534c0.311-0.137,0.648-0.205,1.014-0.205c0.347,0,0.681,0.062,1,0.191
		c0.32,0.128,0.594,0.302,0.823,0.521c0.229,0.219,0.411,0.479,0.547,0.78C360.262,154.803,360.329,155.128,360.329,155.475z
		 M355.505,173.48v-13.648h4.496v13.648H355.505z"/>
	<path fill="#808285" d="M376.938,166.604c0,1.114-0.201,2.123-0.603,3.027c-0.403,0.905-0.95,1.672-1.645,2.303
		c-0.694,0.631-1.5,1.121-2.412,1.467c-0.914,0.348-1.891,0.521-2.933,0.521c-1.023,0-1.996-0.173-2.919-0.521
		c-0.923-0.346-1.727-0.836-2.413-1.467c-0.685-0.631-1.229-1.396-1.63-2.303c-0.402-0.904-0.604-1.913-0.604-3.027
		c0-1.113,0.201-2.119,0.604-3.016c0.401-0.896,0.945-1.652,1.63-2.275c0.687-0.621,1.49-1.097,2.413-1.424
		c0.923-0.33,1.896-0.494,2.919-0.494c1.042,0,2.019,0.164,2.933,0.494c0.912,0.327,1.718,0.803,2.412,1.424
		c0.694,0.623,1.242,1.381,1.645,2.275C376.736,164.482,376.938,165.488,376.938,166.604z M372.607,166.604
		c0-0.438-0.073-0.869-0.219-1.289s-0.356-0.789-0.63-1.109c-0.274-0.318-0.613-0.579-1.014-0.781
		c-0.402-0.201-0.869-0.301-1.398-0.301c-0.53,0-0.996,0.1-1.398,0.301c-0.401,0.202-0.735,0.463-1,0.781
		c-0.265,0.32-0.466,0.689-0.603,1.109c-0.137,0.42-0.207,0.851-0.207,1.289c0,0.438,0.07,0.867,0.207,1.287
		c0.137,0.42,0.343,0.801,0.616,1.139s0.612,0.606,1.015,0.809c0.401,0.201,0.867,0.301,1.397,0.301c0.53,0,0.996-0.1,1.397-0.301
		s0.74-0.471,1.014-0.809c0.275-0.338,0.48-0.719,0.617-1.139C372.538,167.471,372.607,167.041,372.607,166.604z"/>
	<path fill="#808285" d="M387.107,173.48v-7.453c0-0.385-0.033-0.75-0.097-1.096c-0.065-0.349-0.17-0.654-0.315-0.92
		c-0.146-0.265-0.354-0.475-0.617-0.631c-0.266-0.154-0.6-0.232-0.999-0.232c-0.402,0-0.754,0.078-1.056,0.232
		c-0.303,0.156-0.554,0.37-0.754,0.645c-0.201,0.275-0.353,0.59-0.453,0.947c-0.101,0.354-0.149,0.726-0.149,1.108v7.399h-4.522
		v-13.649h4.358v1.892h0.054c0.164-0.291,0.381-0.578,0.645-0.861c0.265-0.284,0.576-0.526,0.933-0.728
		c0.356-0.2,0.744-0.366,1.165-0.493c0.42-0.127,0.867-0.191,1.344-0.191c0.912,0,1.689,0.162,2.33,0.492
		c0.639,0.33,1.154,0.754,1.547,1.274c0.395,0.521,0.678,1.12,0.852,1.796c0.173,0.676,0.26,1.352,0.26,2.027v8.441H387.107
		L387.107,173.48z"/>
	<path fill="#808285" d="M407.471,166.82c0,0.185,0,0.367,0,0.55s-0.009,0.354-0.026,0.521h-9.896
		c0.037,0.385,0.15,0.73,0.343,1.041c0.191,0.312,0.438,0.58,0.741,0.81c0.301,0.229,0.639,0.407,1.015,0.534
		c0.372,0.129,0.762,0.191,1.163,0.191c0.714,0,1.316-0.132,1.811-0.396c0.492-0.266,0.895-0.607,1.206-1.028l3.124,1.976
		c-0.642,0.931-1.484,1.647-2.536,2.15c-1.05,0.503-2.271,0.753-3.658,0.753c-1.022,0-1.991-0.159-2.905-0.479
		c-0.914-0.318-1.714-0.783-2.397-1.396c-0.685-0.611-1.224-1.365-1.617-2.262c-0.394-0.895-0.589-1.918-0.589-3.069
		c0-1.114,0.191-2.124,0.575-3.028c0.384-0.903,0.905-1.672,1.562-2.303c0.658-0.63,1.436-1.117,2.329-1.466
		c0.896-0.347,1.864-0.521,2.905-0.521c1.005,0,1.929,0.168,2.77,0.506c0.84,0.339,1.562,0.828,2.164,1.467
		c0.604,0.641,1.073,1.417,1.412,2.33C407.302,164.609,407.471,165.652,407.471,166.82z M403.333,165.096
		c0-0.714-0.225-1.324-0.673-1.837c-0.447-0.512-1.119-0.768-2.013-0.768c-0.439,0-0.844,0.067-1.207,0.206
		c-0.366,0.137-0.687,0.324-0.959,0.562c-0.274,0.238-0.494,0.517-0.658,0.837c-0.165,0.319-0.256,0.652-0.274,1H403.333
		L403.333,165.096z"/>
	<path fill="#808285" d="M414.049,163.177v5.228c0,0.643,0.123,1.123,0.37,1.445c0.247,0.321,0.689,0.481,1.328,0.481
		c0.22,0,0.453-0.019,0.7-0.056c0.246-0.037,0.452-0.092,0.617-0.164l0.054,3.287c-0.312,0.11-0.703,0.207-1.179,0.289
		s-0.949,0.123-1.426,0.123c-0.914,0-1.681-0.115-2.303-0.344c-0.621-0.229-1.119-0.56-1.494-0.99
		c-0.374-0.43-0.643-0.941-0.808-1.537c-0.164-0.596-0.247-1.26-0.247-1.992v-5.771h-2.192v-3.345h2.166v-3.589h4.412v3.589h3.207
		v3.345L414.049,163.177L414.049,163.177z"/>
	<path fill="#808285" d="M424.684,163.177v5.228c0,0.643,0.123,1.123,0.369,1.445c0.247,0.321,0.69,0.481,1.33,0.481
		c0.219,0,0.452-0.019,0.698-0.056s0.453-0.092,0.617-0.164l0.055,3.287c-0.311,0.11-0.703,0.207-1.18,0.289
		c-0.476,0.082-0.949,0.123-1.424,0.123c-0.915,0-1.683-0.115-2.304-0.344s-1.119-0.56-1.494-0.99
		c-0.374-0.43-0.644-0.941-0.808-1.537c-0.165-0.596-0.247-1.26-0.247-1.992v-5.771h-2.192v-3.345h2.165v-3.589h4.413v3.589h3.206
		v3.345L424.684,163.177L424.684,163.177z"/>
	<path fill="#808285" d="M442.992,166.82c0,0.185,0,0.367,0,0.55s-0.01,0.354-0.028,0.521h-9.895c0.037,0.385,0.15,0.73,0.343,1.041
		c0.191,0.312,0.438,0.58,0.741,0.81c0.301,0.229,0.639,0.407,1.014,0.534c0.374,0.129,0.763,0.191,1.164,0.191
		c0.713,0,1.316-0.132,1.809-0.396c0.494-0.266,0.896-0.607,1.207-1.028l3.125,1.976c-0.641,0.931-1.484,1.647-2.536,2.15
		c-1.051,0.503-2.271,0.753-3.658,0.753c-1.023,0-1.991-0.159-2.905-0.479c-0.913-0.318-1.713-0.783-2.397-1.396
		c-0.686-0.611-1.225-1.365-1.616-2.262c-0.395-0.895-0.591-1.918-0.591-3.069c0-1.114,0.192-2.124,0.575-3.028
		c0.384-0.903,0.905-1.672,1.563-2.303c0.658-0.63,1.433-1.117,2.329-1.466c0.896-0.347,1.862-0.521,2.904-0.521
		c1.005,0,1.929,0.168,2.769,0.506c0.841,0.339,1.562,0.828,2.166,1.467c0.603,0.641,1.072,1.417,1.411,2.33
		C442.823,164.611,442.992,165.652,442.992,166.82z M438.854,165.096c0-0.714-0.225-1.324-0.672-1.837
		c-0.447-0.512-1.119-0.768-2.015-0.768c-0.438,0-0.841,0.067-1.205,0.206c-0.367,0.137-0.687,0.324-0.96,0.562
		c-0.273,0.238-0.494,0.517-0.658,0.837c-0.165,0.319-0.256,0.652-0.273,1H438.854L438.854,165.096z"/>
</g>
</svg>
